Lora-Bold.ufo
<glyph name="exclam" format="2">
  <advance width="258.0"/>
  <unicode hex="0021"/>
  <outline>
    <contour>
      <point x="95.0" y="213.0" type="line"/>
      <point x="163.0" y="213.0" type="line"/>
      <point x="200.0" y="625.0" type="line" smooth="yes"/>
      <point x="204.0" y="668.0"/>
      <point x="183.0" y="716.0"/>
      <point x="129.0" y="716.0" type="curve" smooth="yes"/>
      <point x="78.0" y="716.0"/>
      <point x="53.0" y="668.0"/>
      <point x="57.0" y="625.0" type="curve" smooth="yes"/>
    </contour>
    <contour>
      <point x="128.0" y="-16.0" type="curve" smooth="yes"/>
      <point x="166.0" y="-16.0"/>
      <point x="201.0" y="19.0"/>
      <point x="201.0" y="62.0" type="curve" smooth="yes"/>
      <point x="201.0" y="105.0"/>
      <point x="170.0" y="140.0"/>
      <point x="129.0" y="140.0" type="curve" smooth="yes"/>
      <point x="90.0" y="140.0"/>
      <point x="56.0" y="105.0"/>
      <point x="56.0" y="62.0" type="curve" smooth="yes"/>
      <point x="56.0" y="19.0"/>
      <point x="89.0" y="-16.0"/>
    </contour>
  </outline>
</glyph>
<glyph name="numbersign" format="2">
  <advance width="871.0"/>
  <unicode hex="0023"/>
  <outline>
    <contour>
      <point x="162.0" y="-16.0" type="line"/>
      <point x="268.0" y="-16.0" type="line"/>
      <point x="307.0" y="154.0" type="line"/>
      <point x="478.0" y="154.0" type="line"/>
      <point x="437.0" y="-16.0" type="line"/>
      <point x="543.0" y="-16.0" type="line"/>
      <point x="583.0" y="154.0" type="line"/>
      <point x="747.0" y="154.0" type="line"/>
      <point x="768.0" y="243.0" type="line"/>
      <point x="601.0" y="243.0" type="line"/>
      <point x="648.0" y="440.0" type="line"/>
      <point x="814.0" y="440.0" type="line"/>
      <point x="834.0" y="528.0" type="line"/>
      <point x="834.0" y="529.0" type="line"/>
      <point x="667.0" y="529.0" type="line"/>
      <point x="709.0" y="716.0" type="line"/>
      <point x="609.0" y="716.0" type="line"/>
      <point x="565.0" y="529.0" type="line"/>
      <point x="392.0" y="529.0" type="line"/>
      <point x="435.0" y="716.0" type="line"/>
      <point x="334.0" y="716.0" type="line"/>
      <point x="290.0" y="529.0" type="line"/>
      <point x="124.0" y="529.0" type="line"/>
      <point x="103.0" y="440.0" type="line"/>
      <point x="271.0" y="440.0" type="line"/>
      <point x="221.0" y="243.0" type="line"/>
      <point x="58.0" y="243.0" type="line"/>
      <point x="37.0" y="154.0" type="line"/>
      <point x="203.0" y="154.0" type="line"/>
    </contour>
    <contour>
      <point x="325.0" y="243.0" type="line"/>
      <point x="373.0" y="440.0" type="line"/>
      <point x="546.0" y="440.0" type="line"/>
      <point x="496.0" y="243.0" type="line"/>
    </contour>
  </outline>
</glyph>
<glyph name="dollar" format="2">
  <advance width="588.0"/>
  <unicode hex="0024"/>
  <outline>
    <contour>
      <point x="263.0" y="-154.0" type="line"/>
      <point x="354.0" y="-154.0" type="line"/>
      <point x="355.0" y="-13.0" type="line"/>
      <point x="478.0" y="4.0"/>
      <point x="546.0" y="81.0"/>
      <point x="546.0" y="186.0" type="curve" smooth="yes"/>
      <point x="546.0" y="316.0"/>
      <point x="431.0" y="374.0"/>
      <point x="332.0" y="418.0" type="curve" smooth="yes"/>
      <point x="217.0" y="470.0"/>
      <point x="180.0" y="496.0"/>
      <point x="180.0" y="558.0" type="curve" smooth="yes"/>
      <point x="180.0" y="608.0"/>
      <point x="218.0" y="644.0"/>
      <point x="274.0" y="644.0" type="curve" smooth="yes"/>
      <point x="368.0" y="645.0"/>
      <point x="415.0" y="587.0"/>
      <point x="433.0" y="476.0" type="curve"/>
      <point x="499.0" y="476.0" type="line"/>
      <point x="499.0" y="709.0" type="line"/>
      <point x="421.0" y="709.0" type="line"/>
      <point x="424.0" y="668.0" type="line"/>
      <point x="400.0" y="686.0"/>
      <point x="372.0" y="698.0"/>
      <point x="343.0" y="706.0" type="curve"/>
      <point x="344.0" y="837.0" type="line"/>
      <point x="250.0" y="837.0" type="line"/>
      <point x="250.0" y="716.0" type="line"/>
      <point x="90.0" y="708.0"/>
      <point x="50.0" y="604.0"/>
      <point x="50.0" y="525.0" type="curve" smooth="yes"/>
      <point x="50.0" y="394.0"/>
      <point x="151.0" y="326.0"/>
      <point x="267.0" y="278.0" type="curve" smooth="yes"/>
      <point x="343.0" y="247.0"/>
      <point x="413.0" y="224.0"/>
      <point x="413.0" y="156.0" type="curve" smooth="yes"/>
      <point x="413.0" y="99.0"/>
      <point x="373.0" y="56.0"/>
      <point x="302.0" y="56.0" type="curve" smooth="yes"/>
      <point x="208.0" y="56.0"/>
      <point x="145.0" y="113.0"/>
      <point x="126.0" y="225.0" type="curve"/>
      <point x="61.0" y="225.0" type="line"/>
      <point x="61.0" y="-9.0" type="line"/>
      <point x="138.0" y="-9.0" type="line"/>
      <point x="136.0" y="33.0" type="line"/>
      <point x="175.0" y="9.0"/>
      <point x="220.0" y="-6.0"/>
      <point x="262.0" y="-13.0" type="curve"/>
    </contour>
  </outline>
</glyph>
<glyph name="percent" format="2">
  <advance width="904.0"/>
  <unicode hex="0025"/>
  <outline>
    <contour>
      <point x="193.0" y="-17.0" type="line"/>
      <point x="771.0" y="650.0" type="line"/>
      <point x="698.0" y="716.0" type="line"/>
      <point x="128.0" y="44.0" type="line"/>
    </contour>
    <contour>
      <point x="230.0" y="325.0" type="curve" smooth="yes"/>
      <point x="335.0" y="325.0"/>
      <point x="417.0" y="420.0"/>
      <point x="417.0" y="526.0" type="curve" smooth="yes"/>
      <point x="417.0" y="618.0"/>
      <point x="351.0" y="718.0"/>
      <point x="228.0" y="716.0" type="curve" smooth="yes"/>
      <point x="109.0" y="713.0"/>
      <point x="41.0" y="611.0"/>
      <point x="41.0" y="517.0" type="curve" smooth="yes"/>
      <point x="41.0" y="418.0"/>
      <point x="107.0" y="325.0"/>
    </contour>
    <contour>
      <point x="231.0" y="405.0" type="curve" smooth="yes"/>
      <point x="176.0" y="405.0"/>
      <point x="164.0" y="482.0"/>
      <point x="164.0" y="532.0" type="curve" smooth="yes"/>
      <point x="164.0" y="570.0"/>
      <point x="178.0" y="639.0"/>
      <point x="229.0" y="639.0" type="curve" smooth="yes"/>
      <point x="280.0" y="639.0"/>
      <point x="295.0" y="563.0"/>
      <point x="295.0" y="511.0" type="curve" smooth="yes"/>
      <point x="295.0" y="464.0"/>
      <point x="280.0" y="405.0"/>
    </contour>
    <contour>
      <point x="677.0" y="-16.0" type="curve" smooth="yes"/>
      <point x="782.0" y="-16.0"/>
      <point x="864.0" y="80.0"/>
      <point x="864.0" y="185.0" type="curve" smooth="yes"/>
      <point x="864.0" y="277.0"/>
      <point x="797.0" y="377.0"/>
      <point x="675.0" y="375.0" type="curve" smooth="yes"/>
      <point x="556.0" y="372.0"/>
      <point x="488.0" y="270.0"/>
      <point x="488.0" y="176.0" type="curve" smooth="yes"/>
      <point x="488.0" y="77.0"/>
      <point x="554.0" y="-16.0"/>
    </contour>
    <contour>
      <point x="678.0" y="64.0" type="curve" smooth="yes"/>
      <point x="623.0" y="64.0"/>
      <point x="610.0" y="141.0"/>
      <point x="610.0" y="191.0" type="curve" smooth="yes"/>
      <point x="610.0" y="229.0"/>
      <point x="625.0" y="298.0"/>
      <point x="676.0" y="298.0" type="curve" smooth="yes"/>
      <point x="727.0" y="298.0"/>
      <point x="742.0" y="222.0"/>
      <point x="742.0" y="170.0" type="curve" smooth="yes"/>
      <point x="742.0" y="124.0"/>
      <point x="727.0" y="64.0"/>
    </contour>
  </outline>
</glyph>
<glyph name="quotesingle" format="2">
  <advance width="188.0"/>
  <unicode hex="0027"/>
  <outline>
    <contour>
      <point x="52.0" y="491.0" type="line"/>
      <point x="137.0" y="491.0" type="line"/>
      <point x="146.0" y="716.0" type="line"/>
      <point x="42.0" y="716.0" type="line"/>
    </contour>
  </outline>
</glyph>
<glyph name="plus" format="2">
  <advance width="530.0"/>
  <unicode hex="002B"/>
  <outline>
    <contour>
      <point x="42.0" y="399.0" type="line"/>
      <point x="42.0" y="321.0" type="line"/>
      <point x="488.0" y="321.0" type="line"/>
      <point x="488.0" y="399.0" type="line"/>
    </contour>
    <contour>
      <point x="304.0" y="583.0" type="line"/>
      <point x="226.0" y="583.0" type="line"/>
      <point x="226.0" y="137.0" type="line"/>
      <point x="304.0" y="137.0" type="line"/>
    </contour>
  </outline>
</glyph>
<glyph name="comma" format="2">
  <advance width="250.0"/>
  <unicode hex="002C"/>
  <outline>
    <contour>
      <point x="116.0" y="-187.0" type="line"/>
      <point x="178.0" y="-110.0"/>
      <point x="208.0" y="-32.0"/>
      <point x="208.0" y="32.0" type="curve" smooth="yes"/>
      <point x="208.0" y="92.0"/>
      <point x="177.0" y="138.0"/>
      <point x="116.0" y="137.0" type="curve" smooth="yes"/>
      <point x="72.0" y="137.0"/>
      <point x="44.0" y="102.0"/>
      <point x="44.0" y="62.0" type="curve" smooth="yes"/>
      <point x="44.0" y="16.0"/>
      <point x="77.0" y="-4.0"/>
      <point x="113.0" y="-4.0" type="curve" smooth="yes"/>
      <point x="120.0" y="-4.0"/>
      <point x="125.0" y="-4.0"/>
      <point x="134.0" y="-1.0" type="curve"/>
      <point x="136.0" y="-59.0"/>
      <point x="98.0" y="-132.0"/>
      <point x="77.0" y="-159.0" type="curve"/>
    </contour>
  </outline>
</glyph>
<glyph name="hyphen" format="2">
  <advance width="471"/>
  <unicode hex="002D"/>
  <outline>
    <contour>
      <point x="51" y="260" type="line"/>
      <point x="419" y="263" type="line"/>
      <point x="419" y="368" type="line"/>
      <point x="51" y="368" type="line"/>
    </contour>
  </outline>
</glyph>
<glyph name="slash" format="2">
  <advance width="699.0"/>
  <unicode hex="002F"/>
  <outline>
    <contour>
      <point x="103.0" y="-271.0" type="line"/>
      <point x="674.0" y="697.0" type="line"/>
      <point x="583.0" y="755.0" type="line"/>
      <point x="25.0" y="-220.0" type="line"/>
    </contour>
  </outline>
</glyph>
<glyph name="two" format="2">
  <advance width="533.0"/>
  <unicode hex="0032"/>
  <outline>
    <contour>
      <point x="39.0" y="0.0" type="curve"/>
      <point x="477.0" y="0.0" type="line"/>
      <point x="485.0" y="163.0" type="line"/>
      <point x="421.0" y="163.0" type="line"/>
      <point x="421.0" y="107.0"/>
      <point x="391.0" y="96.0"/>
      <point x="346.0" y="98.0" type="curve" smooth="yes"/>
      <point x="150.0" y="103.0" type="line"/>
      <point x="156.0" y="129.0"/>
      <point x="188.0" y="182.0"/>
      <point x="262.0" y="242.0" type="curve" smooth="yes"/>
      <point x="443.0" y="390.0"/>
      <point x="482.0" y="459.0"/>
      <point x="482.0" y="527.0" type="curve" smooth="yes"/>
      <point x="482.0" y="667.0"/>
      <point x="365.0" y="716.0"/>
      <point x="258.0" y="716.0" type="curve" smooth="yes"/>
      <point x="117.0" y="716.0"/>
      <point x="40.0" y="620.0"/>
      <point x="40.0" y="560.0" type="curve" smooth="yes"/>
      <point x="40.0" y="521.0"/>
      <point x="63.0" y="489.0"/>
      <point x="104.0" y="487.0" type="curve" smooth="yes"/>
      <point x="153.0" y="486.0"/>
      <point x="172.0" y="528.0"/>
      <point x="172.0" y="551.0" type="curve" smooth="yes"/>
      <point x="172.0" y="565.0"/>
      <point x="167.0" y="588.0"/>
      <point x="152.0" y="603.0" type="curve"/>
      <point x="167.0" y="625.0"/>
      <point x="197.0" y="645.0"/>
      <point x="233.0" y="645.0" type="curve" smooth="yes"/>
      <point x="309.0" y="646.0"/>
      <point x="329.0" y="578.0"/>
      <point x="329.0" y="515.0" type="curve" smooth="yes"/>
      <point x="329.0" y="443.0"/>
      <point x="292.0" y="373.0"/>
      <point x="195.0" y="283.0" type="curve" smooth="yes"/>
      <point x="118.0" y="212.0"/>
      <point x="39.0" y="139.0"/>
    </contour>
  </outline>
</glyph>
<glyph name="three" format="2">
  <advance width="560.0"/>
  <unicode hex="0033"/>
  <outline>
    <contour>
      <point x="252.0" y="-16.0" type="curve" smooth="yes"/>
      <point x="408.0" y="-16.0"/>
      <point x="520.0" y="59.0"/>
      <point x="520.0" y="196.0" type="curve" smooth="yes"/>
      <point x="520.0" y="281.0"/>
      <point x="461.0" y="358.0"/>
      <point x="333.0" y="381.0" type="curve"/>
      <point x="443.0" y="406.0"/>
      <point x="483.0" y="486.0"/>
      <point x="483.0" y="539.0" type="curve" smooth="yes"/>
      <point x="483.0" y="669.0"/>
      <point x="385.0" y="716.0"/>
      <point x="261.0" y="716.0" type="curve" smooth="yes"/>
      <point x="120.0" y="716.0"/>
      <point x="51.0" y="623.0"/>
      <point x="51.0" y="563.0" type="curve" smooth="yes"/>
      <point x="51.0" y="524.0"/>
      <point x="73.0" y="492.0"/>
      <point x="114.0" y="491.0" type="curve" smooth="yes"/>
      <point x="164.0" y="489.0"/>
      <point x="182.0" y="531.0"/>
      <point x="182.0" y="555.0" type="curve" smooth="yes"/>
      <point x="182.0" y="567.0"/>
      <point x="178.0" y="589.0"/>
      <point x="166.0" y="604.0" type="curve"/>
      <point x="177.0" y="625.0"/>
      <point x="209.0" y="646.0"/>
      <point x="245.0" y="646.0" type="curve" smooth="yes"/>
      <point x="313.0" y="646.0"/>
      <point x="339.0" y="597.0"/>
      <point x="338.0" y="528.0" type="curve" smooth="yes"/>
      <point x="336.0" y="454.0"/>
      <point x="286.0" y="403.0"/>
      <point x="198.0" y="403.0" type="curve" smooth="yes"/>
      <point x="188.0" y="403.0"/>
      <point x="180.0" y="403.0"/>
      <point x="169.0" y="404.0" type="curve"/>
      <point x="169.0" y="332.0" type="line"/>
      <point x="181.0" y="333.0"/>
      <point x="211.0" y="335.0"/>
      <point x="221.0" y="335.0" type="curve" smooth="yes"/>
      <point x="336.0" y="337.0"/>
      <point x="369.0" y="257.0"/>
      <point x="369.0" y="189.0" type="curve" smooth="yes"/>
      <point x="369.0" y="114.0"/>
      <point x="326.0" y="57.0"/>
      <point x="242.0" y="57.0" type="curve" smooth="yes"/>
      <point x="205.0" y="57.0"/>
      <point x="166.0" y="72.0"/>
      <point x="152.0" y="97.0" type="curve"/>
      <point x="163.0" y="111.0"/>
      <point x="168.0" y="130.0"/>
      <point x="168.0" y="143.0" type="curve" smooth="yes"/>
      <point x="168.0" y="169.0"/>
      <point x="153.0" y="208.0"/>
      <point x="103.0" y="207.0" type="curve" smooth="yes"/>
      <point x="62.0" y="206.0"/>
      <point x="35.0" y="171.0"/>
      <point x="35.0" y="131.0" type="curve" smooth="yes"/>
      <point x="35.0" y="62.0"/>
      <point x="101.0" y="-16.0"/>
    </contour>
  </outline>
</glyph>
<glyph name="four" format="2">
  <advance width="547.0"/>
  <unicode hex="0034"/>
  <outline>
    <contour>
      <point x="416.0" y="164.0" type="curve" smooth="yes"/>
      <point x="416.0" y="181.0" type="line"/>
      <point x="514.0" y="181.0" type="line"/>
      <point x="514.0" y="271.0" type="line"/>
      <point x="416.0" y="271.0" type="line"/>
      <point x="416.0" y="716.0" type="line"/>
      <point x="355.0" y="716.0" type="line"/>
      <point x="12.0" y="275.0" type="line"/>
      <point x="12.0" y="181.0" type="line"/>
      <point x="283.0" y="181.0" type="line"/>
      <point x="283.0" y="153.0" type="line" smooth="yes"/>
      <point x="283.0" y="72.0"/>
      <point x="253.0" y="66.0"/>
      <point x="208.0" y="66.0" type="curve" smooth="yes"/>
      <point x="202.0" y="66.0" type="line"/>
      <point x="202.0" y="0.0" type="line"/>
      <point x="487.0" y="0.0" type="line"/>
      <point x="487.0" y="77.0" type="line"/>
      <point x="473.0" y="77.0"/>
      <point x="434.0" y="76.0"/>
      <point x="412.0" y="74.0" type="curve"/>
      <point x="415.0" y="91.0"/>
      <point x="416.0" y="128.0"/>
    </contour>
    <contour>
      <point x="282.0" y="506.0" type="line"/>
      <point x="284.0" y="506.0" type="line"/>
      <point x="283.0" y="273.0" type="line"/>
      <point x="105.0" y="274.0" type="line"/>
    </contour>
  </outline>
</glyph>
<glyph name="five" format="2">
  <advance width="540.0"/>
  <unicode hex="0035"/>
  <outline>
    <contour>
      <point x="250.0" y="-16.0" type="curve" smooth="yes"/>
      <point x="380.0" y="-16.0"/>
      <point x="508.0" y="63.0"/>
      <point x="508.0" y="218.0" type="curve" smooth="yes"/>
      <point x="508.0" y="337.0"/>
      <point x="431.0" y="443.0"/>
      <point x="265.0" y="443.0" type="curve" smooth="yes"/>
      <point x="225.0" y="443.0"/>
      <point x="174.0" y="432.0"/>
      <point x="144.0" y="419.0" type="curve"/>
      <point x="144.0" y="597.0" type="line"/>
      <point x="458.0" y="603.0" type="line"/>
      <point x="465.0" y="765.0" type="line"/>
      <point x="402.0" y="765.0" type="line"/>
      <point x="402.0" y="709.0"/>
      <point x="372.0" y="700.0"/>
      <point x="326.0" y="700.0" type="curve" smooth="yes"/>
      <point x="67.0" y="700.0" type="line"/>
      <point x="71.0" y="366.0" type="line"/>
      <point x="114.0" y="333.0" type="line"/>
      <point x="160.0" y="361.0"/>
      <point x="206.0" y="370.0"/>
      <point x="234.0" y="370.0" type="curve" smooth="yes"/>
      <point x="346.0" y="370.0"/>
      <point x="354.0" y="257.0"/>
      <point x="354.0" y="197.0" type="curve" smooth="yes"/>
      <point x="354.0" y="128.0"/>
      <point x="323.0" y="55.0"/>
      <point x="243.0" y="55.0" type="curve" smooth="yes"/>
      <point x="215.0" y="55.0"/>
      <point x="174.0" y="69.0"/>
      <point x="165.0" y="92.0" type="curve"/>
      <point x="173.0" y="105.0"/>
      <point x="176.0" y="122.0"/>
      <point x="176.0" y="133.0" type="curve" smooth="yes"/>
      <point x="176.0" y="160.0"/>
      <point x="161.0" y="199.0"/>
      <point x="111.0" y="197.0" type="curve" smooth="yes"/>
      <point x="70.0" y="196.0"/>
      <point x="44.0" y="160.0"/>
      <point x="44.0" y="121.0" type="curve" smooth="yes"/>
      <point x="44.0" y="57.0"/>
      <point x="120.0" y="-16.0"/>
    </contour>
  </outline>
</glyph>
<glyph name="seven" format="2">
  <advance width="469.0"/>
  <unicode hex="0037"/>
  <outline>
    <contour>
      <point x="200.0" y="-16.0" type="curve" smooth="yes"/>
      <point x="239.0" y="-17.0"/>
      <point x="262.0" y="23.0"/>
      <point x="271.0" y="60.0" type="curve" smooth="yes"/>
      <point x="324.0" y="272.0"/>
      <point x="358.0" y="425.0"/>
      <point x="448.0" y="609.0" type="curve"/>
      <point x="448.0" y="700.0" type="line"/>
      <point x="22.0" y="700.0" type="line"/>
      <point x="15.0" y="530.0" type="line"/>
      <point x="78.0" y="530.0" type="line"/>
      <point x="78.0" y="585.0"/>
      <point x="108.0" y="602.0"/>
      <point x="154.0" y="601.0" type="curve" smooth="yes"/>
      <point x="364.0" y="599.0" type="line"/>
      <point x="291.0" y="429.0"/>
      <point x="242.0" y="315.0"/>
      <point x="209.0" y="236.0" type="curve" smooth="yes"/>
      <point x="177.0" y="161.0"/>
      <point x="144.0" y="81.0"/>
      <point x="144.0" y="42.0" type="curve" smooth="yes"/>
      <point x="144.0" y="13.0"/>
      <point x="159.0" y="-16.0"/>
    </contour>
  </outline>
</glyph>
<glyph name="equal" format="2">
  <advance width="530.0"/>
  <unicode hex="003D"/>
  <outline>
    <contour>
      <point x="42.0" y="493.0" type="line"/>
      <point x="42.0" y="415.0" type="line"/>
      <point x="488.0" y="415.0" type="line"/>
      <point x="488.0" y="493.0" type="line"/>
    </contour>
    <contour>
      <point x="42.0" y="315.0" type="line"/>
      <point x="42.0" y="237.0" type="line"/>
      <point x="488.0" y="237.0" type="line"/>
      <point x="488.0" y="315.0" type="line"/>
    </contour>
  </outline>
</glyph>
<glyph name="B" format="2">
  <advance width="661.0"/>
  <unicode hex="0042"/>
  <outline>
    <contour>
      <point x="50.0" y="0.0" type="line"/>
      <point x="390.0" y="0.0" type="line" smooth="yes"/>
      <point x="530.0" y="0.0"/>
      <point x="633.0" y="69.0"/>
      <point x="633.0" y="199.0" type="curve" smooth="yes"/>
      <point x="633.0" y="282.0"/>
      <point x="572.0" y="357.0"/>
      <point x="439.0" y="378.0" type="curve"/>
      <point x="439.0" y="379.0" type="line"/>
      <point x="533.0" y="404.0"/>
      <point x="579.0" y="462.0"/>
      <point x="583.0" y="520.0" type="curve" smooth="yes"/>
      <point x="589.0" y="642.0"/>
      <point x="487.0" y="703.0"/>
      <point x="327.0" y="702.0" type="curve" smooth="yes"/>
      <point x="235.0" y="701.0"/>
      <point x="142.0" y="701.0"/>
      <point x="50.0" y="700.0" type="curve"/>
      <point x="50.0" y="623.0" type="line"/>
      <point x="64.0" y="624.0"/>
      <point x="104.0" y="625.0"/>
      <point x="125.0" y="626.0" type="curve"/>
      <point x="123.0" y="609.0"/>
      <point x="121.0" y="572.0"/>
      <point x="121.0" y="536.0" type="curve" smooth="yes"/>
      <point x="121.0" y="153.0" type="line" smooth="yes"/>
      <point x="121.0" y="72.0"/>
      <point x="95.0" y="68.0"/>
      <point x="50.0" y="66.0" type="curve"/>
    </contour>
    <contour>
      <point x="262.0" y="71.0" type="curve"/>
      <point x="264.0" y="88.0"/>
      <point x="266.0" y="123.0"/>
      <point x="266.0" y="159.0" type="curve" smooth="yes"/>
      <point x="266.0" y="322.0" type="line"/>
      <point x="292.0" y="323.0"/>
      <point x="313.0" y="323.0"/>
      <point x="347.0" y="323.0" type="curve" smooth="yes"/>
      <point x="411.0" y="323.0"/>
      <point x="476.0" y="294.0"/>
      <point x="476.0" y="202.0" type="curve" smooth="yes"/>
      <point x="476.0" y="128.0"/>
      <point x="440.0" y="76.0"/>
      <point x="359.0" y="72.0" type="curve" smooth="yes"/>
      <point x="328.0" y="71.0"/>
      <point x="297.0" y="71.0"/>
    </contour>
    <contour>
      <point x="266.0" y="393.0" type="line"/>
      <point x="266.0" y="548.0" type="line" smooth="yes"/>
      <point x="266.0" y="625.0"/>
      <point x="292.0" y="631.0"/>
      <point x="324.0" y="632.0" type="curve" smooth="yes"/>
      <point x="375.0" y="633.0"/>
      <point x="430.0" y="607.0"/>
      <point x="430.0" y="528.0" type="curve" smooth="yes"/>
      <point x="430.0" y="455.0"/>
      <point x="402.0" y="396.0"/>
      <point x="318.0" y="394.0" type="curve" smooth="yes"/>
    </contour>
  </outline>
</glyph>
<glyph name="J" format="2">
  <advance width="451.0"/>
  <unicode hex="004A"/>
  <anchor x="256.0" y="700.0" name="top"/>
  <outline>
    <contour>
      <point x="144.0" y="-16.0" type="curve" smooth="yes"/>
      <point x="279.0" y="-16.0"/>
      <point x="353.0" y="62.0"/>
      <point x="353.0" y="254.0" type="curve" smooth="yes"/>
      <point x="353.0" y="547.0" type="line" smooth="yes"/>
      <point x="353.0" y="628.0"/>
      <point x="379.0" y="632.0"/>
      <point x="424.0" y="634.0" type="curve"/>
      <point x="424.0" y="700.0" type="line"/>
      <point x="137.0" y="700.0" type="line"/>
      <point x="137.0" y="623.0" type="line"/>
      <point x="151.0" y="624.0"/>
      <point x="190.0" y="625.0"/>
      <point x="212.0" y="626.0" type="curve"/>
      <point x="209.0" y="609.0"/>
      <point x="208.0" y="572.0"/>
      <point x="208.0" y="536.0" type="curve" smooth="yes"/>
      <point x="208.0" y="135.0" type="line" smooth="yes"/>
      <point x="208.0" y="79.0"/>
      <point x="192.0" y="56.0"/>
      <point x="164.0" y="56.0" type="curve" smooth="yes"/>
      <point x="157.0" y="56.0"/>
      <point x="139.0" y="59.0"/>
      <point x="133.0" y="72.0" type="curve"/>
      <point x="139.0" y="84.0"/>
      <point x="143.0" y="98.0"/>
      <point x="142.0" y="109.0" type="curve" smooth="yes"/>
      <point x="141.0" y="143.0"/>
      <point x="120.0" y="177.0"/>
      <point x="70.0" y="174.0" type="curve" smooth="yes"/>
      <point x="25.0" y="172.0"/>
      <point x="1.0" y="133.0"/>
      <point x="1.0" y="91.0" type="curve" smooth="yes"/>
      <point x="1.0" y="29.0"/>
      <point x="65.0" y="-16.0"/>
    </contour>
  </outline>
</glyph>
<glyph name="P" format="2">
  <advance width="639.0"/>
  <unicode hex="0050"/>
  <outline>
    <contour>
      <point x="50.0" y="66.0" type="curve"/>
      <point x="50.0" y="0.0" type="line"/>
      <point x="347.0" y="0.0" type="line"/>
      <point x="347.0" y="77.0" type="line"/>
      <point x="333.0" y="77.0"/>
      <point x="283.0" y="76.0"/>
      <point x="262.0" y="74.0" type="curve"/>
      <point x="264.0" y="91.0"/>
      <point x="266.0" y="128.0"/>
      <point x="266.0" y="165.0" type="curve" smooth="yes"/>
      <point x="266.0" y="253.0" type="line"/>
      <point x="289.0" y="252.0"/>
      <point x="308.0" y="252.0"/>
      <point x="338.0" y="253.0" type="curve" smooth="yes"/>
      <point x="527.0" y="259.0"/>
      <point x="619.0" y="368.0"/>
      <point x="622.0" y="475.0" type="curve" smooth="yes"/>
      <point x="626.0" y="634.0"/>
      <point x="510.0" y="703.0"/>
      <point x="334.0" y="702.0" type="curve" smooth="yes"/>
      <point x="239.0" y="701.0"/>
      <point x="145.0" y="701.0"/>
      <point x="50.0" y="700.0" type="curve"/>
      <point x="50.0" y="623.0" type="line"/>
      <point x="64.0" y="624.0"/>
      <point x="104.0" y="625.0"/>
      <point x="125.0" y="626.0" type="curve"/>
      <point x="123.0" y="609.0"/>
      <point x="121.0" y="572.0"/>
      <point x="121.0" y="536.0" type="curve" smooth="yes"/>
      <point x="121.0" y="153.0" type="line" smooth="yes"/>
      <point x="121.0" y="72.0"/>
      <point x="95.0" y="68.0"/>
    </contour>
    <contour>
      <point x="266.0" y="328.0" type="curve"/>
      <point x="266.0" y="553.0" type="line" smooth="yes"/>
      <point x="266.0" y="623.0"/>
      <point x="291.0" y="632.0"/>
      <point x="333.0" y="632.0" type="curve" smooth="yes"/>
      <point x="383.0" y="632.0"/>
      <point x="467.0" y="618.0"/>
      <point x="467.0" y="484.0" type="curve" smooth="yes"/>
      <point x="467.0" y="382.0"/>
      <point x="421.0" y="325.0"/>
      <point x="311.0" y="325.0" type="curve" smooth="yes"/>
      <point x="295.0" y="325.0"/>
      <point x="280.0" y="326.0"/>
    </contour>
  </outline>
</glyph>
<glyph name="Q" format="2">
  <advance width="770.0"/>
  <unicode hex="0051"/>
  <outline>
    <contour>
      <point x="751.0" y="-218.0" type="curve" smooth="yes"/>
      <point x="794.0" y="-218.0" type="line"/>
      <point x="794.0" y="-151.0" type="line"/>
      <point x="750.0" y="-151.0"/>
      <point x="746.0" y="-137.0"/>
      <point x="653.0" y="-51.0" type="curve" smooth="yes"/>
      <point x="601.0" y="-2.0"/>
      <point x="566.0" y="5.0"/>
      <point x="509.0" y="5.0" type="curve"/>
      <point x="659.0" y="63.0"/>
      <point x="734.0" y="217.0"/>
      <point x="734.0" y="350.0" type="curve" smooth="yes"/>
      <point x="734.0" y="517.0"/>
      <point x="630.0" y="716.0"/>
      <point x="387.0" y="716.0" type="curve" smooth="yes"/>
      <point x="150.0" y="716.0"/>
      <point x="36.0" y="518.0"/>
      <point x="36.0" y="350.0" type="curve" smooth="yes"/>
      <point x="36.0" y="178.0"/>
      <point x="128.0" y="-16.0"/>
      <point x="374.0" y="-16.0" type="curve" smooth="yes"/>
      <point x="457.0" y="-16.0"/>
      <point x="494.0" y="-89.0"/>
      <point x="579.0" y="-164.0" type="curve" smooth="yes"/>
      <point x="635.0" y="-213.0"/>
      <point x="659.0" y="-218.0"/>
    </contour>
    <contour>
      <point x="394.0" y="57.0" type="curve" smooth="yes"/>
      <point x="243.0" y="56.0"/>
      <point x="193.0" y="237.0"/>
      <point x="193.0" y="362.0" type="curve" smooth="yes"/>
      <point x="193.0" y="485.0"/>
      <point x="236.0" y="640.0"/>
      <point x="374.0" y="643.0" type="curve" smooth="yes"/>
      <point x="513.0" y="646.0"/>
      <point x="577.0" y="516.0"/>
      <point x="577.0" y="333.0" type="curve" smooth="yes"/>
      <point x="577.0" y="210.0"/>
      <point x="532.0" y="58.0"/>
    </contour>
  </outline>
</glyph>
<glyph name="S" format="2">
  <advance width="598.0"/>
  <unicode hex="0053"/>
  <anchor x="313.0" y="0.0" name="bottom"/>
  <anchor x="299.0" y="700.0" name="top"/>
  <outline>
    <contour>
      <point x="454.0" y="476.0" type="curve"/>
      <point x="520.0" y="476.0" type="line"/>
      <point x="520.0" y="709.0" type="line"/>
      <point x="442.0" y="709.0" type="line"/>
      <point x="446.0" y="668.0" type="line"/>
      <point x="401.0" y="700.0"/>
      <point x="330.0" y="716.0"/>
      <point x="277.0" y="716.0" type="curve" smooth="yes"/>
      <point x="100.0" y="716.0"/>
      <point x="43.0" y="608.0"/>
      <point x="43.0" y="525.0" type="curve" smooth="yes"/>
      <point x="43.0" y="394.0"/>
      <point x="141.0" y="330.0"/>
      <point x="270.0" y="278.0" type="curve" smooth="yes"/>
      <point x="345.0" y="248.0"/>
      <point x="430.0" y="220.0"/>
      <point x="430.0" y="150.0" type="curve" smooth="yes"/>
      <point x="430.0" y="99.0"/>
      <point x="381.0" y="56.0"/>
      <point x="310.0" y="56.0" type="curve" smooth="yes"/>
      <point x="216.0" y="56.0"/>
      <point x="143.0" y="113.0"/>
      <point x="125.0" y="225.0" type="curve"/>
      <point x="59.0" y="225.0" type="line"/>
      <point x="59.0" y="-9.0" type="line"/>
      <point x="136.0" y="-9.0" type="line"/>
      <point x="133.0" y="33.0" type="line"/>
      <point x="187.0" y="1.0"/>
      <point x="254.0" y="-16.0"/>
      <point x="307.0" y="-16.0" type="curve" smooth="yes"/>
      <point x="461.0" y="-16.0"/>
      <point x="563.0" y="67.0"/>
      <point x="563.0" y="186.0" type="curve" smooth="yes"/>
      <point x="563.0" y="316.0"/>
      <point x="436.0" y="378.0"/>
      <point x="335.0" y="418.0" type="curve" smooth="yes"/>
      <point x="225.0" y="463.0"/>
      <point x="173.0" y="496.0"/>
      <point x="173.0" y="558.0" type="curve" smooth="yes"/>
      <point x="173.0" y="608.0"/>
      <point x="224.0" y="644.0"/>
      <point x="281.0" y="644.0" type="curve" smooth="yes"/>
      <point x="374.0" y="645.0"/>
      <point x="436.0" y="587.0"/>
    </contour>
  </outline>
</glyph>
<glyph name="V" format="2">
  <advance width="708.0"/>
  <unicode hex="0056"/>
  <outline>
    <contour>
      <point x="320.0" y="-6.0" type="line"/>
      <point x="402.0" y="-6.0" type="line"/>
      <point x="469.0" y="172.0"/>
      <point x="535.0" y="349.0"/>
      <point x="602.0" y="527.0" type="curve" smooth="yes"/>
      <point x="631.0" y="604.0"/>
      <point x="663.0" y="632.0"/>
      <point x="708.0" y="634.0" type="curve"/>
      <point x="708.0" y="700.0" type="line"/>
      <point x="483.0" y="700.0" type="line"/>
      <point x="483.0" y="623.0" type="line"/>
      <point x="497.0" y="624.0"/>
      <point x="538.0" y="625.0"/>
      <point x="560.0" y="626.0" type="curve"/>
      <point x="542.0" y="605.0"/>
      <point x="526.0" y="557.0"/>
      <point x="519.0" y="535.0" type="curve" smooth="yes"/>
      <point x="494.0" y="465.0"/>
      <point x="468.0" y="396.0"/>
      <point x="443.0" y="326.0" type="curve" smooth="yes"/>
      <point x="427.0" y="280.0"/>
      <point x="409.0" y="228.0"/>
      <point x="395.0" y="188.0" type="curve"/>
      <point x="394.0" y="188.0" type="line"/>
      <point x="373.0" y="239.0"/>
      <point x="360.0" y="275.0"/>
      <point x="337.0" y="331.0" type="curve" smooth="yes"/>
      <point x="306.0" y="406.0"/>
      <point x="276.0" y="482.0"/>
      <point x="245.0" y="557.0" type="curve" smooth="yes"/>
      <point x="221.0" y="616.0"/>
      <point x="253.0" y="635.0"/>
      <point x="303.0" y="634.0" type="curve"/>
      <point x="303.0" y="700.0" type="line"/>
      <point x="8.0" y="700.0" type="line"/>
      <point x="8.0" y="623.0" type="line"/>
      <point x="22.0" y="624.0"/>
      <point x="40.0" y="625.0"/>
      <point x="62.0" y="626.0" type="curve"/>
      <point x="62.0" y="604.0"/>
      <point x="76.0" y="564.0"/>
      <point x="90.0" y="531.0" type="curve" smooth="yes"/>
    </contour>
  </outline>
</glyph>
<glyph name="W" format="2">
  <advance width="1016.0"/>
  <unicode hex="0057"/>
  <anchor x="529.0" y="700.0" name="top"/>
  <outline>
    <contour>
      <point x="273.0" y="-6.0" type="line"/>
      <point x="360.0" y="-6.0" type="line"/>
      <point x="474.0" y="369.0" type="line" smooth="yes"/>
      <point x="487.0" y="414.0"/>
      <point x="496.0" y="454.0"/>
      <point x="503.0" y="500.0" type="curve"/>
      <point x="514.0" y="454.0"/>
      <point x="523.0" y="404.0"/>
      <point x="541.0" y="352.0" type="curve" smooth="yes"/>
      <point x="659.0" y="-6.0" type="line"/>
      <point x="748.0" y="-6.0" type="line"/>
      <point x="802.0" y="172.0"/>
      <point x="857.0" y="349.0"/>
      <point x="911.0" y="527.0" type="curve" smooth="yes"/>
      <point x="937.0" y="605.0"/>
      <point x="972.0" y="632.0"/>
      <point x="1017.0" y="634.0" type="curve"/>
      <point x="1017.0" y="700.0" type="line"/>
      <point x="792.0" y="700.0" type="line"/>
      <point x="792.0" y="623.0" type="line"/>
      <point x="806.0" y="624.0"/>
      <point x="847.0" y="625.0"/>
      <point x="869.0" y="626.0" type="curve"/>
      <point x="849.0" y="604.0"/>
      <point x="836.0" y="567.0"/>
      <point x="828.0" y="535.0" type="curve" smooth="yes"/>
      <point x="809.0" y="465.0"/>
      <point x="791.0" y="396.0"/>
      <point x="772.0" y="326.0" type="curve" smooth="yes"/>
      <point x="759.0" y="277.0"/>
      <point x="746.0" y="231.0"/>
      <point x="734.0" y="188.0" type="curve"/>
      <point x="733.0" y="188.0" type="line"/>
      <point x="722.0" y="237.0"/>
      <point x="711.0" y="286.0"/>
      <point x="697.0" y="332.0" type="curve" smooth="yes"/>
      <point x="659.0" y="455.0"/>
      <point x="621.0" y="577.0"/>
      <point x="583.0" y="700.0" type="curve"/>
      <point x="493.0" y="700.0" type="line"/>
      <point x="462.0" y="598.0"/>
      <point x="431.0" y="496.0"/>
      <point x="400.0" y="394.0" type="curve" smooth="yes"/>
      <point x="392.0" y="365.0"/>
      <point x="353.0" y="226.0"/>
      <point x="343.0" y="189.0" type="curve"/>
      <point x="342.0" y="189.0" type="line"/>
      <point x="330.0" y="253.0"/>
      <point x="321.0" y="285.0"/>
      <point x="309.0" y="331.0" type="curve" smooth="yes"/>
      <point x="289.0" y="407.0"/>
      <point x="269.0" y="483.0"/>
      <point x="249.0" y="559.0" type="curve" smooth="yes"/>
      <point x="231.0" y="620.0"/>
      <point x="258.0" y="635.0"/>
      <point x="308.0" y="634.0" type="curve"/>
      <point x="308.0" y="700.0" type="line"/>
      <point x="13.0" y="700.0" type="line"/>
      <point x="13.0" y="623.0" type="line"/>
      <point x="30.0" y="624.0"/>
      <point x="49.0" y="625.0"/>
      <point x="74.0" y="626.0" type="curve"/>
      <point x="74.0" y="604.0"/>
      <point x="82.0" y="571.0"/>
      <point x="95.0" y="533.0" type="curve" smooth="yes"/>
    </contour>
  </outline>
</glyph>
<glyph name="asciicircum" format="2">
  <advance width="823.0"/>
  <unicode hex="005E"/>
  <outline>
    <contour>
      <point x="626.0" y="437.0" type="line"/>
      <point x="763.0" y="437.0" type="line"/>
      <point x="457.0" y="716.0" type="line"/>
      <point x="368.0" y="716.0" type="line"/>
      <point x="60.0" y="441.0" type="line"/>
      <point x="191.0" y="441.0" type="line"/>
      <point x="408.0" y="643.0" type="line"/>
    </contour>
  </outline>
</glyph>
<glyph name="grave" format="2">
  <advance width="282.0"/>
  <unicode hex="0060"/>
  <anchor x="141.0" y="500.0" name="_top"/>
  <outline>
    <contour>
      <point x="192.0" y="565.0" type="line"/>
      <point x="238.0" y="606.0" type="line"/>
      <point x="156.0" y="746.0" type="line" smooth="yes"/>
      <point x="135.0" y="779.0"/>
      <point x="94.0" y="795.0"/>
      <point x="63.0" y="770.0" type="curve" smooth="yes"/>
      <point x="31.0" y="741.0"/>
      <point x="44.0" y="696.0"/>
      <point x="71.0" y="671.0" type="curve" smooth="yes"/>
    </contour>
  </outline>
</glyph>
<glyph name="a" format="2">
  <advance width="524.0"/>
  <unicode hex="0061"/>
  <anchor x="262.0" y="0.0" name="bottom"/>
  <anchor x="472.0" y="5.0" name="ogonek"/>
  <anchor x="252.0" y="500.0" name="top"/>
  <outline>
    <contour>
      <point x="319.0" y="0.0" type="curve"/>
      <point x="508.0" y="0.0" type="line"/>
      <point x="508.0" y="76.0" type="line"/>
      <point x="494.0" y="76.0"/>
      <point x="465.0" y="75.0"/>
      <point x="443.0" y="73.0" type="curve"/>
      <point x="446.0" y="103.0"/>
      <point x="447.0" y="142.0"/>
      <point x="447.0" y="161.0" type="curve" smooth="yes"/>
      <point x="447.0" y="229.0"/>
      <point x="448.0" y="257.0"/>
      <point x="448.0" y="325.0" type="curve" smooth="yes"/>
      <point x="448.0" y="458.0"/>
      <point x="380.0" y="516.0"/>
      <point x="263.0" y="516.0" type="curve" smooth="yes"/>
      <point x="146.0" y="516.0"/>
      <point x="52.0" y="463.0"/>
      <point x="52.0" y="384.0" type="curve" smooth="yes"/>
      <point x="52.0" y="348.0"/>
      <point x="74.0" y="317.0"/>
      <point x="114.0" y="316.0" type="curve" smooth="yes"/>
      <point x="161.0" y="315.0"/>
      <point x="181.0" y="351.0"/>
      <point x="181.0" y="378.0" type="curve" smooth="yes"/>
      <point x="181.0" y="388.0"/>
      <point x="179.0" y="404.0"/>
      <point x="169.0" y="416.0" type="curve"/>
      <point x="186.0" y="433.0"/>
      <point x="211.0" y="443.0"/>
      <point x="237.0" y="444.0" type="curve" smooth="yes"/>
      <point x="292.0" y="446.0"/>
      <point x="309.0" y="405.0"/>
      <point x="309.0" y="353.0" type="curve" smooth="yes"/>
      <point x="309.0" y="301.0" type="line"/>
      <point x="175.0" y="295.0"/>
      <point x="30.0" y="244.0"/>
      <point x="30.0" y="117.0" type="curve" smooth="yes"/>
      <point x="30.0" y="41.0"/>
      <point x="80.0" y="-16.0"/>
      <point x="166.0" y="-16.0" type="curve" smooth="yes"/>
      <point x="218.0" y="-16.0"/>
      <point x="269.0" y="0.0"/>
      <point x="315.0" y="46.0" type="curve"/>
      <point x="316.0" y="29.0"/>
      <point x="316.0" y="19.0"/>
    </contour>
    <contour>
      <point x="308.0" y="230.0" type="curve"/>
      <point x="308.0" y="206.0"/>
      <point x="308.0" y="181.0"/>
      <point x="308.0" y="157.0" type="curve"/>
      <point x="308.0" y="144.0"/>
      <point x="308.0" y="131.0"/>
      <point x="308.0" y="118.0" type="curve"/>
      <point x="287.0" y="96.0"/>
      <point x="259.0" y="82.0"/>
      <point x="229.0" y="82.0" type="curve" smooth="yes"/>
      <point x="200.0" y="82.0"/>
      <point x="173.0" y="97.0"/>
      <point x="172.0" y="134.0" type="curve" smooth="yes"/>
      <point x="171.0" y="191.0"/>
      <point x="233.0" y="223.0"/>
    </contour>
  </outline>
</glyph>
<glyph name="b" format="2">
  <advance width="573.0"/>
  <unicode hex="0062"/>
  <outline>
    <contour>
      <point x="63.0" y="565.0" type="curve" smooth="yes"/>
      <point x="63.0" y="0.0" type="line"/>
      <point x="123.0" y="0.0" type="line"/>
      <point x="153.0" y="44.0" type="line"/>
      <point x="200.0" y="-6.0"/>
      <point x="262.0" y="-16.0"/>
      <point x="298.0" y="-16.0" type="curve" smooth="yes"/>
      <point x="449.0" y="-16.0"/>
      <point x="541.0" y="102.0"/>
      <point x="541.0" y="263.0" type="curve" smooth="yes"/>
      <point x="541.0" y="417.0"/>
      <point x="459.0" y="516.0"/>
      <point x="339.0" y="516.0" type="curve" smooth="yes"/>
      <point x="297.0" y="516.0"/>
      <point x="249.0" y="502.0"/>
      <point x="204.0" y="462.0" type="curve"/>
      <point x="204.0" y="755.0" type="line"/>
      <point x="150.0" y="755.0" type="line"/>
      <point x="136.0" y="742.0"/>
      <point x="89.0" y="725.0"/>
      <point x="-4.0" y="725.0" type="curve"/>
      <point x="-4.0" y="649.0" type="line"/>
      <point x="10.0" y="650.0"/>
      <point x="45.0" y="651.0"/>
      <point x="66.0" y="652.0" type="curve"/>
      <point x="63.0" y="623.0"/>
      <point x="63.0" y="589.0"/>
    </contour>
    <contour>
      <point x="204.0" y="150.0" type="curve" smooth="yes"/>
      <point x="204.0" y="383.0" type="line"/>
      <point x="222.0" y="408.0"/>
      <point x="252.0" y="425.0"/>
      <point x="285.0" y="426.0" type="curve" smooth="yes"/>
      <point x="362.0" y="428.0"/>
      <point x="394.0" y="339.0"/>
      <point x="394.0" y="248.0" type="curve" smooth="yes"/>
      <point x="394.0" y="149.0"/>
      <point x="367.0" y="54.0"/>
      <point x="277.0" y="57.0" type="curve" smooth="yes"/>
      <point x="242.0" y="58.0"/>
      <point x="204.0" y="82.0"/>
    </contour>
  </outline>
</glyph>
<glyph name="c" format="2">
  <advance width="518.0"/>
  <unicode hex="0063"/>
  <anchor x="313.0" y="0.0" name="bottom"/>
  <anchor x="300.0" y="500.0" name="top"/>
  <outline>
    <contour>
      <point x="277.0" y="-16.0" type="curve" smooth="yes"/>
      <point x="350.0" y="-16.0"/>
      <point x="432.0" y="5.0"/>
      <point x="505.0" y="105.0" type="curve"/>
      <point x="459.0" y="150.0" type="line"/>
      <point x="422.0" y="102.0"/>
      <point x="365.0" y="71.0"/>
      <point x="309.0" y="73.0" type="curve" smooth="yes"/>
      <point x="211.0" y="77.0"/>
      <point x="177.0" y="168.0"/>
      <point x="177.0" y="268.0" type="curve" smooth="yes"/>
      <point x="177.0" y="381.0"/>
      <point x="223.0" y="442.0"/>
      <point x="287.0" y="446.0" type="curve" smooth="yes"/>
      <point x="305.0" y="447.0"/>
      <point x="345.0" y="442.0"/>
      <point x="360.0" y="413.0" type="curve"/>
      <point x="352.0" y="399.0"/>
      <point x="348.0" y="381.0"/>
      <point x="348.0" y="369.0" type="curve" smooth="yes"/>
      <point x="348.0" y="341.0"/>
      <point x="365.0" y="303.0"/>
      <point x="416.0" y="304.0" type="curve" smooth="yes"/>
      <point x="459.0" y="305.0"/>
      <point x="483.0" y="340.0"/>
      <point x="483.0" y="379.0" type="curve" smooth="yes"/>
      <point x="483.0" y="449.0"/>
      <point x="418.0" y="516.0"/>
      <point x="291.0" y="516.0" type="curve" smooth="yes"/>
      <point x="137.0" y="516.0"/>
      <point x="31.0" y="390.0"/>
      <point x="31.0" y="239.0" type="curve" smooth="yes"/>
      <point x="31.0" y="77.0"/>
      <point x="142.0" y="-16.0"/>
    </contour>
  </outline>
</glyph>
<glyph name="h" format="2">
  <advance width="621.0"/>
  <unicode hex="0068"/>
  <anchor x="311.0" y="250.0" name="center"/>
  <anchor x="170.0" y="704.0" name="top"/>
  <outline>
    <contour>
      <point x="339.0" y="65.0" type="curve"/>
      <point x="339.0" y="0.0" type="line"/>
      <point x="602.0" y="0.0" type="line"/>
      <point x="602.0" y="76.0" type="line"/>
      <point x="587.0" y="76.0"/>
      <point x="558.0" y="75.0"/>
      <point x="537.0" y="73.0" type="curve"/>
      <point x="540.0" y="103.0"/>
      <point x="541.0" y="142.0"/>
      <point x="541.0" y="161.0" type="curve" smooth="yes"/>
      <point x="541.0" y="295.0" type="line" smooth="yes"/>
      <point x="540.0" y="449.0"/>
      <point x="494.0" y="516.0"/>
      <point x="372.0" y="516.0" type="curve" smooth="yes"/>
      <point x="331.0" y="516.0"/>
      <point x="265.0" y="491.0"/>
      <point x="226.0" y="460.0" type="curve"/>
      <point x="226.0" y="755.0" type="line"/>
      <point x="172.0" y="755.0" type="line"/>
      <point x="158.0" y="742.0"/>
      <point x="111.0" y="725.0"/>
      <point x="18.0" y="725.0" type="curve"/>
      <point x="18.0" y="649.0" type="line"/>
      <point x="32.0" y="650.0"/>
      <point x="67.0" y="651.0"/>
      <point x="88.0" y="652.0" type="curve"/>
      <point x="85.0" y="623.0"/>
      <point x="84.0" y="589.0"/>
      <point x="84.0" y="565.0" type="curve" smooth="yes"/>
      <point x="84.0" y="154.0" type="line" smooth="yes"/>
      <point x="84.0" y="101.0"/>
      <point x="81.0" y="65.0"/>
      <point x="25.0" y="65.0" type="curve"/>
      <point x="25.0" y="0.0" type="line"/>
      <point x="287.0" y="0.0" type="line"/>
      <point x="287.0" y="76.0" type="line"/>
      <point x="273.0" y="76.0"/>
      <point x="244.0" y="75.0"/>
      <point x="222.0" y="73.0" type="curve"/>
      <point x="225.0" y="103.0"/>
      <point x="226.0" y="142.0"/>
      <point x="226.0" y="161.0" type="curve" smooth="yes"/>
      <point x="226.0" y="387.0" type="line"/>
      <point x="248.0" y="407.0"/>
      <point x="284.0" y="424.0"/>
      <point x="317.0" y="424.0" type="curve" smooth="yes"/>
      <point x="373.0" y="424.0"/>
      <point x="398.0" y="383.0"/>
      <point x="398.0" y="296.0" type="curve" smooth="yes"/>
      <point x="399.0" y="154.0" type="line" smooth="yes"/>
      <point x="399.0" y="101.0"/>
      <point x="395.0" y="65.0"/>
    </contour>
  </outline>
</glyph>
<glyph name="m" format="2">
  <advance width="920.0"/>
  <unicode hex="006D"/>
  <outline>
    <contour>
      <point x="41.0" y="0.0" type="line"/>
      <point x="298.0" y="0.0" type="line"/>
      <point x="298.0" y="76.0" type="line"/>
      <point x="284.0" y="76.0"/>
      <point x="259.0" y="75.0"/>
      <point x="238.0" y="73.0" type="curve"/>
      <point x="241.0" y="103.0"/>
      <point x="242.0" y="142.0"/>
      <point x="242.0" y="161.0" type="curve" smooth="yes"/>
      <point x="242.0" y="337.0" type="line"/>
      <point x="242.0" y="354.0"/>
      <point x="242.0" y="370.0"/>
      <point x="242.0" y="387.0" type="curve"/>
      <point x="264.0" y="407.0"/>
      <point x="294.0" y="424.0"/>
      <point x="327.0" y="424.0" type="curve" smooth="yes"/>
      <point x="372.0" y="423.0"/>
      <point x="399.0" y="397.0"/>
      <point x="399.0" y="310.0" type="curve" smooth="yes"/>
      <point x="400.0" y="154.0" type="line" smooth="yes"/>
      <point x="400.0" y="101.0"/>
      <point x="396.0" y="65.0"/>
      <point x="345.0" y="65.0" type="curve"/>
      <point x="345.0" y="0.0" type="line"/>
      <point x="603.0" y="0.0" type="line"/>
      <point x="603.0" y="76.0" type="line"/>
      <point x="588.0" y="76.0"/>
      <point x="559.0" y="75.0"/>
      <point x="538.0" y="73.0" type="curve"/>
      <point x="541.0" y="103.0"/>
      <point x="542.0" y="142.0"/>
      <point x="542.0" y="161.0" type="curve" smooth="yes"/>
      <point x="542.0" y="206.0"/>
      <point x="542.0" y="250.0"/>
      <point x="542.0" y="295.0" type="curve" smooth="yes"/>
      <point x="542.0" y="331.0"/>
      <point x="539.0" y="363.0"/>
      <point x="533.0" y="390.0" type="curve"/>
      <point x="557.0" y="409.0"/>
      <point x="587.0" y="424.0"/>
      <point x="622.0" y="423.0" type="curve" smooth="yes"/>
      <point x="667.0" y="421.0"/>
      <point x="697.0" y="394.0"/>
      <point x="698.0" y="307.0" type="curve" smooth="yes"/>
      <point x="698.0" y="154.0" type="line" smooth="yes"/>
      <point x="698.0" y="101.0"/>
      <point x="694.0" y="65.0"/>
      <point x="648.0" y="65.0" type="curve"/>
      <point x="648.0" y="0.0" type="line"/>
      <point x="901.0" y="0.0" type="line"/>
      <point x="901.0" y="76.0" type="line"/>
      <point x="887.0" y="76.0"/>
      <point x="857.0" y="75.0"/>
      <point x="836.0" y="73.0" type="curve"/>
      <point x="839.0" y="103.0"/>
      <point x="840.0" y="142.0"/>
      <point x="840.0" y="161.0" type="curve" smooth="yes"/>
      <point x="840.0" y="308.0" type="line" smooth="yes"/>
      <point x="840.0" y="461.0"/>
      <point x="784.0" y="516.0"/>
      <point x="676.0" y="516.0" type="curve" smooth="yes"/>
      <point x="623.0" y="516.0"/>
      <point x="561.0" y="490.0"/>
      <point x="513.0" y="450.0" type="curve"/>
      <point x="489.0" y="494.0"/>
      <point x="450.0" y="516.0"/>
      <point x="389.0" y="516.0" type="curve" smooth="yes"/>
      <point x="342.0" y="516.0"/>
      <point x="286.0" y="494.0"/>
      <point x="241.0" y="460.0" type="curve"/>
      <point x="240.0" y="473.0"/>
      <point x="239.0" y="496.0"/>
      <point x="237.0" y="510.0" type="curve"/>
      <point x="188.0" y="510.0" type="line"/>
      <point x="174.0" y="497.0"/>
      <point x="126.0" y="480.0"/>
      <point x="34.0" y="480.0" type="curve"/>
      <point x="34.0" y="404.0" type="line"/>
      <point x="48.0" y="405.0"/>
      <point x="83.0" y="406.0"/>
      <point x="104.0" y="407.0" type="curve"/>
      <point x="101.0" y="377.0"/>
      <point x="100.0" y="346.0"/>
      <point x="100.0" y="322.0" type="curve" smooth="yes"/>
      <point x="100.0" y="154.0" type="line" smooth="yes"/>
      <point x="100.0" y="101.0"/>
      <point x="96.0" y="65.0"/>
      <point x="41.0" y="65.0" type="curve"/>
    </contour>
  </outline>
</glyph>
<glyph name="p" format="2">
  <advance width="601.0"/>
  <unicode hex="0070"/>
  <outline>
    <contour>
      <point x="31.0" y="-255.0" type="line"/>
      <point x="293.0" y="-255.0" type="line"/>
      <point x="293.0" y="-179.0" type="line"/>
      <point x="279.0" y="-179.0"/>
      <point x="250.0" y="-180.0"/>
      <point x="229.0" y="-182.0" type="curve"/>
      <point x="231.0" y="-152.0"/>
      <point x="232.0" y="-113.0"/>
      <point x="232.0" y="-94.0" type="curve" smooth="yes"/>
      <point x="232.0" y="2.0" type="line"/>
      <point x="257.0" y="-7.0"/>
      <point x="285.0" y="-16.0"/>
      <point x="321.0" y="-16.0" type="curve" smooth="yes"/>
      <point x="470.0" y="-16.0"/>
      <point x="569.0" y="102.0"/>
      <point x="569.0" y="263.0" type="curve" smooth="yes"/>
      <point x="569.0" y="417.0"/>
      <point x="487.0" y="516.0"/>
      <point x="367.0" y="516.0" type="curve" smooth="yes"/>
      <point x="326.0" y="516.0"/>
      <point x="279.0" y="502.0"/>
      <point x="232.0" y="462.0" type="curve"/>
      <point x="231.0" y="474.0"/>
      <point x="229.0" y="496.0"/>
      <point x="227.0" y="510.0" type="curve"/>
      <point x="178.0" y="510.0" type="line"/>
      <point x="164.0" y="497.0"/>
      <point x="117.0" y="480.0"/>
      <point x="24.0" y="480.0" type="curve"/>
      <point x="24.0" y="404.0" type="line"/>
      <point x="39.0" y="405.0"/>
      <point x="73.0" y="406.0"/>
      <point x="95.0" y="407.0" type="curve"/>
      <point x="92.0" y="377.0"/>
      <point x="91.0" y="346.0"/>
      <point x="91.0" y="322.0" type="curve" smooth="yes"/>
      <point x="91.0" y="-101.0" type="line" smooth="yes"/>
      <point x="91.0" y="-154.0"/>
      <point x="87.0" y="-190.0"/>
      <point x="31.0" y="-190.0" type="curve"/>
    </contour>
    <contour>
      <point x="305.0" y="59.0" type="curve" smooth="yes"/>
      <point x="276.0" y="58.0"/>
      <point x="246.0" y="67.0"/>
      <point x="232.0" y="77.0" type="curve"/>
      <point x="232.0" y="179.0"/>
      <point x="232.0" y="280.0"/>
      <point x="232.0" y="382.0" type="curve"/>
      <point x="250.0" y="408.0"/>
      <point x="280.0" y="425.0"/>
      <point x="313.0" y="426.0" type="curve" smooth="yes"/>
      <point x="390.0" y="428.0"/>
      <point x="422.0" y="339.0"/>
      <point x="422.0" y="248.0" type="curve" smooth="yes"/>
      <point x="422.0" y="149.0"/>
      <point x="397.0" y="61.0"/>
    </contour>
  </outline>
</glyph>
<glyph name="s" format="2">
  <advance width="485"/>
  <unicode hex="0073"/>
  <anchor x="250" y="0" name="bottom"/>
  <anchor x="235" y="500" name="top"/>
  <outline>
    <contour>
      <point x="271" y="-16" type="curve" smooth="yes"/>
      <point x="364" y="-16"/>
      <point x="453" y="34"/>
      <point x="453" y="138" type="curve" smooth="yes"/>
      <point x="453" y="232"/>
      <point x="378" y="278"/>
      <point x="277" y="313" type="curve" smooth="yes"/>
      <point x="208" y="336"/>
      <point x="155" y="346"/>
      <point x="155" y="393" type="curve" smooth="yes"/>
      <point x="155" y="431"/>
      <point x="187" y="446"/>
      <point x="221" y="446" type="curve" smooth="yes"/>
      <point x="293" y="446"/>
      <point x="346" y="403"/>
      <point x="358" y="334" type="curve"/>
      <point x="423" y="334" type="line"/>
      <point x="423" y="511" type="line"/>
      <point x="347" y="511" type="line"/>
      <point x="347" y="482" type="line"/>
      <point x="315" y="505"/>
      <point x="263" y="516"/>
      <point x="227" y="516" type="curve" smooth="yes"/>
      <point x="96" y="516"/>
      <point x="39" y="432"/>
      <point x="39" y="355" type="curve" smooth="yes"/>
      <point x="39" y="247"/>
      <point x="135" y="217"/>
      <point x="218" y="185" type="curve" smooth="yes"/>
      <point x="293" y="156"/>
      <point x="333" y="144"/>
      <point x="334" y="106" type="curve" smooth="yes"/>
      <point x="334" y="71"/>
      <point x="298" y="56"/>
      <point x="265" y="56" type="curve" smooth="yes"/>
      <point x="180" y="56"/>
      <point x="116" y="104"/>
      <point x="110" y="165" type="curve"/>
      <point x="45" y="165" type="line"/>
      <point x="49" y="-7" type="line"/>
      <point x="125" y="-7" type="line"/>
      <point x="123" y="23" type="line"/>
      <point x="154" y="0"/>
      <point x="213" y="-16"/>
    </contour>
  </outline>
</glyph>
<glyph name="z" format="2">
  <advance width="514.0"/>
  <unicode hex="007A"/>
  <anchor x="267.0" y="500.0" name="top"/>
  <outline>
    <contour>
      <point x="35.0" y="0.0" type="line"/>
      <point x="466.0" y="0.0" type="line"/>
      <point x="481.0" y="196.0" type="line"/>
      <point x="419.0" y="196.0" type="line"/>
      <point x="409.0" y="125.0"/>
      <point x="388.0" y="67.0"/>
      <point x="325.0" y="69.0" type="curve" smooth="yes"/>
      <point x="184.0" y="73.0" type="line"/>
      <point x="202.0" y="89.0"/>
      <point x="221.0" y="108.0"/>
      <point x="240.0" y="134.0" type="curve" smooth="yes"/>
      <point x="463.0" y="437.0" type="line"/>
      <point x="463.0" y="500.0" type="line"/>
      <point x="58.0" y="500.0" type="line"/>
      <point x="44.0" y="307.0" type="line"/>
      <point x="106.0" y="307.0" type="line"/>
      <point x="116.0" y="376.0"/>
      <point x="135.0" y="432.0"/>
      <point x="181.0" y="433.0" type="curve" smooth="yes"/>
      <point x="316.0" y="435.0" type="line"/>
      <point x="311.0" y="429.0"/>
      <point x="287.0" y="404.0"/>
      <point x="265.0" y="375.0" type="curve" smooth="yes"/>
      <point x="35.0" y="72.0" type="line"/>
    </contour>
  </outline>
</glyph>
<glyph name="bar" format="2">
  <advance width="259"/>
  <unicode hex="007C"/>
  <outline>
    <contour>
      <point x="63" y="-271" type="line"/>
      <point x="195" y="-271" type="line"/>
      <point x="199" y="760" type="line"/>
      <point x="61" y="760" type="line"/>
    </contour>
  </outline>
</glyph>
<glyph name="yen" format="2">
  <advance width="722.0"/>
  <unicode hex="00A5"/>
  <outline>
    <contour>
      <point x="231.0" y="0.0" type="line"/>
      <point x="523.0" y="0.0" type="line"/>
      <point x="523.0" y="77.0" type="line"/>
      <point x="509.0" y="77.0"/>
      <point x="465.0" y="76.0"/>
      <point x="443.0" y="74.0" type="curve"/>
      <point x="445.0" y="87.0"/>
      <point x="446.0" y="112.0"/>
      <point x="447.0" y="139.0" type="curve"/>
      <point x="547.0" y="140.0" type="line"/>
      <point x="547.0" y="213.0" type="line"/>
      <point x="447.0" y="214.0" type="line"/>
      <point x="447.0" y="266.0" type="line"/>
      <point x="547.0" y="267.0" type="line"/>
      <point x="547.0" y="340.0" type="line"/>
      <point x="479.0" y="340.0" type="line"/>
      <point x="578.0" y="527.0" type="line" smooth="yes"/>
      <point x="616.0" y="600.0"/>
      <point x="645.0" y="627.0"/>
      <point x="691.0" y="634.0" type="curve"/>
      <point x="691.0" y="700.0" type="line"/>
      <point x="470.0" y="700.0" type="line"/>
      <point x="470.0" y="623.0" type="line"/>
      <point x="484.0" y="624.0"/>
      <point x="525.0" y="625.0"/>
      <point x="547.0" y="627.0" type="curve" smooth="yes"/>
      <point x="530.0" y="605.0"/>
      <point x="504.0" y="556.0"/>
      <point x="494.0" y="535.0" type="curve" smooth="yes"/>
      <point x="442.0" y="433.0" type="line" smooth="yes"/>
      <point x="398.0" y="345.0"/>
      <point x="444.0" y="437.0"/>
      <point x="394.0" y="336.0" type="curve"/>
      <point x="383.0" y="365.0"/>
      <point x="353.0" y="417.0"/>
      <point x="344.0" y="432.0" type="curve" smooth="yes"/>
      <point x="267.0" y="557.0" type="line" smooth="yes"/>
      <point x="234.0" y="611.0"/>
      <point x="268.0" y="638.0"/>
      <point x="326.0" y="634.0" type="curve"/>
      <point x="326.0" y="700.0" type="line"/>
      <point x="32.0" y="700.0" type="line"/>
      <point x="32.0" y="623.0" type="line"/>
      <point x="46.0" y="624.0"/>
      <point x="59.0" y="625.0"/>
      <point x="80.0" y="626.0" type="curve"/>
      <point x="80.0" y="604.0"/>
      <point x="98.0" y="561.0"/>
      <point x="118.0" y="531.0" type="curve" smooth="yes"/>
      <point x="242.0" y="342.0" type="line"/>
      <point x="193.0" y="342.0" type="line"/>
      <point x="193.0" y="265.0" type="line"/>
      <point x="303.0" y="265.0" type="line"/>
      <point x="303.0" y="215.0" type="line"/>
      <point x="193.0" y="215.0" type="line"/>
      <point x="193.0" y="138.0" type="line"/>
      <point x="302.0" y="138.0" type="line"/>
      <point x="299.0" y="72.0"/>
      <point x="273.0" y="68.0"/>
      <point x="231.0" y="66.0" type="curve"/>
    </contour>
  </outline>
</glyph>
<glyph name="brokenbar" format="2">
  <advance width="248.0"/>
  <unicode hex="00A6"/>
  <outline>
    <contour>
      <point x="70.0" y="375.0" type="line"/>
      <point x="176.0" y="375.0" type="line"/>
      <point x="180.0" y="760.0" type="line"/>
      <point x="67.0" y="760.0" type="line"/>
    </contour>
    <contour>
      <point x="70.0" y="-271.0" type="line"/>
      <point x="176.0" y="-271.0" type="line"/>
      <point x="180.0" y="113.0" type="line"/>
      <point x="67.0" y="113.0" type="line"/>
    </contour>
  </outline>
</glyph>
<glyph name="section" format="2">
  <advance width="549.0"/>
  <unicode hex="00A7"/>
  <outline>
    <contour>
      <point x="267.0" y="-228.0" type="curve" smooth="yes"/>
      <point x="413.0" y="-228.0"/>
      <point x="468.0" y="-114.0"/>
      <point x="468.0" y="-38.0" type="curve" smooth="yes"/>
      <point x="468.0" y="11.0"/>
      <point x="445.0" y="44.0"/>
      <point x="428.0" y="71.0" type="curve"/>
      <point x="473.0" y="116.0"/>
      <point x="505.0" y="174.0"/>
      <point x="505.0" y="226.0" type="curve" smooth="yes"/>
      <point x="505.0" y="322.0"/>
      <point x="438.0" y="382.0"/>
      <point x="365.0" y="429.0" type="curve" smooth="yes"/>
      <point x="297.0" y="473.0"/>
      <point x="196.0" y="516.0"/>
      <point x="194.0" y="606.0" type="curve"/>
      <point x="195.0" y="645.0"/>
      <point x="223.0" y="688.0"/>
      <point x="284.0" y="688.0" type="curve" smooth="yes"/>
      <point x="314.0" y="688.0"/>
      <point x="341.0" y="674.0"/>
      <point x="351.0" y="653.0" type="curve"/>
      <point x="343.0" y="641.0"/>
      <point x="340.0" y="626.0"/>
      <point x="340.0" y="612.0" type="curve" smooth="yes"/>
      <point x="340.0" y="590.0"/>
      <point x="357.0" y="553.0"/>
      <point x="405.0" y="554.0" type="curve" smooth="yes"/>
      <point x="443.0" y="556.0"/>
      <point x="465.0" y="587.0"/>
      <point x="465.0" y="625.0" type="curve" smooth="yes"/>
      <point x="465.0" y="690.0"/>
      <point x="390.0" y="760.0"/>
      <point x="280.0" y="760.0" type="curve" smooth="yes"/>
      <point x="134.0" y="760.0"/>
      <point x="80.0" y="646.0"/>
      <point x="82.0" y="569.0" type="curve" smooth="yes"/>
      <point x="83.0" y="531.0"/>
      <point x="91.0" y="490.0"/>
      <point x="122.0" y="451.0" type="curve"/>
      <point x="74.0" y="406.0"/>
      <point x="44.0" y="350.0"/>
      <point x="44.0" y="297.0" type="curve" smooth="yes"/>
      <point x="44.0" y="199.0"/>
      <point x="115.0" y="140.0"/>
      <point x="188.0" y="93.0" type="curve" smooth="yes"/>
      <point x="248.0" y="54.0"/>
      <point x="356.0" y="6.0"/>
      <point x="356.0" y="-76.0" type="curve" smooth="yes"/>
      <point x="356.0" y="-116.0"/>
      <point x="327.0" y="-157.0"/>
      <point x="266.0" y="-157.0" type="curve" smooth="yes"/>
      <point x="236.0" y="-157.0"/>
      <point x="206.0" y="-143.0"/>
      <point x="196.0" y="-122.0" type="curve"/>
      <point x="204.0" y="-109.0"/>
      <point x="207.0" y="-94.0"/>
      <point x="207.0" y="-80.0" type="curve" smooth="yes"/>
      <point x="207.0" y="-58.0"/>
      <point x="189.0" y="-21.0"/>
      <point x="142.0" y="-22.0" type="curve" smooth="yes"/>
      <point x="104.0" y="-24.0"/>
      <point x="82.0" y="-56.0"/>
      <point x="82.0" y="-93.0" type="curve" smooth="yes"/>
      <point x="82.0" y="-158.0"/>
      <point x="157.0" y="-228.0"/>
    </contour>
    <contour>
      <point x="377.0" y="127.0" type="curve"/>
      <point x="306.0" y="183.0"/>
      <point x="159.0" y="239.0"/>
      <point x="159.0" y="331.0" type="curve" smooth="yes"/>
      <point x="159.0" y="353.0"/>
      <point x="164.0" y="375.0"/>
      <point x="173.0" y="395.0" type="curve"/>
      <point x="245.0" y="340.0"/>
      <point x="392.0" y="284.0"/>
      <point x="392.0" y="192.0" type="curve" smooth="yes"/>
      <point x="392.0" y="171.0"/>
      <point x="387.0" y="146.0"/>
    </contour>
  </outline>
</glyph>
<glyph name="copyright" format="2">
  <advance width="915.0"/>
  <unicode hex="00A9"/>
  <outline>
    <contour>
      <point x="459.0" y="-71.0" type="curve" smooth="yes"/>
      <point x="688.0" y="-71.0"/>
      <point x="869.0" y="112.0"/>
      <point x="869.0" y="339.0" type="curve" smooth="yes"/>
      <point x="869.0" y="567.0"/>
      <point x="702.0" y="755.0"/>
      <point x="461.0" y="755.0" type="curve" smooth="yes"/>
      <point x="223.0" y="755.0"/>
      <point x="46.0" y="568.0"/>
      <point x="46.0" y="340.0" type="curve" smooth="yes"/>
      <point x="46.0" y="103.0"/>
      <point x="214.0" y="-71.0"/>
    </contour>
    <contour>
      <point x="462.0" y="-14.0" type="curve" smooth="yes"/>
      <point x="250.0" y="-14.0"/>
      <point x="117.0" y="147.0"/>
      <point x="117.0" y="340.0" type="curve" smooth="yes"/>
      <point x="117.0" y="533.0"/>
      <point x="255.0" y="697.0"/>
      <point x="459.0" y="697.0" type="curve" smooth="yes"/>
      <point x="666.0" y="697.0"/>
      <point x="799.0" y="533.0"/>
      <point x="799.0" y="340.0" type="curve" smooth="yes"/>
      <point x="799.0" y="147.0"/>
      <point x="669.0" y="-14.0"/>
    </contour>
    <contour>
      <point x="466.0" y="94.0" type="curve" smooth="yes"/>
      <point x="523.0" y="94.0"/>
      <point x="612.0" y="118.0"/>
      <point x="679.0" y="209.0" type="curve"/>
      <point x="631.0" y="254.0" type="line"/>
      <point x="592.0" y="205.0"/>
      <point x="542.0" y="180.0"/>
      <point x="494.0" y="181.0" type="curve" smooth="yes"/>
      <point x="401.0" y="183.0"/>
      <point x="346.0" y="259.0"/>
      <point x="346.0" y="349.0" type="curve" smooth="yes"/>
      <point x="346.0" y="449.0"/>
      <point x="402.0" y="521.0"/>
      <point x="473.0" y="521.0" type="curve" smooth="yes"/>
      <point x="526.0" y="521.0"/>
      <point x="575.0" y="491.0"/>
      <point x="585.0" y="411.0" type="curve"/>
      <point x="652.0" y="411.0" type="line"/>
      <point x="652.0" y="586.0" type="line"/>
      <point x="576.0" y="586.0" type="line"/>
      <point x="577.0" y="555.0" type="line"/>
      <point x="542.0" y="580.0"/>
      <point x="507.0" y="588.0"/>
      <point x="467.0" y="590.0" type="curve" smooth="yes"/>
      <point x="305.0" y="596.0"/>
      <point x="227.0" y="456.0"/>
      <point x="227.0" y="338.0" type="curve" smooth="yes"/>
      <point x="227.0" y="201.0"/>
      <point x="328.0" y="94.0"/>
    </contour>
  </outline>
</glyph>
<glyph name="ordfeminine" format="2">
  <advance width="386.0"/>
  <unicode hex="00AA"/>
  <outline>
    <contour>
      <point x="133.0" y="367.0" type="curve" smooth="yes"/>
      <point x="162.0" y="367.0"/>
      <point x="204.0" y="387.0"/>
      <point x="223.0" y="424.0" type="curve"/>
      <point x="228.0" y="385.0"/>
      <point x="257.0" y="367.0"/>
      <point x="285.0" y="367.0" type="curve" smooth="yes"/>
      <point x="313.0" y="367.0"/>
      <point x="346.0" y="386.0"/>
      <point x="366.0" y="414.0" type="curve"/>
      <point x="346.0" y="443.0" type="line"/>
      <point x="339.0" y="438.0"/>
      <point x="334.0" y="438.0"/>
      <point x="329.0" y="438.0" type="curve" smooth="yes"/>
      <point x="313.0" y="438.0"/>
      <point x="312.0" y="459.0"/>
      <point x="312.0" y="472.0" type="curve" smooth="yes"/>
      <point x="312.0" y="506.0"/>
      <point x="313.0" y="552.0"/>
      <point x="313.0" y="586.0" type="curve" smooth="yes"/>
      <point x="313.0" y="676.0"/>
      <point x="269.0" y="716.0"/>
      <point x="189.0" y="716.0" type="curve" smooth="yes"/>
      <point x="108.0" y="716.0"/>
      <point x="50.0" y="669.0"/>
      <point x="50.0" y="618.0" type="curve" smooth="yes"/>
      <point x="50.0" y="590.0"/>
      <point x="67.0" y="569.0"/>
      <point x="98.0" y="569.0" type="curve" smooth="yes"/>
      <point x="134.0" y="568.0"/>
      <point x="148.0" y="600.0"/>
      <point x="148.0" y="619.0" type="curve" smooth="yes"/>
      <point x="148.0" y="627.0"/>
      <point x="146.0" y="640.0"/>
      <point x="141.0" y="647.0" type="curve"/>
      <point x="150.0" y="657.0"/>
      <point x="167.0" y="661.0"/>
      <point x="179.0" y="661.0" type="curve" smooth="yes"/>
      <point x="212.0" y="659.0"/>
      <point x="215.0" y="631.0"/>
      <point x="215.0" y="605.0" type="curve" smooth="yes"/>
      <point x="215.0" y="562.0" type="line"/>
      <point x="131.0" y="556.0"/>
      <point x="35.0" y="523.0"/>
      <point x="35.0" y="447.0" type="curve" smooth="yes"/>
      <point x="35.0" y="396.0"/>
      <point x="71.0" y="367.0"/>
    </contour>
    <contour>
      <point x="166.0" y="441.0" type="curve" smooth="yes"/>
      <point x="147.0" y="441.0"/>
      <point x="139.0" y="452.0"/>
      <point x="138.0" y="464.0" type="curve" smooth="yes"/>
      <point x="135.0" y="493.0"/>
      <point x="175.0" y="511.0"/>
      <point x="215.0" y="514.0" type="curve"/>
      <point x="215.0" y="498.0"/>
      <point x="215.0" y="482.0"/>
      <point x="215.0" y="466.0" type="curve"/>
      <point x="198.0" y="449.0"/>
      <point x="182.0" y="441.0"/>
    </contour>
  </outline>
</glyph>
<glyph name="macron" format="2">
  <advance width="374.0"/>
  <unicode hex="00AF"/>
  <anchor x="187.0" y="500.0" name="_top"/>
  <outline>
    <contour>
      <point x="45.0" y="627.0" type="line"/>
      <point x="329.0" y="631.0" type="line"/>
      <point x="329.0" y="723.0" type="line"/>
      <point x="45.0" y="723.0" type="line"/>
    </contour>
  </outline>
</glyph>
<glyph name="threesuperior" format="2">
  <advance width="365.0"/>
  <unicode hex="00B3"/>
  <outline>
    <contour>
      <point x="168.0" y="292.0" type="curve" smooth="yes"/>
      <point x="279.0" y="292.0"/>
      <point x="335.0" y="350.0"/>
      <point x="332.0" y="423.0" type="curve" smooth="yes"/>
      <point x="329.0" y="473.0"/>
      <point x="300.0" y="510.0"/>
      <point x="237.0" y="523.0" type="curve"/>
      <point x="279.0" y="534.0"/>
      <point x="313.0" y="573.0"/>
      <point x="313.0" y="611.0" type="curve" smooth="yes"/>
      <point x="313.0" y="682.0"/>
      <point x="254.0" y="716.0"/>
      <point x="178.0" y="716.0" type="curve" smooth="yes"/>
      <point x="84.0" y="716.0"/>
      <point x="42.0" y="661.0"/>
      <point x="42.0" y="623.0" type="curve" smooth="yes"/>
      <point x="42.0" y="593.0"/>
      <point x="61.0" y="573.0"/>
      <point x="91.0" y="572.0" type="curve" smooth="yes"/>
      <point x="128.0" y="571.0"/>
      <point x="140.0" y="602.0"/>
      <point x="140.0" y="619.0" type="curve" smooth="yes"/>
      <point x="140.0" y="626.0"/>
      <point x="137.0" y="642.0"/>
      <point x="126.0" y="650.0" type="curve"/>
      <point x="131.0" y="655.0"/>
      <point x="144.0" y="662.0"/>
      <point x="162.0" y="662.0" type="curve" smooth="yes"/>
      <point x="195.0" y="662.0"/>
      <point x="213.0" y="641.0"/>
      <point x="213.0" y="605.0" type="curve" smooth="yes"/>
      <point x="214.0" y="575.0"/>
      <point x="198.0" y="537.0"/>
      <point x="148.0" y="537.0" type="curve" smooth="yes"/>
      <point x="137.0" y="537.0"/>
      <point x="125.0" y="538.0"/>
      <point x="113.0" y="538.0" type="curve"/>
      <point x="113.0" y="484.0" type="line"/>
      <point x="121.0" y="484.0"/>
      <point x="137.0" y="485.0"/>
      <point x="147.0" y="485.0" type="curve" smooth="yes"/>
      <point x="200.0" y="485.0"/>
      <point x="227.0" y="455.0"/>
      <point x="227.0" y="413.0" type="curve" smooth="yes"/>
      <point x="227.0" y="374.0"/>
      <point x="202.0" y="346.0"/>
      <point x="164.0" y="346.0" type="curve" smooth="yes"/>
      <point x="153.0" y="346.0"/>
      <point x="130.0" y="348.0"/>
      <point x="120.0" y="361.0" type="curve"/>
      <point x="131.0" y="370.0"/>
      <point x="134.0" y="389.0"/>
      <point x="134.0" y="396.0" type="curve" smooth="yes"/>
      <point x="134.0" y="420.0"/>
      <point x="123.0" y="447.0"/>
      <point x="86.0" y="446.0" type="curve" smooth="yes"/>
      <point x="56.0" y="445.0"/>
      <point x="36.0" y="418.0"/>
      <point x="36.0" y="389.0" type="curve" smooth="yes"/>
      <point x="36.0" y="340.0"/>
      <point x="86.0" y="292.0"/>
    </contour>
  </outline>
</glyph>
<glyph name="acute" format="2">
  <advance width="282.0"/>
  <unicode hex="00B4"/>
  <anchor x="141.0" y="500.0" name="_top"/>
  <outline>
    <contour>
      <point x="90.0" y="565.0" type="line"/>
      <point x="211.0" y="671.0" type="line" smooth="yes"/>
      <point x="238.0" y="696.0"/>
      <point x="251.0" y="741.0"/>
      <point x="220.0" y="770.0" type="curve" smooth="yes"/>
      <point x="188.0" y="795.0"/>
      <point x="147.0" y="779.0"/>
      <point x="126.0" y="746.0" type="curve" smooth="yes"/>
      <point x="44.0" y="606.0" type="line"/>
    </contour>
  </outline>
</glyph>
<glyph name="paragraph" format="2">
  <advance width="573.0"/>
  <unicode hex="00B6"/>
  <outline>
    <contour>
      <point x="166.0" y="-255.0" type="line"/>
      <point x="278.0" y="-255.0" type="line"/>
      <point x="280.0" y="630.0" type="line"/>
      <point x="374.0" y="631.0" type="line"/>
      <point x="372.0" y="-255.0" type="line"/>
      <point x="483.0" y="-255.0" type="line"/>
      <point x="485.0" y="700.0" type="line"/>
      <point x="193.0" y="700.0" type="line" smooth="yes"/>
      <point x="116.0" y="700.0"/>
      <point x="41.0" y="652.0"/>
      <point x="41.0" y="549.0" type="curve" smooth="yes"/>
      <point x="41.0" y="450.0"/>
      <point x="104.0" y="413.0"/>
      <point x="168.0" y="401.0" type="curve"/>
    </contour>
  </outline>
</glyph>
<glyph name="cedilla" format="2">
  <advance width="325"/>
  <unicode hex="00B8"/>
  <anchor x="119" y="0" name="_bottom"/>
  <outline>
    <contour>
      <point x="53" y="-259" type="line"/>
      <point x="130" y="-248"/>
      <point x="280" y="-216"/>
      <point x="280" y="-123" type="curve" smooth="yes"/>
      <point x="280" y="-75"/>
      <point x="249" y="-54"/>
      <point x="207" y="-53" type="curve" smooth="yes"/>
      <point x="189" y="-53"/>
      <point x="155" y="-60"/>
      <point x="139" y="-69" type="curve"/>
      <point x="167" y="10" type="line"/>
      <point x="91" y="10" type="line"/>
      <point x="60" y="-117" type="line"/>
      <point x="97" y="-133" type="line"/>
      <point x="117" y="-117"/>
      <point x="165" y="-109"/>
      <point x="165" y="-144" type="curve" smooth="yes"/>
      <point x="165" y="-185"/>
      <point x="77" y="-201"/>
      <point x="45" y="-207" type="curve"/>
    </contour>
  </outline>
</glyph>
<glyph name="onesuperior" format="2">
  <advance width="278.0"/>
  <unicode hex="00B9"/>
  <outline>
    <contour>
      <point x="64.0" y="301.0" type="line"/>
      <point x="243.0" y="301.0" type="line"/>
      <point x="243.0" y="345.0" type="line"/>
      <point x="234.0" y="345.0"/>
      <point x="212.0" y="345.0"/>
      <point x="200.0" y="344.0" type="curve"/>
      <point x="201.0" y="354.0"/>
      <point x="202.0" y="375.0"/>
      <point x="202.0" y="395.0" type="curve" smooth="yes"/>
      <point x="202.0" y="716.0" type="line"/>
      <point x="167.0" y="716.0" type="line"/>
      <point x="21.0" y="621.0" type="line"/>
      <point x="41.0" y="582.0" type="line"/>
      <point x="104.0" y="619.0" type="line"/>
      <point x="104.0" y="389.0" type="line" smooth="yes"/>
      <point x="104.0" y="343.0"/>
      <point x="90.0" y="340.0"/>
      <point x="64.0" y="339.0" type="curve"/>
    </contour>
  </outline>
</glyph>
<glyph name="ordmasculine" format="2">
  <advance width="378"/>
  <unicode hex="00BA"/>
  <outline>
    <contour>
      <point x="188" y="364" type="curve" smooth="yes"/>
      <point x="288" y="364"/>
      <point x="349" y="439"/>
      <point x="348" y="545" type="curve" smooth="yes"/>
      <point x="347" y="646"/>
      <point x="288" y="716"/>
      <point x="191" y="716" type="curve" smooth="yes"/>
      <point x="92" y="716"/>
      <point x="30" y="637"/>
      <point x="30" y="533" type="curve" smooth="yes"/>
      <point x="30" y="435"/>
      <point x="92" y="364"/>
    </contour>
    <contour>
      <point x="193" y="420" type="curve" smooth="yes"/>
      <point x="154" y="419"/>
      <point x="137" y="469"/>
      <point x="137" y="550" type="curve" smooth="yes"/>
      <point x="137" y="623"/>
      <point x="157" y="660"/>
      <point x="189" y="662" type="curve" smooth="yes"/>
      <point x="229" y="664"/>
      <point x="244" y="610"/>
      <point x="244" y="531" type="curve" smooth="yes"/>
      <point x="244" y="459"/>
      <point x="225" y="421"/>
    </contour>
  </outline>
</glyph>
<glyph name="guillemetright" format="2">
  <advance width="493"/>
  <unicode hex="00BB"/>
  <outline>
    <contour>
      <point x="206" y="-17" type="line"/>
      <point x="473" y="261" type="line"/>
      <point x="473" y="285" type="line"/>
      <point x="209" y="554" type="line"/>
      <point x="162" y="508" type="line"/>
      <point x="348" y="275" type="line"/>
      <point x="348" y="274" type="line"/>
      <point x="159" y="32" type="line"/>
    </contour>
    <contour>
      <point x="83" y="60" type="line"/>
      <point x="253" y="259" type="line"/>
      <point x="253" y="282" type="line"/>
      <point x="84" y="476" type="line"/>
      <point x="38" y="437" type="line"/>
      <point x="136" y="268" type="line"/>
      <point x="136" y="267" type="line"/>
      <point x="36" y="98" type="line"/>
    </contour>
  </outline>
</glyph>
<glyph name="AE" format="2">
  <advance width="935"/>
  <unicode hex="00C6"/>
  <outline>
    <contour>
      <point x="-6" y="0" type="line"/>
      <point x="218" y="0" type="line"/>
      <point x="218" y="77" type="line"/>
      <point x="138" y="75" type="line"/>
      <point x="159" y="91"/>
      <point x="180" y="120"/>
      <point x="201" y="151" type="curve" smooth="yes"/>
      <point x="236" y="202" type="line"/>
      <point x="432" y="207" type="line"/>
      <point x="432" y="153" type="line" smooth="yes"/>
      <point x="432" y="72"/>
      <point x="406" y="68"/>
      <point x="361" y="66" type="curve"/>
      <point x="361" y="0" type="line"/>
      <point x="889" y="0" type="line"/>
      <point x="895" y="220" type="line"/>
      <point x="829" y="220" type="line"/>
      <point x="829" y="112"/>
      <point x="766" y="76"/>
      <point x="707" y="76" type="curve" smooth="yes"/>
      <point x="573" y="76" type="line"/>
      <point x="575" y="93"/>
      <point x="577" y="128"/>
      <point x="577" y="164" type="curve" smooth="yes"/>
      <point x="577" y="328" type="line"/>
      <point x="603" y="329" type="line" smooth="yes"/>
      <point x="657" y="330"/>
      <point x="701" y="325"/>
      <point x="701" y="241" type="curve"/>
      <point x="767" y="241" type="line"/>
      <point x="767" y="484" type="line"/>
      <point x="690" y="484" type="line"/>
      <point x="694" y="397" type="line"/>
      <point x="577" y="397" type="line"/>
      <point x="577" y="547" type="line" smooth="yes"/>
      <point x="577" y="625"/>
      <point x="602" y="633"/>
      <point x="644" y="634" type="curve" smooth="yes"/>
      <point x="680" y="635" type="line" smooth="yes"/>
      <point x="734" y="637"/>
      <point x="801" y="615"/>
      <point x="801" y="506" type="curve"/>
      <point x="867" y="506" type="line"/>
      <point x="861" y="700" type="line"/>
      <point x="361" y="700" type="line"/>
      <point x="361" y="623" type="line"/>
      <point x="436" y="626" type="line"/>
      <point x="113" y="171" type="line" smooth="yes"/>
      <point x="80" y="124"/>
      <point x="41" y="66"/>
      <point x="-6" y="66" type="curve"/>
    </contour>
    <contour>
      <point x="285" y="276" type="line"/>
      <point x="432" y="500" type="line"/>
      <point x="432" y="276" type="line"/>
    </contour>
  </outline>
</glyph>
<glyph name="Eth" format="2">
  <advance width="759"/>
  <unicode hex="00D0"/>
  <anchor x="381" y="350" name="center"/>
  <anchor x="361" y="700" name="top"/>
  <outline>
    <contour>
      <point x="30" y="312" type="line"/>
      <point x="421" y="316" type="line"/>
      <point x="421" y="391" type="line"/>
      <point x="30" y="391" type="line"/>
    </contour>
    <component base="D" xOffset="1"/>
  </outline>
</glyph>
<glyph name="multiply" format="2">
  <advance width="530.0"/>
  <unicode hex="00D7"/>
  <outline>
    <contour>
      <point x="135.0" y="545.0" type="line"/>
      <point x="80.0" y="490.0" type="line"/>
      <point x="395.0" y="175.0" type="line"/>
      <point x="450.0" y="230.0" type="line"/>
    </contour>
    <contour>
      <point x="450.0" y="491.0" type="line"/>
      <point x="396.0" y="545.0" type="line"/>
      <point x="80.0" y="229.0" type="line"/>
      <point x="134.0" y="175.0" type="line"/>
    </contour>
  </outline>
</glyph>
<glyph name="Oslash" format="2">
  <advance width="769"/>
  <unicode hex="00D8"/>
  <anchor x="384" y="0" name="bottom"/>
  <anchor x="384" y="700" name="top"/>
  <anchor x="385" y="350" name="center"/>
  <anchor x="692" y="10" name="ogonek"/>
  <anchor x="20" y="700" name="topleft"/>
  <anchor x="581" y="700" name="topright"/>
  <outline>
    <contour>
      <point x="595" y="786" type="line"/>
      <point x="109" y="-49" type="line"/>
      <point x="184" y="-99" type="line"/>
      <point x="675" y="737" type="line"/>
    </contour>
    <component base="O"/>
  </outline>
</glyph>
<glyph name="germandbls" format="2">
  <advance width="771.0"/>
  <unicode hex="00DF"/>
  <outline>
    <contour>
      <point x="580.0" y="-16.0" type="curve" smooth="yes"/>
      <point x="673.0" y="-16.0"/>
      <point x="757.0" y="34.0"/>
      <point x="757.0" y="138.0" type="curve" smooth="yes"/>
      <point x="757.0" y="232.0"/>
      <point x="687.0" y="282.0"/>
      <point x="586.0" y="316.0" type="curve" smooth="yes"/>
      <point x="517.0" y="340.0"/>
      <point x="483.0" y="352.0"/>
      <point x="483.0" y="393.0" type="curve" smooth="yes"/>
      <point x="484.0" y="445.0"/>
      <point x="557.0" y="449.0"/>
      <point x="624.0" y="444.0" type="curve"/>
      <point x="626.0" y="463.0"/>
      <point x="627.0" y="481.0"/>
      <point x="627.0" y="498.0" type="curve" smooth="yes"/>
      <point x="627.0" y="738.0"/>
      <point x="445.0" y="755.0"/>
      <point x="375.0" y="755.0" type="curve" smooth="yes"/>
      <point x="235.0" y="755.0"/>
      <point x="119.0" y="699.0"/>
      <point x="104.0" y="500.0" type="curve"/>
      <point x="30.0" y="500.0" type="line"/>
      <point x="30.0" y="417.0" type="line"/>
      <point x="102.0" y="419.0" type="line"/>
      <point x="102.0" y="154.0" type="line" smooth="yes"/>
      <point x="102.0" y="101.0"/>
      <point x="98.0" y="65.0"/>
      <point x="42.0" y="65.0" type="curve"/>
      <point x="42.0" y="0.0" type="line"/>
      <point x="310.0" y="0.0" type="line"/>
      <point x="310.0" y="76.0" type="line"/>
      <point x="295.0" y="76.0"/>
      <point x="261.0" y="75.0"/>
      <point x="240.0" y="73.0" type="curve"/>
      <point x="243.0" y="103.0"/>
      <point x="244.0" y="144.0"/>
      <point x="244.0" y="163.0" type="curve"/>
      <point x="244.0" y="487.0" type="line" smooth="yes"/>
      <point x="244.0" y="640.0"/>
      <point x="308.0" y="678.0"/>
      <point x="368.0" y="680.0" type="curve" smooth="yes"/>
      <point x="418.0" y="681.0"/>
      <point x="493.0" y="665.0"/>
      <point x="494.0" y="512.0" type="curve"/>
      <point x="403.0" y="494.0"/>
      <point x="367.0" y="427.0"/>
      <point x="367.0" y="360.0" type="curve" smooth="yes"/>
      <point x="367.0" y="252.0"/>
      <point x="444.0" y="221.0"/>
      <point x="527.0" y="189.0" type="curve" smooth="yes"/>
      <point x="603.0" y="160.0"/>
      <point x="638.0" y="144.0"/>
      <point x="638.0" y="106.0" type="curve" smooth="yes"/>
      <point x="639.0" y="74.0"/>
      <point x="603.0" y="56.0"/>
      <point x="574.0" y="56.0" type="curve" smooth="yes"/>
      <point x="489.0" y="56.0"/>
      <point x="444.0" y="104.0"/>
      <point x="438.0" y="165.0" type="curve"/>
      <point x="374.0" y="165.0" type="line"/>
      <point x="378.0" y="-7.0" type="line"/>
      <point x="454.0" y="-7.0" type="line"/>
      <point x="452.0" y="23.0" type="line"/>
      <point x="483.0" y="0.0"/>
      <point x="522.0" y="-16.0"/>
    </contour>
  </outline>
</glyph>
<glyph name="ae" format="2">
  <advance width="770.0"/>
  <unicode hex="00E6"/>
  <outline>
    <contour>
      <point x="167.0" y="-16.0" type="curve" smooth="yes"/>
      <point x="233.0" y="-16.0"/>
      <point x="309.0" y="-2.0"/>
      <point x="370.0" y="68.0" type="curve"/>
      <point x="404.0" y="23.0"/>
      <point x="456.0" y="-16.0"/>
      <point x="531.0" y="-16.0" type="curve" smooth="yes"/>
      <point x="599.0" y="-16.0"/>
      <point x="679.0" y="3.0"/>
      <point x="750.0" y="106.0" type="curve"/>
      <point x="706.0" y="148.0" type="line"/>
      <point x="660.0" y="92.0"/>
      <point x="609.0" y="73.0"/>
      <point x="568.0" y="73.0" type="curve" smooth="yes"/>
      <point x="471.0" y="73.0"/>
      <point x="447.0" y="154.0"/>
      <point x="447.0" y="263.0" type="curve"/>
      <point x="730.0" y="269.0" type="line"/>
      <point x="732.0" y="452.0"/>
      <point x="637.0" y="515.0"/>
      <point x="549.0" y="516.0" type="curve" smooth="yes"/>
      <point x="472.0" y="516.0"/>
      <point x="428.0" y="493.0"/>
      <point x="391.0" y="432.0" type="curve"/>
      <point x="373.0" y="494.0"/>
      <point x="323.0" y="516.0"/>
      <point x="255.0" y="516.0" type="curve" smooth="yes"/>
      <point x="138.0" y="516.0"/>
      <point x="51.0" y="458.0"/>
      <point x="51.0" y="384.0" type="curve" smooth="yes"/>
      <point x="51.0" y="348.0"/>
      <point x="74.0" y="317.0"/>
      <point x="113.0" y="316.0" type="curve" smooth="yes"/>
      <point x="160.0" y="315.0"/>
      <point x="181.0" y="351.0"/>
      <point x="181.0" y="378.0" type="curve" smooth="yes"/>
      <point x="181.0" y="388.0"/>
      <point x="179.0" y="407.0"/>
      <point x="168.0" y="418.0" type="curve"/>
      <point x="185.0" y="436.0"/>
      <point x="213.0" y="444.0"/>
      <point x="240.0" y="445.0" type="curve" smooth="yes"/>
      <point x="290.0" y="447.0"/>
      <point x="309.0" y="407.0"/>
      <point x="309.0" y="355.0" type="curve" smooth="yes"/>
      <point x="309.0" y="301.0" type="line"/>
      <point x="175.0" y="295.0"/>
      <point x="29.0" y="244.0"/>
      <point x="29.0" y="117.0" type="curve" smooth="yes"/>
      <point x="29.0" y="41.0"/>
      <point x="82.0" y="-16.0"/>
    </contour>
    <contour>
      <point x="231.0" y="82.0" type="curve" smooth="yes"/>
      <point x="203.0" y="82.0"/>
      <point x="172.0" y="97.0"/>
      <point x="171.0" y="134.0" type="curve" smooth="yes"/>
      <point x="169.0" y="191.0"/>
      <point x="234.0" y="223.0"/>
      <point x="309.0" y="230.0" type="curve"/>
      <point x="309.0" y="194.0"/>
      <point x="310.0" y="158.0"/>
      <point x="313.0" y="120.0" type="curve"/>
      <point x="292.0" y="97.0"/>
      <point x="262.0" y="82.0"/>
    </contour>
    <contour>
      <point x="453.0" y="333.0" type="line"/>
      <point x="458.0" y="393.0"/>
      <point x="478.0" y="445.0"/>
      <point x="532.0" y="445.0" type="curve" smooth="yes"/>
      <point x="564.0" y="445.0"/>
      <point x="596.0" y="416.0"/>
      <point x="598.0" y="333.0" type="curve"/>
    </contour>
  </outline>
</glyph>
<glyph name="oslash" format="2">
  <advance width="566.0"/>
  <unicode hex="00F8"/>
  <anchor x="283.0" y="500.0" name="top"/>
  <outline>
    <contour>
      <point x="116.0" y="-83.0" type="line"/>
      <point x="512.0" y="531.0" type="line"/>
      <point x="445.0" y="574.0" type="line"/>
      <point x="55.0" y="-36.0" type="line"/>
    </contour>
    <contour>
      <point x="286.0" y="-16.0" type="curve" smooth="yes"/>
      <point x="432.0" y="-16.0"/>
      <point x="535.0" y="91.0"/>
      <point x="535.0" y="259.0" type="curve" smooth="yes"/>
      <point x="535.0" y="419.0"/>
      <point x="426.0" y="516.0"/>
      <point x="283.0" y="516.0" type="curve" smooth="yes"/>
      <point x="146.0" y="516.0"/>
      <point x="31.0" y="405.0"/>
      <point x="31.0" y="239.0" type="curve" smooth="yes"/>
      <point x="31.0" y="82.0"/>
      <point x="141.0" y="-16.0"/>
    </contour>
    <contour>
      <point x="290.0" y="55.0" type="curve" smooth="yes"/>
      <point x="208.0" y="53.0"/>
      <point x="178.0" y="164.0"/>
      <point x="178.0" y="266.0" type="curve" smooth="yes"/>
      <point x="178.0" y="353.0"/>
      <point x="203.0" y="444.0"/>
      <point x="281.0" y="446.0" type="curve" smooth="yes"/>
      <point x="362.0" y="448.0"/>
      <point x="387.0" y="333.0"/>
      <point x="387.0" y="234.0" type="curve" smooth="yes"/>
      <point x="387.0" y="149.0"/>
      <point x="369.0" y="56.0"/>
    </contour>
  </outline>
</glyph>
<glyph name="thorn" format="2">
  <advance width="573.0"/>
  <unicode hex="00FE"/>
  <outline>
    <contour>
      <point x="3.0" y="-255.0" type="line"/>
      <point x="265.0" y="-255.0" type="line"/>
      <point x="265.0" y="-179.0" type="line"/>
      <point x="251.0" y="-179.0"/>
      <point x="222.0" y="-180.0"/>
      <point x="200.0" y="-182.0" type="curve"/>
      <point x="203.0" y="-152.0"/>
      <point x="204.0" y="-113.0"/>
      <point x="204.0" y="-94.0" type="curve" smooth="yes"/>
      <point x="204.0" y="2.0" type="line"/>
      <point x="229.0" y="-7.0"/>
      <point x="257.0" y="-16.0"/>
      <point x="293.0" y="-16.0" type="curve" smooth="yes"/>
      <point x="441.0" y="-16.0"/>
      <point x="541.0" y="102.0"/>
      <point x="541.0" y="263.0" type="curve" smooth="yes"/>
      <point x="541.0" y="417.0"/>
      <point x="459.0" y="516.0"/>
      <point x="339.0" y="516.0" type="curve" smooth="yes"/>
      <point x="292.0" y="516.0"/>
      <point x="246.0" y="497.0"/>
      <point x="204.0" y="462.0" type="curve"/>
      <point x="204.0" y="755.0" type="line"/>
      <point x="150.0" y="755.0" type="line"/>
      <point x="136.0" y="742.0"/>
      <point x="89.0" y="725.0"/>
      <point x="-4.0" y="725.0" type="curve"/>
      <point x="-4.0" y="649.0" type="line"/>
      <point x="10.0" y="650.0"/>
      <point x="45.0" y="651.0"/>
      <point x="66.0" y="652.0" type="curve"/>
      <point x="63.0" y="623.0"/>
      <point x="63.0" y="589.0"/>
      <point x="63.0" y="565.0" type="curve" smooth="yes"/>
      <point x="63.0" y="-101.0" type="line" smooth="yes"/>
      <point x="63.0" y="-154.0"/>
      <point x="59.0" y="-190.0"/>
      <point x="3.0" y="-190.0" type="curve"/>
    </contour>
    <contour>
      <point x="276.0" y="59.0" type="curve" smooth="yes"/>
      <point x="248.0" y="58.0"/>
      <point x="218.0" y="67.0"/>
      <point x="204.0" y="77.0" type="curve"/>
      <point x="204.0" y="382.0" type="line"/>
      <point x="222.0" y="408.0"/>
      <point x="252.0" y="425.0"/>
      <point x="285.0" y="426.0" type="curve" smooth="yes"/>
      <point x="362.0" y="428.0"/>
      <point x="394.0" y="339.0"/>
      <point x="394.0" y="248.0" type="curve" smooth="yes"/>
      <point x="394.0" y="149.0"/>
      <point x="369.0" y="61.0"/>
    </contour>
  </outline>
</glyph>
<glyph name="Hbar" format="2">
  <advance width="807.0"/>
  <unicode hex="0126"/>
  <anchor x="403.0" y="350.0" name="center"/>
  <anchor x="403.0" y="700.0" name="top"/>
  <outline>
    <contour>
      <point x="51.0" y="485.0" type="line"/>
      <point x="756.0" y="489.0" type="line"/>
      <point x="756.0" y="538.0" type="line"/>
      <point x="51.0" y="538.0" type="line"/>
    </contour>
    <component base="H"/>
  </outline>
</glyph>
<glyph name="hbar" format="2">
  <advance width="621.0"/>
  <unicode hex="0127"/>
  <anchor x="311.0" y="250.0" name="center"/>
  <anchor x="170.0" y="704.0" name="top"/>
  <outline>
    <contour>
      <point x="22.0" y="555.0" type="line"/>
      <point x="357.0" y="559.0" type="line"/>
      <point x="357.0" y="608.0" type="line"/>
      <point x="22.0" y="608.0" type="line"/>
    </contour>
    <component base="h"/>
  </outline>
</glyph>
<glyph name="idotless" format="2">
  <advance width="327.0"/>
  <unicode hex="0131"/>
  <anchor x="164.0" y="0.0" name="bottom"/>
  <anchor x="294.0" y="10.0" name="ogonek"/>
  <anchor x="164.0" y="500.0" name="top"/>
  <outline>
    <contour>
      <point x="41.0" y="65.0" type="curve"/>
      <point x="41.0" y="0.0" type="line"/>
      <point x="303.0" y="0.0" type="line"/>
      <point x="303.0" y="76.0" type="line"/>
      <point x="289.0" y="76.0"/>
      <point x="259.0" y="75.0"/>
      <point x="238.0" y="73.0" type="curve"/>
      <point x="241.0" y="103.0"/>
      <point x="242.0" y="142.0"/>
      <point x="242.0" y="161.0" type="curve" smooth="yes"/>
      <point x="242.0" y="510.0" type="line"/>
      <point x="188.0" y="510.0" type="line"/>
      <point x="174.0" y="497.0"/>
      <point x="126.0" y="480.0"/>
      <point x="34.0" y="480.0" type="curve"/>
      <point x="34.0" y="404.0" type="line"/>
      <point x="48.0" y="405.0"/>
      <point x="83.0" y="406.0"/>
      <point x="104.0" y="407.0" type="curve"/>
      <point x="101.0" y="377.0"/>
      <point x="100.0" y="344.0"/>
      <point x="100.0" y="320.0" type="curve" smooth="yes"/>
      <point x="100.0" y="154.0" type="line" smooth="yes"/>
      <point x="100.0" y="101.0"/>
      <point x="96.0" y="65.0"/>
    </contour>
  </outline>
</glyph>
<glyph name="Lcaron" format="2">
  <advance width="604.0"/>
  <unicode hex="013D"/>
  <outline>
    <contour>
      <point x="50.0" y="0.0" type="line"/>
      <point x="583.0" y="0.0" type="line"/>
      <point x="589.0" y="240.0" type="line"/>
      <point x="522.0" y="240.0" type="line"/>
      <point x="522.0" y="131.0"/>
      <point x="475.0" y="77.0"/>
      <point x="396.0" y="76.0" type="curve" smooth="yes"/>
      <point x="262.0" y="76.0" type="line"/>
      <point x="264.0" y="93.0"/>
      <point x="266.0" y="128.0"/>
      <point x="266.0" y="164.0" type="curve" smooth="yes"/>
      <point x="266.0" y="547.0" type="line" smooth="yes"/>
      <point x="266.0" y="628.0"/>
      <point x="292.0" y="632.0"/>
      <point x="337.0" y="634.0" type="curve"/>
      <point x="337.0" y="700.0" type="line"/>
      <point x="50.0" y="700.0" type="line"/>
      <point x="50.0" y="623.0" type="line"/>
      <point x="64.0" y="624.0"/>
      <point x="104.0" y="625.0"/>
      <point x="125.0" y="626.0" type="curve"/>
      <point x="123.0" y="609.0"/>
      <point x="121.0" y="572.0"/>
      <point x="121.0" y="536.0" type="curve" smooth="yes"/>
      <point x="121.0" y="153.0" type="line" smooth="yes"/>
      <point x="121.0" y="72.0"/>
      <point x="95.0" y="68.0"/>
      <point x="50.0" y="66.0" type="curve"/>
    </contour>
    <contour>
      <point x="451.0" y="475.0" type="line"/>
      <point x="496.0" y="519.0"/>
      <point x="536.0" y="577.0"/>
      <point x="541.0" y="633.0" type="curve" smooth="yes"/>
      <point x="544.0" y="659.0"/>
      <point x="541.0" y="674.0"/>
      <point x="528.0" y="700.0" type="curve"/>
      <point x="439.0" y="717.0" type="line"/>
      <point x="456.0" y="653.0"/>
      <point x="461.0" y="594.0"/>
      <point x="412.0" y="504.0" type="curve"/>
    </contour>
  </outline>
</glyph>
<glyph name="Lslash" format="2">
  <advance width="605"/>
  <unicode hex="0141"/>
  <anchor x="348" y="0" name="bottom"/>
  <anchor x="205" y="700" name="top"/>
  <outline>
    <contour>
      <point x="45" y="177" type="line"/>
      <point x="436" y="469" type="line"/>
      <point x="436" y="582" type="line"/>
      <point x="45" y="292" type="line"/>
    </contour>
    <component base="L"/>
  </outline>
</glyph>
<glyph name="lslash" format="2">
  <advance width="334"/>
  <unicode hex="0142"/>
  <anchor x="214" y="0" name="bottom"/>
  <anchor x="176" y="700" name="top"/>
  <anchor x="322" y="500" name="topright"/>
  <outline>
    <contour>
      <point x="17" y="201" type="line"/>
      <point x="339" y="431" type="line"/>
      <point x="339" y="541" type="line"/>
      <point x="17" y="314" type="line"/>
    </contour>
    <component base="l" xOffset="20"/>
  </outline>
</glyph>
<glyph name="OE" format="2">
  <advance width="1028.0"/>
  <unicode hex="0152"/>
  <outline>
    <contour>
      <point x="794.0" y="241.0" type="curve"/>
      <point x="860.0" y="241.0" type="line"/>
      <point x="860.0" y="484.0" type="line"/>
      <point x="783.0" y="484.0" type="line"/>
      <point x="784.0" y="459.0"/>
      <point x="785.0" y="425.0"/>
      <point x="787.0" y="397.0" type="curve"/>
      <point x="669.0" y="397.0" type="line"/>
      <point x="669.0" y="547.0" type="line" smooth="yes"/>
      <point x="669.0" y="625.0"/>
      <point x="694.0" y="633.0"/>
      <point x="736.0" y="634.0" type="curve" smooth="yes"/>
      <point x="772.0" y="635.0" type="line" smooth="yes"/>
      <point x="827.0" y="637.0"/>
      <point x="894.0" y="615.0"/>
      <point x="894.0" y="506.0" type="curve"/>
      <point x="960.0" y="506.0" type="line"/>
      <point x="954.0" y="700.0" type="line"/>
      <point x="525.0" y="700.0" type="line"/>
      <point x="483.0" y="711.0"/>
      <point x="433.0" y="716.0"/>
      <point x="396.0" y="716.0" type="curve" smooth="yes"/>
      <point x="141.0" y="716.0"/>
      <point x="36.0" y="520.0"/>
      <point x="36.0" y="337.0" type="curve" smooth="yes"/>
      <point x="36.0" y="139.0"/>
      <point x="172.0" y="-12.0"/>
      <point x="378.0" y="-16.0" type="curve" smooth="yes"/>
      <point x="422.0" y="-17.0"/>
      <point x="477.0" y="-14.0"/>
      <point x="525.0" y="0.0" type="curve"/>
      <point x="981.0" y="0.0" type="line"/>
      <point x="987.0" y="220.0" type="line"/>
      <point x="921.0" y="220.0" type="line"/>
      <point x="921.0" y="112.0"/>
      <point x="859.0" y="76.0"/>
      <point x="800.0" y="76.0" type="curve" smooth="yes"/>
      <point x="666.0" y="76.0" type="line"/>
      <point x="668.0" y="93.0"/>
      <point x="669.0" y="128.0"/>
      <point x="669.0" y="164.0" type="curve" smooth="yes"/>
      <point x="669.0" y="328.0" type="line"/>
      <point x="696.0" y="329.0" type="line" smooth="yes"/>
      <point x="750.0" y="330.0"/>
      <point x="794.0" y="325.0"/>
    </contour>
    <contour>
      <point x="525.0" y="611.0" type="curve"/>
      <point x="525.0" y="82.0" type="line"/>
      <point x="489.0" y="67.0"/>
      <point x="449.0" y="62.0"/>
      <point x="403.0" y="65.0" type="curve" smooth="yes"/>
      <point x="268.0" y="75.0"/>
      <point x="193.0" y="188.0"/>
      <point x="193.0" y="360.0" type="curve" smooth="yes"/>
      <point x="193.0" y="504.0"/>
      <point x="255.0" y="644.0"/>
      <point x="395.0" y="644.0" type="curve" smooth="yes"/>
      <point x="444.0" y="644.0"/>
      <point x="490.0" y="634.0"/>
    </contour>
  </outline>
</glyph>
<glyph name="oe" format="2">
  <advance width="888.0"/>
  <unicode hex="0153"/>
  <outline>
    <contour>
      <point x="286.0" y="-16.0" type="curve" smooth="yes"/>
      <point x="353.0" y="-16.0"/>
      <point x="413.0" y="12.0"/>
      <point x="454.0" y="62.0" type="curve"/>
      <point x="455.0" y="62.0" type="line"/>
      <point x="493.0" y="12.0"/>
      <point x="559.0" y="-16.0"/>
      <point x="628.0" y="-16.0" type="curve" smooth="yes"/>
      <point x="696.0" y="-16.0"/>
      <point x="789.0" y="3.0"/>
      <point x="861.0" y="106.0" type="curve"/>
      <point x="816.0" y="148.0" type="line"/>
      <point x="770.0" y="92.0"/>
      <point x="709.0" y="73.0"/>
      <point x="669.0" y="73.0" type="curve" smooth="yes"/>
      <point x="560.0" y="73.0"/>
      <point x="523.0" y="167.0"/>
      <point x="523.0" y="263.0" type="curve"/>
      <point x="853.0" y="269.0" type="line"/>
      <point x="854.0" y="458.0"/>
      <point x="742.0" y="516.0"/>
      <point x="633.0" y="516.0" type="curve" smooth="yes"/>
      <point x="549.0" y="516.0"/>
      <point x="504.0" y="483.0"/>
      <point x="461.0" y="435.0" type="curve"/>
      <point x="459.0" y="435.0" type="line"/>
      <point x="418.0" y="486.0"/>
      <point x="374.0" y="516.0"/>
      <point x="283.0" y="516.0" type="curve" smooth="yes"/>
      <point x="146.0" y="516.0"/>
      <point x="31.0" y="405.0"/>
      <point x="31.0" y="239.0" type="curve" smooth="yes"/>
      <point x="31.0" y="82.0"/>
      <point x="141.0" y="-16.0"/>
    </contour>
    <contour>
      <point x="290.0" y="55.0" type="curve" smooth="yes"/>
      <point x="208.0" y="53.0"/>
      <point x="178.0" y="164.0"/>
      <point x="178.0" y="266.0" type="curve" smooth="yes"/>
      <point x="178.0" y="353.0"/>
      <point x="203.0" y="444.0"/>
      <point x="281.0" y="446.0" type="curve" smooth="yes"/>
      <point x="362.0" y="448.0"/>
      <point x="385.0" y="333.0"/>
      <point x="387.0" y="249.0" type="curve" smooth="yes"/>
      <point x="389.0" y="172.0"/>
      <point x="379.0" y="56.0"/>
    </contour>
    <contour>
      <point x="531.0" y="333.0" type="line"/>
      <point x="541.0" y="400.0"/>
      <point x="573.0" y="446.0"/>
      <point x="632.0" y="446.0" type="curve" smooth="yes"/>
      <point x="679.0" y="446.0"/>
      <point x="712.0" y="416.0"/>
      <point x="715.0" y="333.0" type="curve"/>
    </contour>
  </outline>
</glyph>
<glyph name="Tbar" format="2">
  <advance width="650"/>
  <unicode hex="0166"/>
  <anchor x="321" y="0" name="bottom"/>
  <anchor x="325" y="350" name="center"/>
  <anchor x="325" y="700" name="top"/>
  <outline>
    <contour>
      <point x="120" y="311" type="line"/>
      <point x="525" y="315" type="line"/>
      <point x="525" y="364" type="line"/>
      <point x="120" y="364" type="line"/>
    </contour>
    <component base="T"/>
  </outline>
</glyph>
<glyph name="tbar" format="2">
  <advance width="413"/>
  <unicode hex="0167"/>
  <anchor x="247" y="0" name="bottom"/>
  <anchor x="207" y="250" name="center"/>
  <outline>
    <contour>
      <point x="31" y="275" type="line"/>
      <point x="346" y="279" type="line"/>
      <point x="346" y="328" type="line"/>
      <point x="31" y="328" type="line"/>
    </contour>
    <component base="t"/>
  </outline>
</glyph>
<glyph name="longs" format="2">
  <advance width="369.0"/>
  <unicode hex="017F"/>
  <outline>
    <contour>
      <point x="43.0" y="0.0" type="line"/>
      <point x="310.0" y="0.0" type="line"/>
      <point x="310.0" y="76.0" type="line"/>
      <point x="296.0" y="76.0"/>
      <point x="262.0" y="75.0"/>
      <point x="240.0" y="73.0" type="curve"/>
      <point x="243.0" y="103.0"/>
      <point x="244.0" y="144.0"/>
      <point x="244.0" y="163.0" type="curve"/>
      <point x="242.0" y="623.0" type="line"/>
      <point x="242.0" y="652.0"/>
      <point x="249.0" y="684.0"/>
      <point x="282.0" y="685.0" type="curve" smooth="yes"/>
      <point x="288.0" y="685.0"/>
      <point x="298.0" y="684.0"/>
      <point x="305.0" y="677.0" type="curve"/>
      <point x="303.0" y="670.0"/>
      <point x="303.0" y="664.0"/>
      <point x="303.0" y="657.0" type="curve" smooth="yes"/>
      <point x="303.0" y="623.0"/>
      <point x="325.0" y="599.0"/>
      <point x="364.0" y="600.0" type="curve" smooth="yes"/>
      <point x="404.0" y="601.0"/>
      <point x="426.0" y="632.0"/>
      <point x="426.0" y="667.0" type="curve" smooth="yes"/>
      <point x="426.0" y="708.0"/>
      <point x="393.0" y="755.0"/>
      <point x="299.0" y="755.0" type="curve" smooth="yes"/>
      <point x="179.0" y="755.0"/>
      <point x="103.0" y="690.0"/>
      <point x="103.0" y="529.0" type="curve" smooth="yes"/>
      <point x="103.0" y="500.0" type="line"/>
      <point x="30.0" y="500.0" type="line"/>
      <point x="30.0" y="417.0" type="line"/>
      <point x="103.0" y="418.0" type="line"/>
      <point x="103.0" y="154.0" type="line" smooth="yes"/>
      <point x="103.0" y="101.0"/>
      <point x="99.0" y="65.0"/>
      <point x="43.0" y="65.0" type="curve"/>
    </contour>
  </outline>
</glyph>
<glyph name="florin" format="2">
  <advance width="363.0"/>
  <unicode hex="0192"/>
  <outline>
    <contour>
      <point x="1.0" y="-271.0" type="curve" smooth="yes"/>
      <point x="169.0" y="-271.0"/>
      <point x="200.0" y="-56.0"/>
      <point x="213.0" y="151.0" type="curve" smooth="yes"/>
      <point x="222.0" y="275.0"/>
      <point x="225.0" y="346.0"/>
      <point x="229.0" y="420.0" type="curve"/>
      <point x="362.0" y="423.0" type="line"/>
      <point x="362.0" y="500.0" type="line"/>
      <point x="234.0" y="500.0" type="line"/>
      <point x="240.0" y="581.0"/>
      <point x="244.0" y="687.0"/>
      <point x="285.0" y="687.0" type="curve" smooth="yes"/>
      <point x="292.0" y="687.0"/>
      <point x="298.0" y="685.0"/>
      <point x="303.0" y="682.0" type="curve"/>
      <point x="295.0" y="639.0"/>
      <point x="322.0" y="605.0"/>
      <point x="362.0" y="605.0" type="curve" smooth="yes"/>
      <point x="399.0" y="605.0"/>
      <point x="423.0" y="637.0"/>
      <point x="423.0" y="672.0" type="curve" smooth="yes"/>
      <point x="423.0" y="711.0"/>
      <point x="393.0" y="760.0"/>
      <point x="310.0" y="760.0" type="curve" smooth="yes"/>
      <point x="181.0" y="760.0"/>
      <point x="136.0" y="638.0"/>
      <point x="116.0" y="500.0" type="curve"/>
      <point x="23.0" y="500.0" type="line"/>
      <point x="23.0" y="417.0" type="line"/>
      <point x="107.0" y="418.0" type="line"/>
      <point x="101.0" y="389.0"/>
      <point x="94.0" y="218.0"/>
      <point x="90.0" y="140.0" type="curve" smooth="yes"/>
      <point x="81.0" y="5.0"/>
      <point x="77.0" y="-198.0"/>
      <point x="25.0" y="-198.0" type="curve" smooth="yes"/>
      <point x="19.0" y="-198.0"/>
      <point x="13.0" y="-196.0"/>
      <point x="7.0" y="-193.0" type="curve"/>
      <point x="15.0" y="-150.0"/>
      <point x="-11.0" y="-116.0"/>
      <point x="-51.0" y="-116.0" type="curve" smooth="yes"/>
      <point x="-89.0" y="-116.0"/>
      <point x="-113.0" y="-148.0"/>
      <point x="-113.0" y="-183.0" type="curve" smooth="yes"/>
      <point x="-113.0" y="-223.0"/>
      <point x="-83.0" y="-271.0"/>
    </contour>
  </outline>
</glyph>
<glyph name="Uhorn" format="2">
  <advance width="760.0"/>
  <unicode hex="01AF"/>
  <anchor x="380.0" y="0.0" name="bottom"/>
  <anchor x="509.0" y="5.0" name="ogonek"/>
  <anchor x="385.0" y="700.0" name="top"/>
  <anchor x="718.0" y="700.0" name="topright"/>
  <outline>
    <contour>
      <point x="313.0" y="634.0" type="curve"/>
      <point x="313.0" y="700.0" type="line"/>
      <point x="26.0" y="700.0" type="line"/>
      <point x="26.0" y="623.0" type="line"/>
      <point x="40.0" y="624.0"/>
      <point x="80.0" y="625.0"/>
      <point x="101.0" y="626.0" type="curve"/>
      <point x="99.0" y="609.0"/>
      <point x="97.0" y="572.0"/>
      <point x="97.0" y="536.0" type="curve" smooth="yes"/>
      <point x="97.0" y="294.0" type="line" smooth="yes"/>
      <point x="97.0" y="123.0"/>
      <point x="160.0" y="-16.0"/>
      <point x="385.0" y="-16.0" type="curve" smooth="yes"/>
      <point x="545.0" y="-16.0"/>
      <point x="665.0" y="67.0"/>
      <point x="665.0" y="297.0" type="curve" smooth="yes"/>
      <point x="666.0" y="700.0" type="line"/>
      <point x="504.0" y="700.0" type="line"/>
      <point x="504.0" y="623.0" type="line"/>
      <point x="519.0" y="624.0"/>
      <point x="558.0" y="625.0"/>
      <point x="580.0" y="626.0" type="curve"/>
      <point x="577.0" y="609.0"/>
      <point x="576.0" y="572.0"/>
      <point x="576.0" y="536.0" type="curve" smooth="yes"/>
      <point x="576.0" y="274.0" type="line" smooth="yes"/>
      <point x="576.0" y="126.0"/>
      <point x="511.0" y="56.0"/>
      <point x="401.0" y="60.0" type="curve" smooth="yes"/>
      <point x="320.0" y="63.0"/>
      <point x="242.0" y="105.0"/>
      <point x="242.0" y="272.0" type="curve" smooth="yes"/>
      <point x="242.0" y="547.0" type="line" smooth="yes"/>
      <point x="242.0" y="628.0"/>
      <point x="269.0" y="632.0"/>
    </contour>
    <component base="horncomb" xOffset="406.0" yOffset="200.0"/>
  </outline>
</glyph>
<glyph name="Gstroke" format="2">
  <advance width="754"/>
  <unicode hex="01E4"/>
  <anchor x="433" y="0" name="bottom"/>
  <anchor x="387" y="700" name="top"/>
  <outline>
    <contour>
      <point x="447" y="185" type="line"/>
      <point x="752" y="189" type="line"/>
      <point x="752" y="228" type="line"/>
      <point x="447" y="228" type="line"/>
    </contour>
    <component base="G"/>
  </outline>
</glyph>
<glyph name="gstroke" format="2">
  <advance width="581.0"/>
  <unicode hex="01E5"/>
  <outline>
    <contour>
      <point x="256.0" y="-115.0" type="line"/>
      <point x="561.0" y="-111.0" type="line"/>
      <point x="561.0" y="-62.0" type="line"/>
      <point x="256.0" y="-62.0" type="line"/>
    </contour>
    <component base="de-cy.loclBGR"/>
  </outline>
</glyph>
<glyph name="jdotless" format="2">
  <advance width="284.0"/>
  <unicode hex="0237"/>
  <anchor x="284.0" y="-276.0" name="bottom"/>
  <anchor x="159.0" y="500.0" name="top"/>
  <outline>
    <contour>
      <point x="21.0" y="-271.0" type="curve" smooth="yes"/>
      <point x="141.0" y="-271.0"/>
      <point x="232.0" y="-183.0"/>
      <point x="232.0" y="2.0" type="curve" smooth="yes"/>
      <point x="232.0" y="510.0" type="line"/>
      <point x="178.0" y="510.0" type="line"/>
      <point x="164.0" y="497.0"/>
      <point x="117.0" y="480.0"/>
      <point x="24.0" y="480.0" type="curve"/>
      <point x="24.0" y="404.0" type="line"/>
      <point x="38.0" y="405.0"/>
      <point x="73.0" y="406.0"/>
      <point x="94.0" y="407.0" type="curve"/>
      <point x="91.0" y="377.0"/>
      <point x="90.0" y="344.0"/>
      <point x="90.0" y="320.0" type="curve" smooth="yes"/>
      <point x="93.0" y="-126.0" type="line" smooth="yes"/>
      <point x="93.0" y="-155.0"/>
      <point x="88.0" y="-201.0"/>
      <point x="51.0" y="-201.0" type="curve" smooth="yes"/>
      <point x="46.0" y="-201.0"/>
      <point x="37.0" y="-199.0"/>
      <point x="34.0" y="-197.0" type="curve"/>
      <point x="35.0" y="-191.0"/>
      <point x="36.0" y="-185.0"/>
      <point x="36.0" y="-180.0" type="curve" smooth="yes"/>
      <point x="36.0" y="-145.0"/>
      <point x="11.0" y="-120.0"/>
      <point x="-25.0" y="-121.0" type="curve" smooth="yes"/>
      <point x="-65.0" y="-122.0"/>
      <point x="-88.0" y="-154.0"/>
      <point x="-88.0" y="-189.0" type="curve" smooth="yes"/>
      <point x="-88.0" y="-230.0"/>
      <point x="-54.0" y="-271.0"/>
    </contour>
  </outline>
</glyph>
<glyph name="schwa" format="2">
  <advance width="538.0"/>
  <unicode hex="0259"/>
  <outline>
    <contour>
      <point x="249.0" y="-16.0" type="curve" smooth="yes"/>
      <point x="408.0" y="-16.0"/>
      <point x="507.0" y="111.0"/>
      <point x="507.0" y="263.0" type="curve" smooth="yes"/>
      <point x="507.0" y="413.0"/>
      <point x="411.0" y="516.0"/>
      <point x="265.0" y="516.0" type="curve" smooth="yes"/>
      <point x="202.0" y="516.0"/>
      <point x="109.0" y="497.0"/>
      <point x="37.0" y="394.0" type="curve"/>
      <point x="82.0" y="352.0" type="line"/>
      <point x="128.0" y="408.0"/>
      <point x="189.0" y="427.0"/>
      <point x="234.0" y="427.0" type="curve" smooth="yes"/>
      <point x="326.0" y="427.0"/>
      <point x="360.0" y="346.0"/>
      <point x="360.0" y="237.0" type="curve"/>
      <point x="32.0" y="231.0" type="line"/>
      <point x="30.0" y="38.0"/>
      <point x="146.0" y="-16.0"/>
    </contour>
    <contour>
      <point x="252.0" y="54.0" type="curve" smooth="yes"/>
      <point x="205.0" y="54.0"/>
      <point x="172.0" y="84.0"/>
      <point x="170.0" y="167.0" type="curve"/>
      <point x="354.0" y="167.0" type="line"/>
      <point x="344.0" y="100.0"/>
      <point x="311.0" y="54.0"/>
    </contour>
  </outline>
</glyph>
<glyph name="circumflex" format="2">
  <advance width="429.0"/>
  <unicode hex="02C6"/>
  <anchor x="215.0" y="500.0" name="_top"/>
  <outline>
    <contour>
      <point x="342.0" y="562.0" type="line"/>
      <point x="385.0" y="613.0" type="line"/>
      <point x="225.0" y="783.0" type="line"/>
      <point x="215.0" y="783.0" type="line"/>
      <point x="44.0" y="617.0" type="line"/>
      <point x="86.0" y="569.0" type="line"/>
      <point x="214.0" y="667.0" type="line"/>
      <point x="215.0" y="667.0" type="line"/>
    </contour>
  </outline>
</glyph>
<glyph name="ring" format="2">
  <advance width="358.0"/>
  <unicode hex="02DA"/>
  <anchor x="179.0" y="500.0" name="_top"/>
  <outline>
    <contour>
      <point x="180.0" y="563.0" type="curve" smooth="yes"/>
      <point x="238.0" y="563.0"/>
      <point x="299.0" y="610.0"/>
      <point x="297.0" y="685.0" type="curve" smooth="yes"/>
      <point x="295.0" y="760.0"/>
      <point x="235.0" y="795.0"/>
      <point x="179.0" y="795.0" type="curve" smooth="yes"/>
      <point x="116.0" y="795.0"/>
      <point x="59.0" y="743.0"/>
      <point x="61.0" y="674.0" type="curve" smooth="yes"/>
      <point x="64.0" y="603.0"/>
      <point x="125.0" y="563.0"/>
    </contour>
    <contour>
      <point x="185.0" y="624.0" type="curve" smooth="yes"/>
      <point x="161.0" y="624.0"/>
      <point x="144.0" y="645.0"/>
      <point x="144.0" y="687.0" type="curve" smooth="yes"/>
      <point x="144.0" y="720.0"/>
      <point x="161.0" y="734.0"/>
      <point x="178.0" y="735.0" type="curve" smooth="yes"/>
      <point x="200.0" y="735.0"/>
      <point x="218.0" y="717.0"/>
      <point x="218.0" y="672.0" type="curve" smooth="yes"/>
      <point x="218.0" y="641.0"/>
      <point x="202.0" y="625.0"/>
    </contour>
  </outline>
</glyph>
<glyph name="hookabovecomb" format="2">
  <unicode hex="0309"/>
  <anchor x="292.0" y="500.0" name="_top"/>
  <anchor x="292.0" y="770.0" name="top"/>
  <outline>
    <contour>
      <point x="272.0" y="559.0" type="curve"/>
      <point x="334.0" y="559.0" type="line"/>
      <point x="334.0" y="571.0"/>
      <point x="345.0" y="585.0"/>
      <point x="361.0" y="598.0" type="curve" smooth="yes"/>
      <point x="382.0" y="611.0"/>
      <point x="403.0" y="628.0"/>
      <point x="403.0" y="664.0" type="curve" smooth="yes"/>
      <point x="403.0" y="721.0"/>
      <point x="357.0" y="757.0"/>
      <point x="278.0" y="757.0" type="curve" smooth="yes"/>
      <point x="207.0" y="757.0"/>
      <point x="166.0" y="708.0"/>
      <point x="166.0" y="663.0" type="curve" smooth="yes"/>
      <point x="166.0" y="635.0"/>
      <point x="187.0" y="612.0"/>
      <point x="218.0" y="612.0" type="curve" smooth="yes"/>
      <point x="241.0" y="612.0"/>
      <point x="253.0" y="628.0"/>
      <point x="253.0" y="643.0" type="curve" smooth="yes"/>
      <point x="253.0" y="657.0"/>
      <point x="243.0" y="670.0"/>
      <point x="223.0" y="670.0" type="curve"/>
      <point x="225.0" y="679.0"/>
      <point x="240.0" y="697.0"/>
      <point x="278.0" y="697.0" type="curve" smooth="yes"/>
      <point x="306.0" y="697.0"/>
      <point x="328.0" y="683.0"/>
      <point x="328.0" y="655.0" type="curve" smooth="yes"/>
      <point x="328.0" y="638.0"/>
      <point x="320.0" y="626.0"/>
      <point x="311.0" y="616.0" type="curve" smooth="yes"/>
      <point x="294.0" y="599.0"/>
      <point x="272.0" y="587.0"/>
    </contour>
  </outline>
</glyph>
<glyph name="horncomb" format="2">
  <unicode hex="031B"/>
  <anchor x="312.0" y="500.0" name="_topright"/>
  <anchor x="312.0" y="500.0" name="topright"/>
  <outline>
    <contour>
      <point x="233.0" y="432.0" type="line"/>
      <point x="348.0" y="432.0"/>
      <point x="423.0" y="485.0"/>
      <point x="423.0" y="577.0" type="curve"/>
      <point x="314.0" y="577.0" type="line"/>
      <point x="314.0" y="540.0"/>
      <point x="283.0" y="497.0"/>
      <point x="233.0" y="497.0" type="curve"/>
    </contour>
  </outline>
</glyph>
<glyph name="commaaccentcomb" format="2">
  <unicode hex="0326"/>
  <anchor x="155.0" y="0.0" name="_bottom"/>
  <outline>
    <contour>
      <point x="122.0" y="-284.0" type="line"/>
      <point x="180.0" y="-230.0"/>
      <point x="221.0" y="-167.0"/>
      <point x="221.0" y="-108.0" type="curve"/>
      <point x="221.0" y="-84.0"/>
      <point x="214.0" y="-59.0"/>
      <point x="200.0" y="-36.0" type="curve"/>
      <point x="110.0" y="-54.0" type="line"/>
      <point x="128.0" y="-119.0"/>
      <point x="122.0" y="-172.0"/>
      <point x="77.0" y="-249.0" type="curve"/>
    </contour>
  </outline>
</glyph>
<glyph name="Delta" format="2">
  <advance width="697.0"/>
  <unicode hex="0394"/>
  <outline>
    <contour>
      <point x="29.0" y="0.0" type="line"/>
      <point x="670.0" y="0.0" type="line"/>
      <point x="380.0" y="716.0" type="line"/>
      <point x="302.0" y="716.0" type="line"/>
    </contour>
    <contour>
      <point x="511.0" y="70.0" type="line"/>
      <point x="133.0" y="71.0" type="line"/>
      <point x="316.0" y="561.0" type="line"/>
    </contour>
  </outline>
</glyph>
<glyph name="pi" format="2">
  <advance width="613.0"/>
  <unicode hex="03C0"/>
  <outline>
    <contour>
      <point x="92.0" y="-16.0" type="curve" smooth="yes"/>
      <point x="143.0" y="-16.0"/>
      <point x="180.0" y="18.0"/>
      <point x="201.0" y="80.0" type="curve" smooth="yes"/>
      <point x="224.0" y="146.0"/>
      <point x="225.0" y="292.0"/>
      <point x="225.0" y="398.0" type="curve"/>
      <point x="259.0" y="395.0"/>
      <point x="330.0" y="389.0"/>
      <point x="367.0" y="386.0" type="curve"/>
      <point x="367.0" y="332.0"/>
      <point x="366.0" y="205.0"/>
      <point x="365.0" y="136.0" type="curve" smooth="yes"/>
      <point x="365.0" y="82.0"/>
      <point x="367.0" y="-16.0"/>
      <point x="473.0" y="-16.0" type="curve" smooth="yes"/>
      <point x="521.0" y="-16.0"/>
      <point x="563.0" y="12.0"/>
      <point x="593.0" y="48.0" type="curve"/>
      <point x="563.0" y="92.0" type="line"/>
      <point x="553.0" y="87.0"/>
      <point x="543.0" y="83.0"/>
      <point x="534.0" y="83.0" type="curve" smooth="yes"/>
      <point x="516.0" y="83.0"/>
      <point x="502.0" y="96.0"/>
      <point x="502.0" y="136.0" type="curve" smooth="yes"/>
      <point x="502.0" y="222.0"/>
      <point x="503.0" y="312.0"/>
      <point x="503.0" y="398.0" type="curve"/>
      <point x="537.0" y="414.0"/>
      <point x="573.0" y="445.0"/>
      <point x="590.0" y="471.0" type="curve"/>
      <point x="553.0" y="521.0" type="line"/>
      <point x="510.0" y="499.0"/>
      <point x="477.0" y="494.0"/>
      <point x="450.0" y="494.0" type="curve" smooth="yes"/>
      <point x="339.0" y="494.0"/>
      <point x="282.0" y="511.0"/>
      <point x="183.0" y="511.0" type="curve" smooth="yes"/>
      <point x="116.0" y="511.0"/>
      <point x="61.0" y="469.0"/>
      <point x="25.0" y="426.0" type="curve"/>
      <point x="59.0" y="375.0" type="line"/>
      <point x="92.0" y="391.0"/>
      <point x="127.0" y="398.0"/>
      <point x="155.0" y="400.0" type="curve"/>
      <point x="155.0" y="300.0"/>
      <point x="153.0" y="139.0"/>
      <point x="125.0" y="104.0" type="curve"/>
      <point x="115.0" y="110.0"/>
      <point x="103.0" y="113.0"/>
      <point x="86.0" y="113.0" type="curve" smooth="yes"/>
      <point x="62.0" y="113.0"/>
      <point x="24.0" y="93.0"/>
      <point x="24.0" y="49.0" type="curve" smooth="yes"/>
      <point x="24.0" y="9.0"/>
      <point x="56.0" y="-16.0"/>
    </contour>
  </outline>
</glyph>
<glyph name="Lje-cy" format="2">
  <advance width="1035.0"/>
  <unicode hex="0409"/>
  <outline>
    <contour>
      <point x="140.0" y="-16.0" type="curve" smooth="yes"/>
      <point x="258.0" y="-16.0"/>
      <point x="364.0" y="132.0"/>
      <point x="374.0" y="563.0" type="curve" smooth="yes"/>
      <point x="375.0" y="607.0"/>
      <point x="396.0" y="621.0"/>
      <point x="441.0" y="622.0" type="curve" smooth="yes"/>
      <point x="522.0" y="624.0" type="line"/>
      <point x="522.0" y="153.0" type="line" smooth="yes"/>
      <point x="522.0" y="72.0"/>
      <point x="496.0" y="68.0"/>
      <point x="451.0" y="66.0" type="curve"/>
      <point x="451.0" y="0.0" type="line"/>
      <point x="767.0" y="0.0" type="line" smooth="yes"/>
      <point x="907.0" y="0.0"/>
      <point x="1010.0" y="69.0"/>
      <point x="1010.0" y="199.0" type="curve" smooth="yes"/>
      <point x="1010.0" y="305.0"/>
      <point x="961.0" y="418.0"/>
      <point x="722.0" y="409.0" type="curve" smooth="yes"/>
      <point x="667.0" y="407.0" type="line"/>
      <point x="667.0" y="547.0" type="line" smooth="yes"/>
      <point x="667.0" y="628.0"/>
      <point x="693.0" y="632.0"/>
      <point x="738.0" y="634.0" type="curve"/>
      <point x="738.0" y="700.0" type="line"/>
      <point x="185.0" y="700.0" type="line"/>
      <point x="185.0" y="623.0" type="line"/>
      <point x="275.0" y="625.0" type="line"/>
      <point x="300.0" y="626.0" type="line"/>
      <point x="297.0" y="510.0" type="line" smooth="yes"/>
      <point x="289.0" y="192.0"/>
      <point x="213.0" y="65.0"/>
      <point x="177.0" y="65.0" type="curve" smooth="yes"/>
      <point x="171.0" y="65.0"/>
      <point x="165.0" y="66.0"/>
      <point x="162.0" y="68.0" type="curve"/>
      <point x="168.0" y="76.0"/>
      <point x="170.0" y="83.0"/>
      <point x="170.0" y="96.0" type="curve" smooth="yes"/>
      <point x="170.0" y="132.0"/>
      <point x="150.0" y="161.0"/>
      <point x="103.0" y="161.0" type="curve" smooth="yes"/>
      <point x="46.0" y="161.0"/>
      <point x="21.0" y="120.0"/>
      <point x="21.0" y="73.0" type="curve" smooth="yes"/>
      <point x="21.0" y="16.0"/>
      <point x="68.0" y="-16.0"/>
    </contour>
    <contour>
      <point x="663.0" y="71.0" type="curve"/>
      <point x="665.0" y="88.0"/>
      <point x="667.0" y="123.0"/>
      <point x="667.0" y="159.0" type="curve" smooth="yes"/>
      <point x="667.0" y="335.0" type="line"/>
      <point x="686.0" y="337.0"/>
      <point x="704.0" y="337.0"/>
      <point x="723.0" y="337.0" type="curve" smooth="yes"/>
      <point x="798.0" y="337.0"/>
      <point x="852.0" y="306.0"/>
      <point x="852.0" y="207.0" type="curve" smooth="yes"/>
      <point x="852.0" y="128.0"/>
      <point x="817.0" y="76.0"/>
      <point x="736.0" y="72.0" type="curve" smooth="yes"/>
      <point x="712.0" y="71.0"/>
      <point x="687.0" y="71.0"/>
    </contour>
  </outline>
</glyph>
<glyph name="Nje-cy" format="2">
  <advance width="1054.0"/>
  <unicode hex="040A"/>
  <outline>
    <contour>
      <point x="50.0" y="0.0" type="line"/>
      <point x="337.0" y="0.0" type="line"/>
      <point x="337.0" y="77.0" type="line"/>
      <point x="323.0" y="77.0"/>
      <point x="283.0" y="76.0"/>
      <point x="262.0" y="74.0" type="curve"/>
      <point x="264.0" y="91.0"/>
      <point x="266.0" y="128.0"/>
      <point x="266.0" y="164.0" type="curve" smooth="yes"/>
      <point x="266.0" y="328.0" type="line"/>
      <point x="541.0" y="332.0" type="line"/>
      <point x="541.0" y="153.0" type="line" smooth="yes"/>
      <point x="541.0" y="72.0"/>
      <point x="515.0" y="68.0"/>
      <point x="470.0" y="66.0" type="curve"/>
      <point x="470.0" y="0.0" type="line"/>
      <point x="786.0" y="0.0" type="line" smooth="yes"/>
      <point x="926.0" y="0.0"/>
      <point x="1029.0" y="69.0"/>
      <point x="1029.0" y="199.0" type="curve" smooth="yes"/>
      <point x="1029.0" y="305.0"/>
      <point x="980.0" y="418.0"/>
      <point x="741.0" y="409.0" type="curve" smooth="yes"/>
      <point x="686.0" y="407.0" type="line"/>
      <point x="686.0" y="547.0" type="line" smooth="yes"/>
      <point x="686.0" y="628.0"/>
      <point x="712.0" y="632.0"/>
      <point x="757.0" y="634.0" type="curve"/>
      <point x="757.0" y="700.0" type="line"/>
      <point x="470.0" y="700.0" type="line"/>
      <point x="470.0" y="623.0" type="line"/>
      <point x="484.0" y="624.0"/>
      <point x="523.0" y="625.0"/>
      <point x="545.0" y="626.0" type="curve"/>
      <point x="542.0" y="609.0"/>
      <point x="541.0" y="572.0"/>
      <point x="541.0" y="536.0" type="curve" smooth="yes"/>
      <point x="541.0" y="407.0" type="line"/>
      <point x="266.0" y="407.0" type="line"/>
      <point x="266.0" y="547.0" type="line" smooth="yes"/>
      <point x="266.0" y="628.0"/>
      <point x="292.0" y="632.0"/>
      <point x="337.0" y="634.0" type="curve"/>
      <point x="337.0" y="700.0" type="line"/>
      <point x="50.0" y="700.0" type="line"/>
      <point x="50.0" y="623.0" type="line"/>
      <point x="64.0" y="624.0"/>
      <point x="104.0" y="625.0"/>
      <point x="125.0" y="626.0" type="curve"/>
      <point x="123.0" y="609.0"/>
      <point x="121.0" y="572.0"/>
      <point x="121.0" y="536.0" type="curve" smooth="yes"/>
      <point x="121.0" y="153.0" type="line" smooth="yes"/>
      <point x="121.0" y="72.0"/>
      <point x="95.0" y="68.0"/>
      <point x="50.0" y="66.0" type="curve"/>
    </contour>
    <contour>
      <point x="682.0" y="71.0" type="curve"/>
      <point x="684.0" y="88.0"/>
      <point x="686.0" y="123.0"/>
      <point x="686.0" y="159.0" type="curve" smooth="yes"/>
      <point x="686.0" y="335.0" type="line"/>
      <point x="705.0" y="337.0"/>
      <point x="723.0" y="337.0"/>
      <point x="742.0" y="337.0" type="curve" smooth="yes"/>
      <point x="817.0" y="337.0"/>
      <point x="871.0" y="306.0"/>
      <point x="871.0" y="207.0" type="curve" smooth="yes"/>
      <point x="871.0" y="128.0"/>
      <point x="836.0" y="76.0"/>
      <point x="755.0" y="72.0" type="curve" smooth="yes"/>
      <point x="731.0" y="71.0"/>
      <point x="706.0" y="71.0"/>
    </contour>
  </outline>
</glyph>
<glyph name="Dzhe-cy" format="2">
  <advance width="802"/>
  <unicode hex="040F"/>
  <anchor x="138" y="700" name="bottomright"/>
  <outline>
    <contour>
      <point x="382" y="-177" type="curve"/>
      <point x="455" y="-177" type="line"/>
      <point x="455" y="73" type="line"/>
      <point x="316" y="67" type="line"/>
      <point x="316" y="0" type="line"/>
      <point x="369" y="0"/>
      <point x="384" y="-73"/>
    </contour>
    <component base="Pe-cy" xScale="-1" yScale="-1" xOffset="802" yOffset="700"/>
  </outline>
</glyph>
<glyph name="Be-cy" format="2">
  <advance width="661.0"/>
  <unicode hex="0411"/>
  <outline>
    <contour>
      <point x="520.0" y="506.0" type="curve"/>
      <point x="585.0" y="506.0" type="line"/>
      <point x="580.0" y="700.0" type="line"/>
      <point x="50.0" y="700.0" type="line"/>
      <point x="50.0" y="623.0" type="line"/>
      <point x="64.0" y="624.0"/>
      <point x="104.0" y="625.0"/>
      <point x="125.0" y="626.0" type="curve"/>
      <point x="123.0" y="609.0"/>
      <point x="121.0" y="572.0"/>
      <point x="121.0" y="536.0" type="curve" smooth="yes"/>
      <point x="121.0" y="153.0" type="line" smooth="yes"/>
      <point x="121.0" y="72.0"/>
      <point x="95.0" y="68.0"/>
      <point x="50.0" y="66.0" type="curve"/>
      <point x="50.0" y="0.0" type="line"/>
      <point x="390.0" y="0.0" type="line" smooth="yes"/>
      <point x="530.0" y="0.0"/>
      <point x="633.0" y="70.0"/>
      <point x="633.0" y="203.0" type="curve" smooth="yes"/>
      <point x="633.0" y="315.0"/>
      <point x="587.0" y="416.0"/>
      <point x="326.0" y="409.0" type="curve" smooth="yes"/>
      <point x="266.0" y="407.0" type="line"/>
      <point x="266.0" y="547.0" type="line" smooth="yes"/>
      <point x="266.0" y="625.0"/>
      <point x="291.0" y="634.0"/>
      <point x="333.0" y="634.0" type="curve" smooth="yes"/>
      <point x="398.0" y="635.0" type="line" smooth="yes"/>
      <point x="452.0" y="636.0"/>
      <point x="520.0" y="615.0"/>
    </contour>
    <contour>
      <point x="266.0" y="159.0" type="curve" smooth="yes"/>
      <point x="266.0" y="336.0" type="line"/>
      <point x="292.0" y="338.0"/>
      <point x="313.0" y="337.0"/>
      <point x="347.0" y="337.0" type="curve" smooth="yes"/>
      <point x="411.0" y="337.0"/>
      <point x="476.0" y="310.0"/>
      <point x="476.0" y="207.0" type="curve" smooth="yes"/>
      <point x="476.0" y="130.0"/>
      <point x="440.0" y="76.0"/>
      <point x="359.0" y="72.0" type="curve" smooth="yes"/>
      <point x="328.0" y="71.0"/>
      <point x="297.0" y="71.0"/>
      <point x="262.0" y="71.0" type="curve"/>
      <point x="264.0" y="88.0"/>
      <point x="266.0" y="123.0"/>
    </contour>
  </outline>
</glyph>
<glyph name="Zhe-cy" format="2">
  <advance width="1037.0"/>
  <unicode hex="0416"/>
  <anchor x="-6.0" y="0.0" name="bottomright"/>
  <anchor x="516.0" y="700.0" name="top"/>
  <outline>
    <contour>
      <point x="1.0" y="0.0" type="line"/>
      <point x="156.0" y="0.0" type="line"/>
      <point x="172.0" y="1.0"/>
      <point x="226.0" y="63.0"/>
      <point x="253.0" y="102.0" type="curve" smooth="yes"/>
      <point x="352.0" y="246.0" type="line"/>
      <point x="370.0" y="271.0"/>
      <point x="392.0" y="302.0"/>
      <point x="411.0" y="315.0" type="curve"/>
      <point x="447.0" y="315.0" type="line"/>
      <point x="447.0" y="153.0" type="line" smooth="yes"/>
      <point x="447.0" y="72.0"/>
      <point x="420.0" y="68.0"/>
      <point x="375.0" y="66.0" type="curve"/>
      <point x="375.0" y="0.0" type="line"/>
      <point x="662.0" y="0.0" type="line"/>
      <point x="662.0" y="77.0" type="line"/>
      <point x="648.0" y="77.0"/>
      <point x="609.0" y="76.0"/>
      <point x="587.0" y="74.0" type="curve"/>
      <point x="590.0" y="91.0"/>
      <point x="591.0" y="128.0"/>
      <point x="591.0" y="164.0" type="curve" smooth="yes"/>
      <point x="591.0" y="315.0" type="line"/>
      <point x="627.0" y="315.0" type="line"/>
      <point x="645.0" y="302.0"/>
      <point x="667.0" y="271.0"/>
      <point x="686.0" y="246.0" type="curve"/>
      <point x="785.0" y="102.0" type="line" smooth="yes"/>
      <point x="811.0" y="63.0"/>
      <point x="866.0" y="1.0"/>
      <point x="882.0" y="0.0" type="curve"/>
      <point x="1036.0" y="0.0" type="line"/>
      <point x="1036.0" y="66.0" type="line"/>
      <point x="992.0" y="68.0"/>
      <point x="946.0" y="117.0"/>
      <point x="905.0" y="174.0" type="curve" smooth="yes"/>
      <point x="802.0" y="319.0" type="line" smooth="yes"/>
      <point x="786.0" y="341.0"/>
      <point x="766.0" y="361.0"/>
      <point x="740.0" y="378.0" type="curve"/>
      <point x="860.0" y="532.0" type="line" smooth="yes"/>
      <point x="924.0" y="614.0"/>
      <point x="970.0" y="632.0"/>
      <point x="1015.0" y="634.0" type="curve"/>
      <point x="1015.0" y="700.0" type="line"/>
      <point x="786.0" y="700.0" type="line"/>
      <point x="786.0" y="623.0" type="line"/>
      <point x="801.0" y="624.0"/>
      <point x="828.0" y="625.0"/>
      <point x="850.0" y="627.0" type="curve"/>
      <point x="832.0" y="612.0"/>
      <point x="820.0" y="596.0"/>
      <point x="766.0" y="526.0" type="curve" smooth="yes"/>
      <point x="665.0" y="395.0" type="line"/>
      <point x="591.0" y="395.0" type="line"/>
      <point x="591.0" y="547.0" type="line" smooth="yes"/>
      <point x="591.0" y="628.0"/>
      <point x="618.0" y="632.0"/>
      <point x="662.0" y="634.0" type="curve"/>
      <point x="662.0" y="700.0" type="line"/>
      <point x="375.0" y="700.0" type="line"/>
      <point x="375.0" y="623.0" type="line"/>
      <point x="390.0" y="624.0"/>
      <point x="429.0" y="625.0"/>
      <point x="451.0" y="626.0" type="curve"/>
      <point x="448.0" y="609.0"/>
      <point x="447.0" y="572.0"/>
      <point x="447.0" y="536.0" type="curve" smooth="yes"/>
      <point x="447.0" y="395.0" type="line"/>
      <point x="376.0" y="395.0" type="line"/>
      <point x="276.0" y="526.0" type="line" smooth="yes"/>
      <point x="238.0" y="575.0"/>
      <point x="208.0" y="613.0"/>
      <point x="191.0" y="626.0" type="curve"/>
      <point x="212.0" y="625.0"/>
      <point x="240.0" y="624.0"/>
      <point x="254.0" y="623.0" type="curve"/>
      <point x="254.0" y="700.0" type="line"/>
      <point x="23.0" y="700.0" type="line"/>
      <point x="23.0" y="634.0" type="line"/>
      <point x="68.0" y="632.0"/>
      <point x="113.0" y="614.0"/>
      <point x="178.0" y="532.0" type="curve" smooth="yes"/>
      <point x="298.0" y="377.0" type="line"/>
      <point x="272.0" y="361.0"/>
      <point x="251.0" y="341.0"/>
      <point x="236.0" y="319.0" type="curve" smooth="yes"/>
      <point x="133.0" y="174.0" type="line" smooth="yes"/>
      <point x="92.0" y="117.0"/>
      <point x="46.0" y="68.0"/>
      <point x="1.0" y="66.0" type="curve"/>
    </contour>
  </outline>
</glyph>
<glyph name="Ii-cy" format="2">
  <advance width="819.0"/>
  <unicode hex="0418"/>
  <guideline x="698.0" y="198.0" angle="90.0"/>
  <anchor x="698.0" y="0.0" name="bottomright"/>
  <anchor x="408.0" y="700.0" name="top"/>
  <outline>
    <contour>
      <point x="337.0" y="634.0" type="curve"/>
      <point x="337.0" y="700.0" type="line"/>
      <point x="50.0" y="700.0" type="line"/>
      <point x="50.0" y="623.0" type="line"/>
      <point x="64.0" y="624.0"/>
      <point x="104.0" y="625.0"/>
      <point x="125.0" y="626.0" type="curve"/>
      <point x="123.0" y="609.0"/>
      <point x="121.0" y="572.0"/>
      <point x="121.0" y="536.0" type="curve" smooth="yes"/>
      <point x="121.0" y="153.0" type="line" smooth="yes"/>
      <point x="121.0" y="72.0"/>
      <point x="95.0" y="68.0"/>
      <point x="50.0" y="66.0" type="curve"/>
      <point x="50.0" y="0.0" type="line"/>
      <point x="337.0" y="0.0" type="line"/>
      <point x="337.0" y="77.0" type="line"/>
      <point x="323.0" y="77.0"/>
      <point x="283.0" y="76.0"/>
      <point x="262.0" y="74.0" type="curve"/>
      <point x="264.0" y="91.0"/>
      <point x="266.0" y="128.0"/>
      <point x="266.0" y="164.0" type="curve" smooth="yes"/>
      <point x="266.0" y="547.0" type="line" smooth="yes"/>
      <point x="266.0" y="628.0"/>
      <point x="292.0" y="632.0"/>
    </contour>
    <contour>
      <point x="769.0" y="634.0" type="curve"/>
      <point x="769.0" y="700.0" type="line"/>
      <point x="482.0" y="700.0" type="line"/>
      <point x="482.0" y="623.0" type="line"/>
      <point x="496.0" y="624.0"/>
      <point x="536.0" y="625.0"/>
      <point x="557.0" y="626.0" type="curve"/>
      <point x="555.0" y="609.0"/>
      <point x="553.0" y="572.0"/>
      <point x="553.0" y="536.0" type="curve" smooth="yes"/>
      <point x="553.0" y="153.0" type="line" smooth="yes"/>
      <point x="553.0" y="72.0"/>
      <point x="527.0" y="68.0"/>
      <point x="482.0" y="66.0" type="curve"/>
      <point x="482.0" y="0.0" type="line"/>
      <point x="769.0" y="0.0" type="line"/>
      <point x="769.0" y="77.0" type="line"/>
      <point x="755.0" y="77.0"/>
      <point x="715.0" y="76.0"/>
      <point x="694.0" y="74.0" type="curve"/>
      <point x="696.0" y="91.0"/>
      <point x="698.0" y="128.0"/>
      <point x="698.0" y="164.0" type="curve" smooth="yes"/>
      <point x="698.0" y="547.0" type="line" smooth="yes"/>
      <point x="698.0" y="628.0"/>
      <point x="724.0" y="632.0"/>
    </contour>
    <contour>
      <point x="630.0" y="670.0" type="line"/>
      <point x="128.0" y="80.0" type="line"/>
      <point x="179.0" y="29.0" type="line"/>
      <point x="678.0" y="622.0" type="line"/>
    </contour>
  </outline>
</glyph>
<glyph name="El-cy" format="2">
  <advance width="787"/>
  <unicode hex="041B"/>
  <anchor x="666" y="0" name="bottomright"/>
  <outline>
    <contour>
      <point x="140" y="-16" type="curve" smooth="yes"/>
      <point x="258" y="-16"/>
      <point x="365" y="132"/>
      <point x="374" y="563" type="curve" smooth="yes"/>
      <point x="375" y="607"/>
      <point x="396" y="621"/>
      <point x="441" y="622" type="curve" smooth="yes"/>
      <point x="521" y="625" type="line"/>
      <point x="521" y="153" type="line" smooth="yes"/>
      <point x="521" y="72"/>
      <point x="495" y="68"/>
      <point x="450" y="66" type="curve"/>
      <point x="450" y="0" type="line"/>
      <point x="737" y="0" type="line"/>
      <point x="737" y="77" type="line"/>
      <point x="723" y="77"/>
      <point x="684" y="76"/>
      <point x="662" y="74" type="curve"/>
      <point x="665" y="91"/>
      <point x="666" y="128"/>
      <point x="666" y="164" type="curve" smooth="yes"/>
      <point x="666" y="547" type="line" smooth="yes"/>
      <point x="666" y="628"/>
      <point x="692" y="632"/>
      <point x="737" y="634" type="curve"/>
      <point x="737" y="700" type="line"/>
      <point x="185" y="700" type="line"/>
      <point x="185" y="623" type="line"/>
      <point x="275" y="625" type="line"/>
      <point x="300" y="626" type="line"/>
      <point x="297" y="510" type="line" smooth="yes"/>
      <point x="289" y="192"/>
      <point x="213" y="65"/>
      <point x="177" y="65" type="curve" smooth="yes"/>
      <point x="171" y="65"/>
      <point x="165" y="66"/>
      <point x="162" y="68" type="curve"/>
      <point x="168" y="76"/>
      <point x="170" y="83"/>
      <point x="170" y="96" type="curve" smooth="yes"/>
      <point x="170" y="132"/>
      <point x="150" y="161"/>
      <point x="103" y="161" type="curve" smooth="yes"/>
      <point x="46" y="161"/>
      <point x="21" y="120"/>
      <point x="21" y="73" type="curve" smooth="yes"/>
      <point x="21" y="16"/>
      <point x="68" y="-16"/>
    </contour>
  </outline>
</glyph>
<glyph name="Hardsign-cy" format="2">
  <advance width="764.0"/>
  <unicode hex="042A"/>
  <outline>
    <contour>
      <point x="180.0" y="0.0" type="line"/>
      <point x="496.0" y="0.0" type="line" smooth="yes"/>
      <point x="636.0" y="0.0"/>
      <point x="739.0" y="69.0"/>
      <point x="739.0" y="199.0" type="curve" smooth="yes"/>
      <point x="739.0" y="305.0"/>
      <point x="690.0" y="418.0"/>
      <point x="451.0" y="409.0" type="curve" smooth="yes"/>
      <point x="396.0" y="407.0" type="line"/>
      <point x="396.0" y="547.0" type="line" smooth="yes"/>
      <point x="396.0" y="628.0"/>
      <point x="422.0" y="632.0"/>
      <point x="467.0" y="634.0" type="curve"/>
      <point x="467.0" y="700.0" type="line"/>
      <point x="21.0" y="700.0" type="line"/>
      <point x="16.0" y="474.0" type="line"/>
      <point x="82.0" y="474.0" type="line"/>
      <point x="82.0" y="582.0"/>
      <point x="129.0" y="631.0"/>
      <point x="205.0" y="632.0" type="curve" smooth="yes"/>
      <point x="251.0" y="632.0" type="line"/>
      <point x="251.0" y="606.0"/>
      <point x="251.0" y="581.0"/>
      <point x="251.0" y="555.0" type="curve"/>
      <point x="251.0" y="153.0" type="line" smooth="yes"/>
      <point x="251.0" y="72.0"/>
      <point x="225.0" y="68.0"/>
      <point x="180.0" y="66.0" type="curve"/>
    </contour>
    <contour>
      <point x="392.0" y="71.0" type="curve"/>
      <point x="396.0" y="105.0"/>
      <point x="396.0" y="162.0"/>
      <point x="396.0" y="335.0" type="curve"/>
      <point x="415.0" y="337.0"/>
      <point x="433.0" y="337.0"/>
      <point x="452.0" y="337.0" type="curve" smooth="yes"/>
      <point x="527.0" y="337.0"/>
      <point x="581.0" y="306.0"/>
      <point x="581.0" y="207.0" type="curve" smooth="yes"/>
      <point x="581.0" y="128.0"/>
      <point x="546.0" y="76.0"/>
      <point x="465.0" y="72.0" type="curve" smooth="yes"/>
      <point x="441.0" y="71.0"/>
      <point x="416.0" y="71.0"/>
    </contour>
  </outline>
</glyph>
<glyph name="Softsign-cy" format="2">
  <advance width="634.0"/>
  <unicode hex="042C"/>
  <outline>
    <contour>
      <point x="337.0" y="634.0" type="curve"/>
      <point x="337.0" y="700.0" type="line"/>
      <point x="50.0" y="700.0" type="line"/>
      <point x="50.0" y="623.0" type="line"/>
      <point x="64.0" y="624.0"/>
      <point x="104.0" y="625.0"/>
      <point x="125.0" y="626.0" type="curve"/>
      <point x="123.0" y="609.0"/>
      <point x="121.0" y="572.0"/>
      <point x="121.0" y="536.0" type="curve" smooth="yes"/>
      <point x="121.0" y="153.0" type="line" smooth="yes"/>
      <point x="121.0" y="72.0"/>
      <point x="95.0" y="68.0"/>
      <point x="50.0" y="66.0" type="curve"/>
      <point x="50.0" y="0.0" type="line"/>
      <point x="366.0" y="0.0" type="line" smooth="yes"/>
      <point x="506.0" y="0.0"/>
      <point x="609.0" y="69.0"/>
      <point x="609.0" y="199.0" type="curve" smooth="yes"/>
      <point x="609.0" y="305.0"/>
      <point x="560.0" y="418.0"/>
      <point x="321.0" y="409.0" type="curve" smooth="yes"/>
      <point x="266.0" y="407.0" type="line"/>
      <point x="266.0" y="547.0" type="line" smooth="yes"/>
      <point x="266.0" y="628.0"/>
      <point x="292.0" y="632.0"/>
    </contour>
    <contour>
      <point x="266.0" y="159.0" type="curve" smooth="yes"/>
      <point x="266.0" y="335.0" type="line"/>
      <point x="285.0" y="337.0"/>
      <point x="303.0" y="337.0"/>
      <point x="322.0" y="337.0" type="curve" smooth="yes"/>
      <point x="397.0" y="337.0"/>
      <point x="451.0" y="306.0"/>
      <point x="451.0" y="207.0" type="curve" smooth="yes"/>
      <point x="451.0" y="128.0"/>
      <point x="416.0" y="76.0"/>
      <point x="335.0" y="72.0" type="curve" smooth="yes"/>
      <point x="311.0" y="71.0"/>
      <point x="286.0" y="71.0"/>
      <point x="262.0" y="71.0" type="curve"/>
      <point x="264.0" y="88.0"/>
      <point x="266.0" y="123.0"/>
    </contour>
  </outline>
</glyph>
<glyph name="Ereversed-cy" format="2">
  <advance width="689.0"/>
  <unicode hex="042D"/>
  <anchor x="326.0" y="700.0" name="top"/>
  <outline>
    <contour>
      <point x="306.0" y="-16.0" type="curve" smooth="yes"/>
      <point x="522.0" y="-16.0"/>
      <point x="654.0" y="161.0"/>
      <point x="654.0" y="360.0" type="curve" smooth="yes"/>
      <point x="654.0" y="542.0"/>
      <point x="550.0" y="716.0"/>
      <point x="317.0" y="716.0" type="curve" smooth="yes"/>
      <point x="257.0" y="716.0"/>
      <point x="188.0" y="697.0"/>
      <point x="135.0" y="663.0" type="curve"/>
      <point x="137.0" y="709.0" type="line"/>
      <point x="60.0" y="709.0" type="line"/>
      <point x="60.0" y="490.0" type="line"/>
      <point x="126.0" y="490.0" type="line"/>
      <point x="144.0" y="592.0"/>
      <point x="210.0" y="643.0"/>
      <point x="304.0" y="644.0" type="curve" smooth="yes"/>
      <point x="443.0" y="644.0"/>
      <point x="497.0" y="504.0"/>
      <point x="497.0" y="360.0" type="curve" smooth="yes"/>
      <point x="497.0" y="188.0"/>
      <point x="426.0" y="65.0"/>
      <point x="281.0" y="65.0" type="curve" smooth="yes"/>
      <point x="198.0" y="65.0"/>
      <point x="118.0" y="106.0"/>
      <point x="63.0" y="183.0" type="curve"/>
      <point x="15.0" y="139.0" type="line"/>
      <point x="113.0" y="4.0"/>
      <point x="223.0" y="-16.0"/>
    </contour>
    <contour>
      <point x="180.0" y="237.0" type="line"/>
      <point x="246.0" y="237.0" type="line"/>
      <point x="246.0" y="321.0"/>
      <point x="290.0" y="325.0"/>
      <point x="344.0" y="325.0" type="curve" smooth="yes"/>
      <point x="521.0" y="324.0" type="line"/>
      <point x="521.0" y="403.0" type="line"/>
      <point x="252.0" y="403.0" type="line"/>
      <point x="254.0" y="431.0"/>
      <point x="255.0" y="465.0"/>
      <point x="257.0" y="490.0" type="curve"/>
      <point x="180.0" y="490.0" type="line"/>
    </contour>
  </outline>
</glyph>
<glyph name="be-cy" format="2">
  <advance width="566.0"/>
  <unicode hex="0431"/>
  <outline>
    <contour>
      <point x="290.0" y="-16.0" type="curve" smooth="yes"/>
      <point x="432.0" y="-16.0"/>
      <point x="535.0" y="91.0"/>
      <point x="535.0" y="259.0" type="curve" smooth="yes"/>
      <point x="535.0" y="401.0"/>
      <point x="435.0" y="482.0"/>
      <point x="306.0" y="482.0" type="curve" smooth="yes"/>
      <point x="227.0" y="481.0"/>
      <point x="145.0" y="444.0"/>
      <point x="107.0" y="357.0" type="curve"/>
      <point x="103.0" y="357.0" type="line"/>
      <point x="118.0" y="482.0"/>
      <point x="168.0" y="555.0"/>
      <point x="235.0" y="577.0" type="curve" smooth="yes"/>
      <point x="315.0" y="603.0"/>
      <point x="361.0" y="591.0"/>
      <point x="413.0" y="606.0" type="curve" smooth="yes"/>
      <point x="457.0" y="624.0"/>
      <point x="472.0" y="652.0"/>
      <point x="494.0" y="754.0" type="curve"/>
      <point x="447.0" y="770.0" type="line"/>
      <point x="432.0" y="744.0"/>
      <point x="423.0" y="737.0"/>
      <point x="407.0" y="729.0" type="curve" smooth="yes"/>
      <point x="358.0" y="706.0"/>
      <point x="255.0" y="713.0"/>
      <point x="169.0" y="658.0" type="curve" smooth="yes"/>
      <point x="83.0" y="603.0"/>
      <point x="41.0" y="447.0"/>
      <point x="41.0" y="313.0" type="curve" smooth="yes"/>
      <point x="41.0" y="94.0"/>
      <point x="146.0" y="-16.0"/>
    </contour>
    <contour>
      <point x="290.0" y="55.0" type="curve" smooth="yes"/>
      <point x="218.0" y="53.0"/>
      <point x="183.0" y="164.0"/>
      <point x="183.0" y="266.0" type="curve" smooth="yes"/>
      <point x="183.0" y="336.0"/>
      <point x="213.0" y="410.0"/>
      <point x="281.0" y="412.0" type="curve" smooth="yes"/>
      <point x="362.0" y="414.0"/>
      <point x="387.0" y="315.0"/>
      <point x="387.0" y="234.0" type="curve" smooth="yes"/>
      <point x="387.0" y="149.0"/>
      <point x="369.0" y="56.0"/>
    </contour>
  </outline>
</glyph>
<glyph name="ze-cy" format="2">
  <advance width="526.0"/>
  <unicode hex="0437"/>
  <anchor x="263.0" y="0.0" name="bottom"/>
  <anchor x="262.0" y="500.0" name="top"/>
  <outline>
    <contour>
      <point x="259.0" y="-17.0" type="curve" smooth="yes"/>
      <point x="393.0" y="-18.0"/>
      <point x="494.0" y="37.0"/>
      <point x="494.0" y="138.0" type="curve" smooth="yes"/>
      <point x="494.0" y="207.0"/>
      <point x="453.0" y="255.0"/>
      <point x="370.0" y="275.0" type="curve"/>
      <point x="432.0" y="297.0"/>
      <point x="461.0" y="337.0"/>
      <point x="461.0" y="391.0" type="curve" smooth="yes"/>
      <point x="461.0" y="475.0"/>
      <point x="391.0" y="520.0"/>
      <point x="278.0" y="517.0" type="curve" smooth="yes"/>
      <point x="236.0" y="516.0"/>
      <point x="192.0" y="506.0"/>
      <point x="153.0" y="482.0" type="curve"/>
      <point x="153.0" y="511.0" type="line"/>
      <point x="77.0" y="511.0" type="line"/>
      <point x="77.0" y="334.0" type="line"/>
      <point x="141.0" y="334.0" type="line"/>
      <point x="153.0" y="430.0"/>
      <point x="213.0" y="453.0"/>
      <point x="252.0" y="453.0" type="curve" smooth="yes"/>
      <point x="291.0" y="453.0"/>
      <point x="333.0" y="434.0"/>
      <point x="333.0" y="375.0" type="curve" smooth="yes"/>
      <point x="333.0" y="337.0"/>
      <point x="317.0" y="295.0"/>
      <point x="252.0" y="295.0" type="curve" smooth="yes"/>
      <point x="194.0" y="295.0" type="line"/>
      <point x="194.0" y="233.0" type="line"/>
      <point x="271.0" y="233.0" type="line" smooth="yes"/>
      <point x="313.0" y="233.0"/>
      <point x="355.0" y="213.0"/>
      <point x="355.0" y="145.0" type="curve" smooth="yes"/>
      <point x="355.0" y="83.0"/>
      <point x="316.0" y="48.0"/>
      <point x="254.0" y="48.0" type="curve" smooth="yes"/>
      <point x="214.0" y="48.0"/>
      <point x="169.0" y="63.0"/>
      <point x="155.0" y="88.0" type="curve"/>
      <point x="167.0" y="101.0"/>
      <point x="173.0" y="120.0"/>
      <point x="173.0" y="131.0" type="curve" smooth="yes"/>
      <point x="173.0" y="159.0"/>
      <point x="155.0" y="196.0"/>
      <point x="111.0" y="196.0" type="curve" smooth="yes"/>
      <point x="66.0" y="196.0"/>
      <point x="42.0" y="161.0"/>
      <point x="42.0" y="120.0" type="curve" smooth="yes"/>
      <point x="42.0" y="51.0"/>
      <point x="120.0" y="-15.0"/>
    </contour>
  </outline>
</glyph>
<glyph name="ii-cy" format="2">
  <advance width="658.0"/>
  <unicode hex="0438"/>
  <anchor x="535.0" y="0.0" name="bottomright"/>
  <anchor x="329.0" y="500.0" name="top"/>
  <outline>
    <contour>
      <point x="301.0" y="435.0" type="curve"/>
      <point x="301.0" y="500.0" type="line"/>
      <point x="39.0" y="500.0" type="line"/>
      <point x="39.0" y="424.0" type="line"/>
      <point x="53.0" y="424.0"/>
      <point x="83.0" y="425.0"/>
      <point x="104.0" y="427.0" type="curve"/>
      <point x="101.0" y="397.0"/>
      <point x="100.0" y="358.0"/>
      <point x="100.0" y="339.0" type="curve" smooth="yes"/>
      <point x="100.0" y="154.0" type="line" smooth="yes"/>
      <point x="100.0" y="101.0"/>
      <point x="96.0" y="65.0"/>
      <point x="41.0" y="65.0" type="curve"/>
      <point x="41.0" y="0.0" type="line"/>
      <point x="303.0" y="0.0" type="line"/>
      <point x="303.0" y="76.0" type="line"/>
      <point x="289.0" y="76.0"/>
      <point x="259.0" y="75.0"/>
      <point x="238.0" y="73.0" type="curve"/>
      <point x="241.0" y="103.0"/>
      <point x="242.0" y="142.0"/>
      <point x="242.0" y="161.0" type="curve" smooth="yes"/>
      <point x="242.0" y="346.0" type="line" smooth="yes"/>
      <point x="242.0" y="399.0"/>
      <point x="246.0" y="435.0"/>
    </contour>
    <contour>
      <point x="449.0" y="416.0" type="line"/>
      <point x="161.0" y="141.0" type="line"/>
      <point x="210.0" y="90.0" type="line"/>
      <point x="497.0" y="366.0" type="line"/>
    </contour>
    <contour>
      <point x="625.0" y="435.0" type="curve"/>
      <point x="625.0" y="500.0" type="line"/>
      <point x="363.0" y="500.0" type="line"/>
      <point x="363.0" y="424.0" type="line"/>
      <point x="377.0" y="424.0"/>
      <point x="407.0" y="425.0"/>
      <point x="428.0" y="427.0" type="curve"/>
      <point x="425.0" y="397.0"/>
      <point x="424.0" y="358.0"/>
      <point x="424.0" y="339.0" type="curve" smooth="yes"/>
      <point x="424.0" y="154.0" type="line" smooth="yes"/>
      <point x="424.0" y="101.0"/>
      <point x="420.0" y="65.0"/>
      <point x="365.0" y="65.0" type="curve"/>
      <point x="365.0" y="0.0" type="line"/>
      <point x="627.0" y="0.0" type="line"/>
      <point x="627.0" y="76.0" type="line"/>
      <point x="613.0" y="76.0"/>
      <point x="583.0" y="75.0"/>
      <point x="562.0" y="73.0" type="curve"/>
      <point x="565.0" y="103.0"/>
      <point x="566.0" y="142.0"/>
      <point x="566.0" y="161.0" type="curve" smooth="yes"/>
      <point x="566.0" y="346.0" type="line" smooth="yes"/>
      <point x="566.0" y="399.0"/>
      <point x="570.0" y="435.0"/>
    </contour>
  </outline>
</glyph>
<glyph name="em-cy" format="2">
  <advance width="800.0"/>
  <unicode hex="043C"/>
  <anchor x="686.0" y="0.0" name="bottomright"/>
  <outline>
    <contour>
      <point x="28.0" y="0.0" type="line"/>
      <point x="225.0" y="0.0" type="line"/>
      <point x="225.0" y="76.0" type="line"/>
      <point x="159.0" y="74.0" type="line"/>
      <point x="163.0" y="88.0"/>
      <point x="166.0" y="101.0"/>
      <point x="168.0" y="117.0" type="curve" smooth="yes"/>
      <point x="188.0" y="245.0" type="line" smooth="yes"/>
      <point x="195.0" y="286.0"/>
      <point x="197.0" y="315.0"/>
      <point x="197.0" y="349.0" type="curve"/>
      <point x="208.0" y="319.0"/>
      <point x="217.0" y="294.0"/>
      <point x="230.0" y="262.0" type="curve" smooth="yes"/>
      <point x="340.0" y="0.0" type="line"/>
      <point x="419.0" y="0.0" type="line"/>
      <point x="553.0" y="354.0" type="line"/>
      <point x="596.0" y="119.0" type="line" smooth="yes"/>
      <point x="604.0" y="76.0"/>
      <point x="582.0" y="65.0"/>
      <point x="540.0" y="65.0" type="curve"/>
      <point x="540.0" y="0.0" type="line"/>
      <point x="778.0" y="0.0" type="line"/>
      <point x="778.0" y="76.0" type="line"/>
      <point x="723.0" y="73.0" type="line"/>
      <point x="725.0" y="92.0"/>
      <point x="724.0" y="113.0"/>
      <point x="720.0" y="132.0" type="curve" smooth="yes"/>
      <point x="675.0" y="390.0" type="line" smooth="yes"/>
      <point x="668.0" y="426.0"/>
      <point x="689.0" y="442.0"/>
      <point x="731.0" y="444.0" type="curve"/>
      <point x="731.0" y="500.0" type="line"/>
      <point x="533.0" y="500.0" type="line"/>
      <point x="427.0" y="207.0" type="line" smooth="yes"/>
      <point x="419.0" y="184.0"/>
      <point x="411.0" y="163.0"/>
      <point x="403.0" y="141.0" type="curve"/>
      <point x="393.0" y="168.0"/>
      <point x="378.0" y="201.0"/>
      <point x="368.0" y="226.0" type="curve" smooth="yes"/>
      <point x="253.0" y="500.0" type="line"/>
      <point x="58.0" y="500.0" type="line"/>
      <point x="58.0" y="424.0" type="line"/>
      <point x="137.0" y="427.0" type="line"/>
      <point x="133.0" y="415.0"/>
      <point x="132.0" y="400.0"/>
      <point x="130.0" y="381.0" type="curve" smooth="yes"/>
      <point x="96.0" y="120.0" type="line" smooth="yes"/>
      <point x="90.0" y="78.0"/>
      <point x="71.0" y="67.0"/>
      <point x="28.0" y="65.0" type="curve"/>
    </contour>
  </outline>
</glyph>
<glyph name="te-cy" format="2">
  <advance width="523"/>
  <unicode hex="0442"/>
  <anchor x="331" y="0" name="bottomright"/>
  <outline>
    <contour>
      <point x="131" y="0" type="line"/>
      <point x="393" y="0" type="line"/>
      <point x="393" y="76" type="line"/>
      <point x="328" y="73" type="line"/>
      <point x="331" y="103"/>
      <point x="332" y="142"/>
      <point x="332" y="161" type="curve" smooth="yes"/>
      <point x="332" y="422" type="line"/>
      <point x="354" y="422" type="line" smooth="yes"/>
      <point x="414" y="422"/>
      <point x="443" y="397"/>
      <point x="443" y="318" type="curve"/>
      <point x="508" y="318" type="line"/>
      <point x="504" y="500" type="line"/>
      <point x="19" y="500" type="line"/>
      <point x="15" y="318" type="line"/>
      <point x="80" y="318" type="line"/>
      <point x="80" y="397"/>
      <point x="109" y="422"/>
      <point x="169" y="422" type="curve" smooth="yes"/>
      <point x="194" y="422" type="line"/>
      <point x="192" y="392"/>
      <point x="191" y="357"/>
      <point x="191" y="339" type="curve" smooth="yes"/>
      <point x="191" y="154" type="line" smooth="yes"/>
      <point x="191" y="101"/>
      <point x="187" y="65"/>
      <point x="131" y="65" type="curve"/>
    </contour>
  </outline>
</glyph>
<glyph name="ef-cy" format="2">
  <advance width="798.0"/>
  <unicode hex="0444"/>
  <outline>
    <contour>
      <point x="269.0" y="-255.0" type="line"/>
      <point x="531.0" y="-255.0" type="line"/>
      <point x="531.0" y="-179.0" type="line"/>
      <point x="466.0" y="-182.0" type="line"/>
      <point x="469.0" y="-152.0"/>
      <point x="470.0" y="-114.0"/>
      <point x="470.0" y="-95.0" type="curve" smooth="yes"/>
      <point x="470.0" y="755.0" type="line"/>
      <point x="416.0" y="755.0" type="line"/>
      <point x="402.0" y="742.0"/>
      <point x="354.0" y="725.0"/>
      <point x="262.0" y="725.0" type="curve"/>
      <point x="262.0" y="649.0" type="line"/>
      <point x="332.0" y="652.0" type="line"/>
      <point x="329.0" y="623.0"/>
      <point x="328.0" y="589.0"/>
      <point x="328.0" y="565.0" type="curve" smooth="yes"/>
      <point x="328.0" y="-102.0" type="line" smooth="yes"/>
      <point x="328.0" y="-154.0"/>
      <point x="324.0" y="-190.0"/>
      <point x="269.0" y="-190.0" type="curve"/>
    </contour>
    <contour>
      <point x="258.0" y="-16.0" type="curve" smooth="yes"/>
      <point x="306.0" y="-16.0"/>
      <point x="348.0" y="-7.0"/>
      <point x="387.0" y="25.0" type="curve"/>
      <point x="345.0" y="80.0" type="line"/>
      <point x="332.0" y="64.0"/>
      <point x="316.0" y="55.0"/>
      <point x="285.0" y="54.0" type="curve" smooth="yes"/>
      <point x="208.0" y="53.0"/>
      <point x="178.0" y="167.0"/>
      <point x="178.0" y="266.0" type="curve" smooth="yes"/>
      <point x="179.0" y="350.0"/>
      <point x="195.0" y="442.0"/>
      <point x="274.0" y="443.0" type="curve" smooth="yes"/>
      <point x="307.0" y="444.0"/>
      <point x="333.0" y="420.0"/>
      <point x="354.0" y="381.0" type="curve"/>
      <point x="399.0" y="436.0" type="line"/>
      <point x="364.0" y="487.0"/>
      <point x="322.0" y="514.0"/>
      <point x="278.0" y="514.0" type="curve" smooth="yes"/>
      <point x="128.0" y="514.0"/>
      <point x="31.0" y="408.0"/>
      <point x="31.0" y="241.0" type="curve" smooth="yes"/>
      <point x="31.0" y="81.0"/>
      <point x="133.0" y="-16.0"/>
    </contour>
    <contour>
      <point x="520.0" y="-16.0" type="curve" smooth="yes"/>
      <point x="669.0" y="-16.0"/>
      <point x="767.0" y="90.0"/>
      <point x="767.0" y="257.0" type="curve" smooth="yes"/>
      <point x="767.0" y="417.0"/>
      <point x="665.0" y="514.0"/>
      <point x="540.0" y="514.0" type="curve" smooth="yes"/>
      <point x="480.0" y="514.0"/>
      <point x="443.0" y="500.0"/>
      <point x="411.0" y="473.0" type="curve"/>
      <point x="453.0" y="418.0" type="line"/>
      <point x="466.0" y="434.0"/>
      <point x="482.0" y="443.0"/>
      <point x="513.0" y="444.0" type="curve" smooth="yes"/>
      <point x="590.0" y="445.0"/>
      <point x="620.0" y="331.0"/>
      <point x="620.0" y="232.0" type="curve" smooth="yes"/>
      <point x="619.0" y="148.0"/>
      <point x="603.0" y="56.0"/>
      <point x="524.0" y="55.0" type="curve" smooth="yes"/>
      <point x="491.0" y="54.0"/>
      <point x="464.0" y="78.0"/>
      <point x="444.0" y="117.0" type="curve"/>
      <point x="399.0" y="62.0" type="line"/>
      <point x="434.0" y="11.0"/>
      <point x="476.0" y="-16.0"/>
    </contour>
  </outline>
</glyph>
<glyph name="sha-cy" format="2">
  <advance width="904.0"/>
  <unicode hex="0448"/>
  <outline>
    <contour>
      <point x="43.0" y="0.0" type="line"/>
      <point x="863.0" y="0.0" type="line"/>
      <point x="863.0" y="76.0" type="line"/>
      <point x="798.0" y="73.0" type="line"/>
      <point x="801.0" y="103.0"/>
      <point x="802.0" y="142.0"/>
      <point x="802.0" y="161.0" type="curve" smooth="yes"/>
      <point x="802.0" y="346.0" type="line" smooth="yes"/>
      <point x="802.0" y="399.0"/>
      <point x="806.0" y="435.0"/>
      <point x="861.0" y="435.0" type="curve"/>
      <point x="861.0" y="500.0" type="line"/>
      <point x="619.0" y="500.0" type="line"/>
      <point x="619.0" y="424.0" type="line"/>
      <point x="669.0" y="427.0" type="line"/>
      <point x="666.0" y="397.0"/>
      <point x="665.0" y="358.0"/>
      <point x="665.0" y="339.0" type="curve" smooth="yes"/>
      <point x="665.0" y="154.0" type="line" smooth="yes"/>
      <point x="665.0" y="109.0"/>
      <point x="661.0" y="79.0"/>
      <point x="605.0" y="79.0" type="curve" smooth="yes"/>
      <point x="517.0" y="79.0" type="line"/>
      <point x="520.0" y="108.0"/>
      <point x="521.0" y="142.0"/>
      <point x="521.0" y="161.0" type="curve" smooth="yes"/>
      <point x="521.0" y="346.0" type="line" smooth="yes"/>
      <point x="521.0" y="399.0"/>
      <point x="524.0" y="435.0"/>
      <point x="575.0" y="435.0" type="curve"/>
      <point x="575.0" y="500.0" type="line"/>
      <point x="337.0" y="500.0" type="line"/>
      <point x="337.0" y="424.0" type="line"/>
      <point x="388.0" y="427.0" type="line"/>
      <point x="385.0" y="397.0"/>
      <point x="384.0" y="358.0"/>
      <point x="384.0" y="339.0" type="curve" smooth="yes"/>
      <point x="384.0" y="154.0" type="line" smooth="yes"/>
      <point x="384.0" y="109.0"/>
      <point x="380.0" y="79.0"/>
      <point x="324.0" y="79.0" type="curve" smooth="yes"/>
      <point x="236.0" y="79.0" type="line"/>
      <point x="239.0" y="107.0"/>
      <point x="240.0" y="142.0"/>
      <point x="240.0" y="161.0" type="curve" smooth="yes"/>
      <point x="240.0" y="346.0" type="line" smooth="yes"/>
      <point x="240.0" y="399.0"/>
      <point x="244.0" y="435.0"/>
      <point x="295.0" y="435.0" type="curve"/>
      <point x="295.0" y="500.0" type="line"/>
      <point x="42.0" y="500.0" type="line"/>
      <point x="42.0" y="424.0" type="line"/>
      <point x="106.0" y="427.0" type="line"/>
      <point x="104.0" y="397.0"/>
      <point x="103.0" y="358.0"/>
      <point x="103.0" y="339.0" type="curve" smooth="yes"/>
      <point x="103.0" y="154.0" type="line" smooth="yes"/>
      <point x="103.0" y="101.0"/>
      <point x="99.0" y="65.0"/>
      <point x="43.0" y="65.0" type="curve"/>
    </contour>
  </outline>
</glyph>
<glyph name="hardsign-cy" format="2">
  <advance width="645.0"/>
  <unicode hex="044A"/>
  <outline>
    <contour>
      <point x="407.0" y="435.0" type="curve"/>
      <point x="407.0" y="500.0" type="line"/>
      <point x="19.0" y="500.0" type="line"/>
      <point x="15.0" y="318.0" type="line"/>
      <point x="80.0" y="318.0" type="line"/>
      <point x="80.0" y="397.0"/>
      <point x="109.0" y="422.0"/>
      <point x="169.0" y="422.0" type="curve" smooth="yes"/>
      <point x="214.0" y="422.0" type="line"/>
      <point x="212.0" y="393.0"/>
      <point x="211.0" y="357.0"/>
      <point x="211.0" y="339.0" type="curve" smooth="yes"/>
      <point x="211.0" y="126.0" type="line" smooth="yes"/>
      <point x="211.0" y="69.0"/>
      <point x="187.0" y="66.0"/>
      <point x="151.0" y="65.0" type="curve"/>
      <point x="151.0" y="0.0" type="line"/>
      <point x="444.0" y="0.0" type="line" smooth="yes"/>
      <point x="540.0" y="0.0"/>
      <point x="621.0" y="49.0"/>
      <point x="620.0" y="158.0" type="curve"/>
      <point x="620.0" y="242.0"/>
      <point x="574.0" y="310.0"/>
      <point x="394.0" y="304.0" type="curve" smooth="yes"/>
      <point x="349.0" y="302.0" type="line"/>
      <point x="348.0" y="346.0" type="line"/>
      <point x="348.0" y="399.0"/>
      <point x="352.0" y="435.0"/>
    </contour>
    <contour>
      <point x="348.0" y="128.0" type="curve" smooth="yes"/>
      <point x="348.0" y="241.0" type="line"/>
      <point x="367.0" y="242.0"/>
      <point x="381.0" y="241.0"/>
      <point x="408.0" y="242.0" type="curve" smooth="yes"/>
      <point x="450.0" y="242.0"/>
      <point x="486.0" y="213.0"/>
      <point x="484.0" y="153.0" type="curve" smooth="yes"/>
      <point x="483.0" y="101.0"/>
      <point x="455.0" y="71.0"/>
      <point x="415.0" y="69.0" type="curve" smooth="yes"/>
      <point x="392.0" y="67.0"/>
      <point x="370.0" y="68.0"/>
      <point x="342.0" y="68.0" type="curve"/>
      <point x="344.0" y="84.0"/>
      <point x="348.0" y="104.0"/>
    </contour>
  </outline>
</glyph>
<glyph name="yeru-cy" format="2">
  <advance width="858.0"/>
  <unicode hex="044B"/>
  <anchor x="410.0" y="500.0" name="top"/>
  <outline>
    <contour>
      <point x="43.0" y="0.0" type="line"/>
      <point x="342.0" y="0.0" type="line" smooth="yes"/>
      <point x="438.0" y="0.0"/>
      <point x="518.0" y="49.0"/>
      <point x="518.0" y="158.0" type="curve" smooth="yes"/>
      <point x="518.0" y="242.0"/>
      <point x="471.0" y="310.0"/>
      <point x="292.0" y="304.0" type="curve" smooth="yes"/>
      <point x="246.0" y="302.0" type="line"/>
      <point x="245.0" y="346.0" type="line" smooth="yes"/>
      <point x="245.0" y="399.0"/>
      <point x="249.0" y="435.0"/>
      <point x="305.0" y="435.0" type="curve"/>
      <point x="305.0" y="500.0" type="line"/>
      <point x="42.0" y="500.0" type="line"/>
      <point x="42.0" y="424.0" type="line"/>
      <point x="56.0" y="424.0"/>
      <point x="85.0" y="425.0"/>
      <point x="106.0" y="427.0" type="curve"/>
      <point x="104.0" y="397.0"/>
      <point x="103.0" y="358.0"/>
      <point x="103.0" y="339.0" type="curve" smooth="yes"/>
      <point x="103.0" y="126.0" type="line" smooth="yes"/>
      <point x="103.0" y="69.0"/>
      <point x="79.0" y="66.0"/>
      <point x="43.0" y="65.0" type="curve"/>
    </contour>
    <contour>
      <point x="239.0" y="68.0" type="curve"/>
      <point x="241.0" y="84.0"/>
      <point x="245.0" y="104.0"/>
      <point x="245.0" y="128.0" type="curve" smooth="yes"/>
      <point x="245.0" y="241.0" type="line"/>
      <point x="265.0" y="242.0"/>
      <point x="278.0" y="241.0"/>
      <point x="305.0" y="242.0" type="curve" smooth="yes"/>
      <point x="347.0" y="242.0"/>
      <point x="383.0" y="213.0"/>
      <point x="381.0" y="153.0" type="curve" smooth="yes"/>
      <point x="381.0" y="101.0"/>
      <point x="352.0" y="71.0"/>
      <point x="313.0" y="69.0" type="curve" smooth="yes"/>
      <point x="289.0" y="67.0"/>
      <point x="267.0" y="68.0"/>
    </contour>
    <contour>
      <point x="554.0" y="0.0" type="line"/>
      <point x="817.0" y="0.0" type="line"/>
      <point x="817.0" y="76.0" type="line"/>
      <point x="803.0" y="76.0"/>
      <point x="773.0" y="75.0"/>
      <point x="752.0" y="73.0" type="curve"/>
      <point x="755.0" y="103.0"/>
      <point x="756.0" y="142.0"/>
      <point x="756.0" y="161.0" type="curve" smooth="yes"/>
      <point x="756.0" y="346.0" type="line" smooth="yes"/>
      <point x="756.0" y="399.0"/>
      <point x="760.0" y="435.0"/>
      <point x="815.0" y="435.0" type="curve"/>
      <point x="815.0" y="500.0" type="line"/>
      <point x="553.0" y="500.0" type="line"/>
      <point x="553.0" y="424.0" type="line"/>
      <point x="567.0" y="424.0"/>
      <point x="596.0" y="425.0"/>
      <point x="618.0" y="427.0" type="curve"/>
      <point x="615.0" y="397.0"/>
      <point x="614.0" y="358.0"/>
      <point x="614.0" y="339.0" type="curve" smooth="yes"/>
      <point x="614.0" y="154.0" type="line" smooth="yes"/>
      <point x="614.0" y="101.0"/>
      <point x="610.0" y="65.0"/>
      <point x="554.0" y="65.0" type="curve"/>
    </contour>
  </outline>
</glyph>
<glyph name="softsign-cy" format="2">
  <advance width="569.0"/>
  <unicode hex="044C"/>
  <outline>
    <contour>
      <point x="43.0" y="0.0" type="line"/>
      <point x="352.0" y="0.0" type="line" smooth="yes"/>
      <point x="447.0" y="0.0"/>
      <point x="528.0" y="49.0"/>
      <point x="527.0" y="158.0" type="curve"/>
      <point x="527.0" y="242.0"/>
      <point x="481.0" y="310.0"/>
      <point x="292.0" y="304.0" type="curve" smooth="yes"/>
      <point x="245.0" y="302.0" type="line"/>
      <point x="245.0" y="346.0" type="line" smooth="yes"/>
      <point x="245.0" y="399.0"/>
      <point x="249.0" y="435.0"/>
      <point x="305.0" y="435.0" type="curve"/>
      <point x="305.0" y="500.0" type="line"/>
      <point x="42.0" y="500.0" type="line"/>
      <point x="42.0" y="424.0" type="line"/>
      <point x="56.0" y="424.0"/>
      <point x="85.0" y="425.0"/>
      <point x="106.0" y="427.0" type="curve"/>
      <point x="104.0" y="397.0"/>
      <point x="103.0" y="358.0"/>
      <point x="103.0" y="339.0" type="curve" smooth="yes"/>
      <point x="103.0" y="126.0" type="line" smooth="yes"/>
      <point x="103.0" y="69.0"/>
      <point x="79.0" y="66.0"/>
      <point x="43.0" y="65.0" type="curve"/>
    </contour>
    <contour>
      <point x="239.0" y="68.0" type="curve"/>
      <point x="241.0" y="84.0"/>
      <point x="245.0" y="104.0"/>
      <point x="245.0" y="128.0" type="curve" smooth="yes"/>
      <point x="245.0" y="241.0" type="line"/>
      <point x="262.0" y="242.0"/>
      <point x="285.0" y="242.0"/>
      <point x="308.0" y="242.0" type="curve" smooth="yes"/>
      <point x="357.0" y="242.0"/>
      <point x="393.0" y="213.0"/>
      <point x="392.0" y="153.0" type="curve" smooth="yes"/>
      <point x="391.0" y="101.0"/>
      <point x="363.0" y="71.0"/>
      <point x="316.0" y="69.0" type="curve" smooth="yes"/>
      <point x="295.0" y="68.0"/>
      <point x="264.0" y="68.0"/>
    </contour>
  </outline>
</glyph>
<glyph name="ereversed-cy" format="2">
  <advance width="536.0"/>
  <unicode hex="044D"/>
  <anchor x="252.0" y="500.0" name="top"/>
  <outline>
    <contour>
      <point x="245.0" y="-16.0" type="curve" smooth="yes"/>
      <point x="423.0" y="-16.0"/>
      <point x="505.0" y="120.0"/>
      <point x="505.0" y="261.0" type="curve" smooth="yes"/>
      <point x="505.0" y="426.0"/>
      <point x="394.0" y="515.0"/>
      <point x="278.0" y="515.0" type="curve" smooth="yes"/>
      <point x="226.0" y="515.0"/>
      <point x="161.0" y="497.0"/>
      <point x="119.0" y="461.0" type="curve"/>
      <point x="120.0" y="511.0" type="line"/>
      <point x="44.0" y="511.0" type="line"/>
      <point x="44.0" y="334.0" type="line"/>
      <point x="108.0" y="334.0" type="line"/>
      <point x="118.0" y="391.0"/>
      <point x="175.0" y="437.0"/>
      <point x="241.0" y="437.0" type="curve" smooth="yes"/>
      <point x="321.0" y="437.0"/>
      <point x="363.0" y="381.0"/>
      <point x="363.0" y="237.0" type="curve" smooth="yes"/>
      <point x="363.0" y="120.0"/>
      <point x="321.0" y="54.0"/>
      <point x="245.0" y="51.0" type="curve" smooth="yes"/>
      <point x="217.0" y="50.0"/>
      <point x="182.0" y="53.0"/>
      <point x="158.0" y="80.0" type="curve"/>
      <point x="166.0" y="94.0"/>
      <point x="170.0" y="112.0"/>
      <point x="170.0" y="124.0" type="curve" smooth="yes"/>
      <point x="170.0" y="152.0"/>
      <point x="153.0" y="189.0"/>
      <point x="102.0" y="189.0" type="curve" smooth="yes"/>
      <point x="59.0" y="189.0"/>
      <point x="35.0" y="155.0"/>
      <point x="35.0" y="114.0" type="curve" smooth="yes"/>
      <point x="35.0" y="50.0"/>
      <point x="119.0" y="-16.0"/>
    </contour>
    <contour>
      <point x="133.0" y="224.0" type="line"/>
      <point x="373.0" y="230.0" type="line"/>
      <point x="367.0" y="293.0" type="line"/>
      <point x="133.0" y="293.0" type="line"/>
    </contour>
  </outline>
</glyph>
<glyph name="iu-cy" format="2">
  <advance width="866.0"/>
  <unicode hex="044E"/>
  <outline>
    <contour>
      <point x="586.0" y="-16.0" type="curve" smooth="yes"/>
      <point x="732.0" y="-16.0"/>
      <point x="835.0" y="91.0"/>
      <point x="835.0" y="259.0" type="curve" smooth="yes"/>
      <point x="835.0" y="419.0"/>
      <point x="726.0" y="516.0"/>
      <point x="583.0" y="516.0" type="curve" smooth="yes"/>
      <point x="462.0" y="516.0"/>
      <point x="358.0" y="429.0"/>
      <point x="335.0" y="294.0" type="curve"/>
      <point x="245.0" y="294.0" type="line"/>
      <point x="245.0" y="346.0" type="line" smooth="yes"/>
      <point x="245.0" y="399.0"/>
      <point x="249.0" y="435.0"/>
      <point x="305.0" y="435.0" type="curve"/>
      <point x="305.0" y="500.0" type="line"/>
      <point x="42.0" y="500.0" type="line"/>
      <point x="42.0" y="424.0" type="line"/>
      <point x="106.0" y="427.0" type="line"/>
      <point x="104.0" y="397.0"/>
      <point x="103.0" y="358.0"/>
      <point x="103.0" y="339.0" type="curve" smooth="yes"/>
      <point x="103.0" y="154.0" type="line" smooth="yes"/>
      <point x="103.0" y="101.0"/>
      <point x="99.0" y="65.0"/>
      <point x="43.0" y="65.0" type="curve"/>
      <point x="43.0" y="0.0" type="line"/>
      <point x="306.0" y="0.0" type="line"/>
      <point x="306.0" y="76.0" type="line"/>
      <point x="241.0" y="73.0" type="line"/>
      <point x="244.0" y="103.0"/>
      <point x="245.0" y="142.0"/>
      <point x="245.0" y="161.0" type="curve" smooth="yes"/>
      <point x="245.0" y="215.0" type="line"/>
      <point x="332.0" y="216.0" type="line"/>
      <point x="342.0" y="73.0"/>
      <point x="448.0" y="-16.0"/>
    </contour>
    <contour>
      <point x="590.0" y="55.0" type="curve" smooth="yes"/>
      <point x="508.0" y="53.0"/>
      <point x="478.0" y="164.0"/>
      <point x="478.0" y="266.0" type="curve" smooth="yes"/>
      <point x="478.0" y="353.0"/>
      <point x="503.0" y="444.0"/>
      <point x="581.0" y="446.0" type="curve" smooth="yes"/>
      <point x="662.0" y="448.0"/>
      <point x="687.0" y="333.0"/>
      <point x="687.0" y="234.0" type="curve" smooth="yes"/>
      <point x="687.0" y="149.0"/>
      <point x="669.0" y="56.0"/>
    </contour>
  </outline>
</glyph>
<glyph name="ia-cy" format="2">
  <advance width="591.0"/>
  <unicode hex="044F"/>
  <outline>
    <contour>
      <point x="22.0" y="0.0" type="line"/>
      <point x="122.0" y="0.0" type="line" smooth="yes"/>
      <point x="165.0" y="0.0"/>
      <point x="192.0" y="31.0"/>
      <point x="233.0" y="87.0" type="curve" smooth="yes"/>
      <point x="262.0" y="124.0"/>
      <point x="288.0" y="176.0"/>
      <point x="304.0" y="197.0" type="curve"/>
      <point x="347.0" y="198.0" type="line"/>
      <point x="347.0" y="154.0" type="line" smooth="yes"/>
      <point x="347.0" y="101.0"/>
      <point x="345.0" y="65.0"/>
      <point x="302.0" y="65.0" type="curve"/>
      <point x="302.0" y="0.0" type="line"/>
      <point x="550.0" y="0.0" type="line"/>
      <point x="550.0" y="76.0" type="line"/>
      <point x="485.0" y="73.0" type="line"/>
      <point x="488.0" y="103.0"/>
      <point x="489.0" y="142.0"/>
      <point x="489.0" y="161.0" type="curve" smooth="yes"/>
      <point x="489.0" y="374.0" type="line" smooth="yes"/>
      <point x="489.0" y="431.0"/>
      <point x="518.0" y="434.0"/>
      <point x="549.0" y="435.0" type="curve"/>
      <point x="549.0" y="500.0" type="line"/>
      <point x="246.0" y="500.0" type="line" smooth="yes"/>
      <point x="150.0" y="500.0"/>
      <point x="69.0" y="451.0"/>
      <point x="70.0" y="351.0" type="curve" smooth="yes"/>
      <point x="70.0" y="285.0"/>
      <point x="113.0" y="241.0"/>
      <point x="187.0" y="219.0" type="curve"/>
      <point x="169.0" y="212.0"/>
      <point x="155.0" y="199.0"/>
      <point x="146.0" y="185.0" type="curve" smooth="yes"/>
      <point x="114.0" y="135.0" type="line" smooth="yes"/>
      <point x="100.0" y="114.0"/>
      <point x="63.0" y="65.0"/>
      <point x="22.0" y="65.0" type="curve"/>
    </contour>
    <contour>
      <point x="285.0" y="258.0" type="curve" smooth="yes"/>
      <point x="238.0" y="257.0"/>
      <point x="202.0" y="292.0"/>
      <point x="203.0" y="347.0" type="curve" smooth="yes"/>
      <point x="204.0" y="399.0"/>
      <point x="232.0" y="429.0"/>
      <point x="272.0" y="431.0" type="curve" smooth="yes"/>
      <point x="296.0" y="433.0"/>
      <point x="322.0" y="432.0"/>
      <point x="350.0" y="432.0" type="curve"/>
      <point x="348.0" y="416.0"/>
      <point x="347.0" y="396.0"/>
      <point x="347.0" y="372.0" type="curve" smooth="yes"/>
      <point x="347.0" y="259.0" type="line"/>
      <point x="326.0" y="259.0"/>
      <point x="306.0" y="258.0"/>
    </contour>
  </outline>
</glyph>
<glyph name="e-cy" format="2">
  <advance width="518.0"/>
  <unicode hex="0454"/>
  <anchor x="313.0" y="0.0" name="bottom"/>
  <anchor x="300.0" y="500.0" name="top"/>
  <outline>
    <contour>
      <point x="127.0" y="211.0" type="line"/>
      <point x="360.0" y="217.0" type="line"/>
      <point x="361.0" y="280.0" type="line"/>
      <point x="127.0" y="280.0" type="line"/>
    </contour>
    <component base="c"/>
  </outline>
</glyph>
<glyph name="lje-cy" format="2">
  <advance width="876.0"/>
  <unicode hex="0459"/>
  <outline>
    <contour>
      <point x="111.0" y="-14.0" type="curve" smooth="yes"/>
      <point x="228.0" y="-14.0"/>
      <point x="294.0" y="113.0"/>
      <point x="309.0" y="380.0" type="curve" smooth="yes"/>
      <point x="311.0" y="413.0"/>
      <point x="324.0" y="421.0"/>
      <point x="356.0" y="421.0" type="curve" smooth="yes"/>
      <point x="436.0" y="421.0" type="line"/>
      <point x="433.0" y="393.0"/>
      <point x="433.0" y="358.0"/>
      <point x="433.0" y="339.0" type="curve" smooth="yes"/>
      <point x="433.0" y="126.0" type="line" smooth="yes"/>
      <point x="433.0" y="69.0"/>
      <point x="409.0" y="66.0"/>
      <point x="373.0" y="65.0" type="curve"/>
      <point x="373.0" y="0.0" type="line"/>
      <point x="673.0" y="0.0" type="line" smooth="yes"/>
      <point x="769.0" y="0.0"/>
      <point x="852.0" y="49.0"/>
      <point x="851.0" y="158.0" type="curve"/>
      <point x="851.0" y="242.0"/>
      <point x="803.0" y="310.0"/>
      <point x="616.0" y="304.0" type="curve" smooth="yes"/>
      <point x="569.0" y="302.0" type="line"/>
      <point x="569.0" y="346.0" type="line" smooth="yes"/>
      <point x="569.0" y="399.0"/>
      <point x="573.0" y="435.0"/>
      <point x="629.0" y="435.0" type="curve"/>
      <point x="629.0" y="500.0" type="line"/>
      <point x="140.0" y="500.0" type="line"/>
      <point x="140.0" y="424.0" type="line"/>
      <point x="233.0" y="431.0" type="line"/>
      <point x="230.0" y="373.0" type="line" smooth="yes"/>
      <point x="215.0" y="127.0"/>
      <point x="164.0" y="56.0"/>
      <point x="133.0" y="56.0" type="curve" smooth="yes"/>
      <point x="129.0" y="56.0"/>
      <point x="125.0" y="57.0"/>
      <point x="122.0" y="59.0" type="curve"/>
      <point x="128.0" y="65.0"/>
      <point x="133.0" y="73.0"/>
      <point x="133.0" y="90.0" type="curve" smooth="yes"/>
      <point x="133.0" y="116.0"/>
      <point x="117.0" y="144.0"/>
      <point x="74.0" y="144.0" type="curve" smooth="yes"/>
      <point x="33.0" y="144.0"/>
      <point x="5.0" y="120.0"/>
      <point x="5.0" y="76.0" type="curve" smooth="yes"/>
      <point x="5.0" y="22.0"/>
      <point x="49.0" y="-14.0"/>
    </contour>
    <contour>
      <point x="563.0" y="68.0" type="curve"/>
      <point x="565.0" y="84.0"/>
      <point x="569.0" y="104.0"/>
      <point x="569.0" y="128.0" type="curve" smooth="yes"/>
      <point x="569.0" y="241.0" type="line"/>
      <point x="589.0" y="242.0"/>
      <point x="610.0" y="241.0"/>
      <point x="637.0" y="242.0" type="curve"/>
      <point x="680.0" y="242.0"/>
      <point x="717.0" y="213.0"/>
      <point x="716.0" y="153.0" type="curve" smooth="yes"/>
      <point x="715.0" y="101.0"/>
      <point x="686.0" y="71.0"/>
      <point x="644.0" y="69.0" type="curve"/>
      <point x="620.0" y="67.0"/>
      <point x="591.0" y="68.0"/>
    </contour>
  </outline>
</glyph>
<glyph name="nje-cy" format="2">
  <advance width="869"/>
  <unicode hex="045A"/>
  <outline>
    <contour>
      <point x="622" y="435" type="curve"/>
      <point x="622" y="500" type="line"/>
      <point x="369" y="500" type="line"/>
      <point x="369" y="424" type="line"/>
      <point x="429" y="427" type="line"/>
      <point x="426" y="397"/>
      <point x="425" y="358"/>
      <point x="425" y="339" type="curve" smooth="yes"/>
      <point x="425" y="126" type="line" smooth="yes"/>
      <point x="425" y="69"/>
      <point x="402" y="66"/>
      <point x="366" y="65" type="curve"/>
      <point x="366" y="0" type="line"/>
      <point x="669" y="0" type="line" smooth="yes"/>
      <point x="764" y="0"/>
      <point x="845" y="49"/>
      <point x="844" y="158" type="curve"/>
      <point x="844" y="242"/>
      <point x="798" y="310"/>
      <point x="609" y="304" type="curve" smooth="yes"/>
      <point x="562" y="302" type="line"/>
      <point x="562" y="346" type="line" smooth="yes"/>
      <point x="562" y="399"/>
      <point x="566" y="435"/>
    </contour>
    <contour>
      <point x="307" y="435" type="curve"/>
      <point x="307" y="500" type="line"/>
      <point x="50" y="500" type="line"/>
      <point x="50" y="424" type="line"/>
      <point x="114" y="427" type="line"/>
      <point x="112" y="397"/>
      <point x="111" y="358"/>
      <point x="111" y="339" type="curve" smooth="yes"/>
      <point x="111" y="154" type="line" smooth="yes"/>
      <point x="111" y="101"/>
      <point x="107" y="65"/>
      <point x="51" y="65" type="curve"/>
      <point x="51" y="0" type="line"/>
      <point x="299" y="0" type="line"/>
      <point x="299" y="76" type="line"/>
      <point x="243" y="73" type="line"/>
      <point x="246" y="103"/>
      <point x="247" y="142"/>
      <point x="247" y="161" type="curve" smooth="yes"/>
      <point x="247" y="346" type="line" smooth="yes"/>
      <point x="247" y="399"/>
      <point x="251" y="435"/>
    </contour>
    <contour>
      <point x="562" y="128" type="curve" smooth="yes"/>
      <point x="562" y="241" type="line"/>
      <point x="582" y="242"/>
      <point x="608" y="241"/>
      <point x="634" y="242" type="curve" smooth="yes"/>
      <point x="686" y="242"/>
      <point x="722" y="213"/>
      <point x="721" y="153" type="curve" smooth="yes"/>
      <point x="720" y="101"/>
      <point x="692" y="71"/>
      <point x="642" y="69" type="curve" smooth="yes"/>
      <point x="618" y="68"/>
      <point x="584" y="68"/>
      <point x="556" y="68" type="curve"/>
      <point x="558" y="84"/>
      <point x="562" y="104"/>
    </contour>
    <contour>
      <point x="189" y="304" type="line"/>
      <point x="189" y="225" type="line"/>
      <point x="463" y="227" type="line"/>
      <point x="463" y="304" type="line"/>
    </contour>
  </outline>
</glyph>
<glyph name="Yat-cy" format="2">
  <advance width="745.0"/>
  <unicode hex="0462"/>
  <outline>
    <contour>
      <point x="442.0" y="673.0" type="curve"/>
      <point x="442.0" y="739.0" type="line"/>
      <point x="155.0" y="739.0" type="line"/>
      <point x="155.0" y="662.0" type="line"/>
      <point x="169.0" y="663.0"/>
      <point x="209.0" y="664.0"/>
      <point x="230.0" y="665.0" type="curve"/>
      <point x="228.0" y="648.0"/>
      <point x="226.0" y="611.0"/>
      <point x="226.0" y="575.0" type="curve" smooth="yes"/>
      <point x="226.0" y="153.0" type="line" smooth="yes"/>
      <point x="226.0" y="72.0"/>
      <point x="200.0" y="68.0"/>
      <point x="155.0" y="66.0" type="curve"/>
      <point x="155.0" y="0.0" type="line"/>
      <point x="471.0" y="0.0" type="line" smooth="yes"/>
      <point x="611.0" y="0.0"/>
      <point x="714.0" y="69.0"/>
      <point x="714.0" y="199.0" type="curve" smooth="yes"/>
      <point x="714.0" y="305.0"/>
      <point x="655.0" y="417.0"/>
      <point x="426.0" y="409.0" type="curve" smooth="yes"/>
      <point x="371.0" y="407.0" type="line"/>
      <point x="371.0" y="586.0" type="line" smooth="yes"/>
      <point x="371.0" y="667.0"/>
      <point x="397.0" y="671.0"/>
    </contour>
    <contour>
      <point x="371.0" y="160.0" type="curve" smooth="yes"/>
      <point x="371.0" y="336.0" type="line"/>
      <point x="390.0" y="336.0"/>
      <point x="408.0" y="337.0"/>
      <point x="427.0" y="337.0" type="curve" smooth="yes"/>
      <point x="502.0" y="339.0"/>
      <point x="556.0" y="306.0"/>
      <point x="556.0" y="207.0" type="curve" smooth="yes"/>
      <point x="556.0" y="128.0"/>
      <point x="521.0" y="77.0"/>
      <point x="440.0" y="73.0" type="curve" smooth="yes"/>
      <point x="416.0" y="72.0"/>
      <point x="391.0" y="72.0"/>
      <point x="367.0" y="72.0" type="curve"/>
      <point x="369.0" y="89.0"/>
      <point x="371.0" y="124.0"/>
    </contour>
    <contour>
      <point x="567.0" y="440.0" type="curve"/>
      <point x="633.0" y="440.0" type="line"/>
      <point x="627.0" y="616.0" type="line"/>
      <point x="21.0" y="616.0" type="line"/>
      <point x="16.0" y="390.0" type="line"/>
      <point x="82.0" y="390.0" type="line"/>
      <point x="82.0" y="498.0"/>
      <point x="129.0" y="547.0"/>
      <point x="205.0" y="548.0" type="curve" smooth="yes"/>
      <point x="444.0" y="549.0" type="line" smooth="yes"/>
      <point x="520.0" y="550.0"/>
      <point x="567.0" y="519.0"/>
    </contour>
  </outline>
</glyph>
<glyph name="Yusbig-cy" format="2">
  <advance width="1015.0"/>
  <unicode hex="046A"/>
  <outline>
    <contour>
      <point x="-10.0" y="0.0" type="line"/>
      <point x="145.0" y="0.0" type="line"/>
      <point x="161.0" y="1.0"/>
      <point x="215.0" y="63.0"/>
      <point x="242.0" y="102.0" type="curve" smooth="yes"/>
      <point x="341.0" y="246.0" type="line" smooth="yes"/>
      <point x="359.0" y="271.0"/>
      <point x="381.0" y="302.0"/>
      <point x="400.0" y="315.0" type="curve"/>
      <point x="436.0" y="315.0" type="line"/>
      <point x="436.0" y="153.0" type="line" smooth="yes"/>
      <point x="436.0" y="72.0"/>
      <point x="409.0" y="68.0"/>
      <point x="364.0" y="66.0" type="curve"/>
      <point x="364.0" y="0.0" type="line"/>
      <point x="651.0" y="0.0" type="line"/>
      <point x="651.0" y="77.0" type="line"/>
      <point x="637.0" y="77.0"/>
      <point x="598.0" y="76.0"/>
      <point x="576.0" y="74.0" type="curve"/>
      <point x="579.0" y="91.0"/>
      <point x="580.0" y="128.0"/>
      <point x="580.0" y="164.0" type="curve" smooth="yes"/>
      <point x="580.0" y="315.0" type="line"/>
      <point x="616.0" y="315.0" type="line"/>
      <point x="634.0" y="302.0"/>
      <point x="656.0" y="271.0"/>
      <point x="675.0" y="246.0" type="curve"/>
      <point x="774.0" y="102.0" type="line" smooth="yes"/>
      <point x="800.0" y="63.0"/>
      <point x="855.0" y="1.0"/>
      <point x="871.0" y="0.0" type="curve"/>
      <point x="1025.0" y="0.0" type="line"/>
      <point x="1025.0" y="66.0" type="line"/>
      <point x="981.0" y="68.0"/>
      <point x="935.0" y="117.0"/>
      <point x="894.0" y="174.0" type="curve" smooth="yes"/>
      <point x="791.0" y="319.0" type="line" smooth="yes"/>
      <point x="775.0" y="341.0"/>
      <point x="736.0" y="395.0"/>
      <point x="658.0" y="395.0" type="curve"/>
      <point x="634.0" y="387.0" type="line"/>
      <point x="729.0" y="519.0" type="line" smooth="yes"/>
      <point x="778.0" y="587.0"/>
      <point x="786.0" y="599.0"/>
      <point x="823.0" y="606.0" type="curve"/>
      <point x="826.0" y="606.0" type="line"/>
      <point x="826.0" y="700.0" type="line"/>
      <point x="177.0" y="700.0" type="line"/>
      <point x="177.0" y="595.0" type="line"/>
      <point x="225.0" y="598.0" type="line"/>
      <point x="225.0" y="576.0"/>
      <point x="240.0" y="537.0"/>
      <point x="263.0" y="511.0" type="curve" smooth="yes"/>
      <point x="365.0" y="395.0" type="line"/>
      <point x="365.0" y="395.0"/>
      <point x="357.0" y="394.0"/>
      <point x="352.0" y="394.0" type="curve"/>
      <point x="294.0" y="390.0"/>
      <point x="255.0" y="364.0"/>
      <point x="225.0" y="319.0" type="curve" smooth="yes"/>
      <point x="122.0" y="174.0" type="line" smooth="yes"/>
      <point x="81.0" y="117.0"/>
      <point x="35.0" y="68.0"/>
      <point x="-10.0" y="66.0" type="curve"/>
    </contour>
    <contour>
      <point x="529.0" y="362.0" type="line"/>
      <point x="409.0" y="529.0" type="line"/>
      <point x="373.0" y="576.0"/>
      <point x="402.0" y="594.0"/>
      <point x="450.0" y="595.0" type="curve" smooth="yes"/>
      <point x="687.0" y="598.0" type="line"/>
      <point x="669.0" y="577.0"/>
      <point x="637.0" y="529.0"/>
      <point x="622.0" y="507.0" type="curve" smooth="yes"/>
    </contour>
  </outline>
</glyph>
<glyph name="yusbig-cy" format="2">
  <advance width="879.0"/>
  <unicode hex="046B"/>
  <guideline x="-116.0" y="283.0" angle="0.0"/>
  <guideline x="280.0" y="413.0" angle="0.0"/>
  <outline>
    <contour>
      <point x="18.0" y="0.0" type="line"/>
      <point x="130.0" y="0.0" type="line" smooth="yes"/>
      <point x="173.0" y="0.0"/>
      <point x="200.0" y="31.0"/>
      <point x="242.0" y="87.0" type="curve" smooth="yes"/>
      <point x="277.0" y="135.0"/>
      <point x="322.0" y="201.0"/>
      <point x="342.0" y="229.0" type="curve"/>
      <point x="372.0" y="229.0" type="line"/>
      <point x="372.0" y="154.0" type="line" smooth="yes"/>
      <point x="372.0" y="101.0"/>
      <point x="369.0" y="65.0"/>
      <point x="322.0" y="65.0" type="curve"/>
      <point x="322.0" y="0.0" type="line"/>
      <point x="552.0" y="0.0" type="line"/>
      <point x="552.0" y="76.0" type="line"/>
      <point x="499.0" y="73.0" type="line"/>
      <point x="501.0" y="103.0"/>
      <point x="502.0" y="142.0"/>
      <point x="502.0" y="161.0" type="curve" smooth="yes"/>
      <point x="502.0" y="228.0" type="line"/>
      <point x="538.0" y="229.0" type="line"/>
      <point x="558.0" y="201.0"/>
      <point x="602.0" y="135.0"/>
      <point x="638.0" y="87.0" type="curve" smooth="yes"/>
      <point x="679.0" y="31.0"/>
      <point x="707.0" y="0.0"/>
      <point x="749.0" y="0.0" type="curve" smooth="yes"/>
      <point x="861.0" y="0.0" type="line"/>
      <point x="861.0" y="65.0" type="line"/>
      <point x="820.0" y="65.0"/>
      <point x="785.0" y="115.0"/>
      <point x="770.0" y="135.0" type="curve" smooth="yes"/>
      <point x="748.0" y="164.0"/>
      <point x="725.0" y="194.0"/>
      <point x="703.0" y="223.0" type="curve" smooth="yes"/>
      <point x="674.0" y="260.0"/>
      <point x="643.0" y="302.0"/>
      <point x="589.0" y="299.0" type="curve" smooth="yes"/>
      <point x="553.0" y="297.0" type="line"/>
      <point x="572.0" y="316.0" type="line" smooth="yes"/>
      <point x="604.0" y="349.0"/>
      <point x="671.0" y="427.0"/>
      <point x="705.0" y="427.0" type="curve"/>
      <point x="705.0" y="500.0" type="line"/>
      <point x="172.0" y="500.0" type="line"/>
      <point x="172.0" y="414.0" type="line"/>
      <point x="209.0" y="415.0" type="line"/>
      <point x="214.0" y="391.0"/>
      <point x="221.0" y="374.0"/>
      <point x="260.0" y="341.0" type="curve" smooth="yes"/>
      <point x="312.0" y="298.0" type="line"/>
      <point x="280.0" y="302.0"/>
      <point x="264.0" y="299.0"/>
      <point x="244.0" y="287.0" type="curve" smooth="yes"/>
      <point x="214.0" y="270.0"/>
      <point x="184.0" y="233.0"/>
      <point x="143.0" y="180.0" type="curve" smooth="yes"/>
      <point x="70.0" y="84.0"/>
      <point x="58.0" y="65.0"/>
      <point x="18.0" y="65.0" type="curve"/>
    </contour>
    <contour>
      <point x="469.0" y="277.0" type="line"/>
      <point x="445.0" y="304.0"/>
      <point x="420.0" y="331.0"/>
      <point x="396.0" y="358.0" type="curve" smooth="yes"/>
      <point x="377.0" y="377.0"/>
      <point x="367.0" y="401.0"/>
      <point x="372.0" y="417.0" type="curve"/>
      <point x="586.0" y="421.0" type="line"/>
      <point x="574.0" y="405.0"/>
      <point x="565.0" y="393.0"/>
      <point x="556.0" y="382.0" type="curve"/>
    </contour>
  </outline>
</glyph>
<glyph name="Fita-cy" format="2">
  <advance width="769.0"/>
  <unicode hex="0472"/>
  <anchor x="385.0" y="0.0" name="bottom"/>
  <anchor x="385.0" y="350.0" name="center"/>
  <anchor x="692.0" y="10.0" name="ogonek"/>
  <anchor x="384.0" y="700.0" name="top"/>
  <anchor x="20.0" y="700.0" name="topleft"/>
  <anchor x="581.0" y="700.0" name="topright"/>
  <outline>
    <contour>
      <point x="484.0" y="262.0" type="curve" smooth="yes"/>
      <point x="548.0" y="262.0"/>
      <point x="576.0" y="318.0"/>
      <point x="609.0" y="410.0" type="curve"/>
      <point x="598.0" y="426.0" type="line"/>
      <point x="573.0" y="386.0"/>
      <point x="558.0" y="357.0"/>
      <point x="494.0" y="357.0" type="curve" smooth="yes"/>
      <point x="424.0" y="357.0"/>
      <point x="394.0" y="441.0"/>
      <point x="305.0" y="439.0" type="curve" smooth="yes"/>
      <point x="260.0" y="438.0"/>
      <point x="218.0" y="394.0"/>
      <point x="173.0" y="319.0" type="curve"/>
      <point x="182.0" y="291.0" type="line"/>
      <point x="203.0" y="309.0"/>
      <point x="242.0" y="343.0"/>
      <point x="298.0" y="343.0" type="curve" smooth="yes"/>
      <point x="369.0" y="343.0"/>
      <point x="406.0" y="262.0"/>
    </contour>
    <component base="O"/>
  </outline>
</glyph>
<glyph name="fita-cy" format="2">
  <advance width="566.0"/>
  <unicode hex="0473"/>
  <outline>
    <contour>
      <point x="325.0" y="198.0" type="curve" smooth="yes"/>
      <point x="363.0" y="198.0"/>
      <point x="384.0" y="233.0"/>
      <point x="407.0" y="275.0" type="curve"/>
      <point x="398.0" y="297.0" type="line"/>
      <point x="387.0" y="276.0"/>
      <point x="365.0" y="267.0"/>
      <point x="343.0" y="267.0" type="curve" smooth="yes"/>
      <point x="321.0" y="267.0"/>
      <point x="307.0" y="274.0"/>
      <point x="293.0" y="282.0" type="curve" smooth="yes"/>
      <point x="280.0" y="289.0"/>
      <point x="266.0" y="297.0"/>
      <point x="245.0" y="297.0" type="curve" smooth="yes"/>
      <point x="210.0" y="297.0"/>
      <point x="168.0" y="258.0"/>
      <point x="153.0" y="229.0" type="curve"/>
      <point x="160.0" y="207.0" type="line"/>
      <point x="177.0" y="223.0"/>
      <point x="202.0" y="227.0"/>
      <point x="218.0" y="227.0" type="curve" smooth="yes"/>
      <point x="240.0" y="227.0"/>
      <point x="253.0" y="221.0"/>
      <point x="266.0" y="214.0" type="curve" smooth="yes"/>
      <point x="281.0" y="206.0"/>
      <point x="297.0" y="198.0"/>
    </contour>
    <contour>
      <point x="286.0" y="-16.0" type="curve" smooth="yes"/>
      <point x="432.0" y="-16.0"/>
      <point x="535.0" y="91.0"/>
      <point x="535.0" y="259.0" type="curve" smooth="yes"/>
      <point x="535.0" y="419.0"/>
      <point x="426.0" y="516.0"/>
      <point x="283.0" y="516.0" type="curve" smooth="yes"/>
      <point x="146.0" y="516.0"/>
      <point x="31.0" y="405.0"/>
      <point x="31.0" y="239.0" type="curve" smooth="yes"/>
      <point x="31.0" y="82.0"/>
      <point x="141.0" y="-16.0"/>
    </contour>
    <contour>
      <point x="290.0" y="55.0" type="curve" smooth="yes"/>
      <point x="208.0" y="53.0"/>
      <point x="178.0" y="164.0"/>
      <point x="178.0" y="266.0" type="curve" smooth="yes"/>
      <point x="178.0" y="353.0"/>
      <point x="203.0" y="444.0"/>
      <point x="281.0" y="446.0" type="curve" smooth="yes"/>
      <point x="362.0" y="448.0"/>
      <point x="387.0" y="333.0"/>
      <point x="387.0" y="234.0" type="curve" smooth="yes"/>
      <point x="387.0" y="149.0"/>
      <point x="369.0" y="56.0"/>
    </contour>
  </outline>
</glyph>
<glyph name="Izhitsa-cy" format="2">
  <advance width="743.0"/>
  <unicode hex="0474"/>
  <outline>
    <contour>
      <point x="320.0" y="-6.0" type="line"/>
      <point x="402.0" y="-6.0" type="line"/>
      <point x="546.0" y="468.0" type="line" smooth="yes"/>
      <point x="581.0" y="583.0"/>
      <point x="607.0" y="645.0"/>
      <point x="623.0" y="645.0" type="curve" smooth="yes"/>
      <point x="627.0" y="645.0"/>
      <point x="630.0" y="644.0"/>
      <point x="632.0" y="641.0" type="curve"/>
      <point x="625.0" y="634.0"/>
      <point x="619.0" y="619.0"/>
      <point x="619.0" y="607.0" type="curve" smooth="yes"/>
      <point x="619.0" y="571.0"/>
      <point x="641.0" y="546.0"/>
      <point x="676.0" y="542.0" type="curve" smooth="yes"/>
      <point x="733.0" y="535.0"/>
      <point x="763.0" y="576.0"/>
      <point x="763.0" y="623.0" type="curve" smooth="yes"/>
      <point x="763.0" y="665.0"/>
      <point x="735.0" y="716.0"/>
      <point x="665.0" y="716.0" type="curve" smooth="yes"/>
      <point x="596.0" y="716.0"/>
      <point x="532.0" y="671.0"/>
      <point x="477.0" y="488.0" type="curve" smooth="yes"/>
      <point x="429.0" y="328.0"/>
      <point x="409.0" y="250.0"/>
      <point x="392.0" y="188.0" type="curve"/>
      <point x="356.0" y="276.0"/>
      <point x="370.0" y="250.0"/>
      <point x="337.0" y="331.0" type="curve" smooth="yes"/>
      <point x="245.0" y="557.0" type="line" smooth="yes"/>
      <point x="221.0" y="616.0"/>
      <point x="253.0" y="635.0"/>
      <point x="303.0" y="634.0" type="curve"/>
      <point x="303.0" y="700.0" type="line"/>
      <point x="8.0" y="700.0" type="line"/>
      <point x="8.0" y="623.0" type="line"/>
      <point x="22.0" y="624.0"/>
      <point x="40.0" y="625.0"/>
      <point x="62.0" y="626.0" type="curve"/>
      <point x="62.0" y="604.0"/>
      <point x="76.0" y="564.0"/>
      <point x="90.0" y="531.0" type="curve" smooth="yes"/>
    </contour>
  </outline>
</glyph>
<glyph name="izhitsa-cy" format="2">
  <advance width="558.0"/>
  <unicode hex="0475"/>
  <outline>
    <contour>
      <point x="227.0" y="-3.0" type="line"/>
      <point x="319.0" y="-3.0" type="line"/>
      <point x="404.0" y="329.0" type="line"/>
      <point x="430.0" y="419.0"/>
      <point x="442.0" y="451.0"/>
      <point x="465.0" y="451.0" type="curve" smooth="yes"/>
      <point x="469.0" y="451.0"/>
      <point x="473.0" y="449.0"/>
      <point x="474.0" y="447.0" type="curve"/>
      <point x="468.0" y="442.0"/>
      <point x="459.0" y="429.0"/>
      <point x="459.0" y="412.0" type="curve" smooth="yes"/>
      <point x="459.0" y="370.0"/>
      <point x="487.0" y="354.0"/>
      <point x="521.0" y="354.0" type="curve" smooth="yes"/>
      <point x="571.0" y="354.0"/>
      <point x="588.0" y="391.0"/>
      <point x="588.0" y="428.0" type="curve" smooth="yes"/>
      <point x="588.0" y="475.0"/>
      <point x="552.0" y="516.0"/>
      <point x="495.0" y="516.0" type="curve" smooth="yes"/>
      <point x="441.0" y="516.0"/>
      <point x="393.0" y="495.0"/>
      <point x="357.0" y="369.0" type="curve" smooth="yes"/>
      <point x="340.0" y="310.0"/>
      <point x="330.0" y="268.0"/>
      <point x="320.0" y="226.0" type="curve" smooth="yes"/>
      <point x="314.0" y="201.0"/>
      <point x="309.0" y="176.0"/>
      <point x="302.0" y="148.0" type="curve"/>
      <point x="292.0" y="174.0"/>
      <point x="281.0" y="199.0"/>
      <point x="271.0" y="225.0" type="curve"/>
      <point x="216.0" y="358.0" type="line" smooth="yes"/>
      <point x="200.0" y="397.0"/>
      <point x="198.0" y="434.0"/>
      <point x="240.0" y="436.0" type="curve"/>
      <point x="240.0" y="500.0" type="line"/>
      <point x="6.0" y="500.0" type="line"/>
      <point x="6.0" y="424.0" type="line"/>
      <point x="43.0" y="426.0" type="line"/>
      <point x="48.0" y="402.0"/>
      <point x="47.0" y="393.0"/>
      <point x="69.0" y="344.0" type="curve" smooth="yes"/>
    </contour>
  </outline>
</glyph>
